<svg width="40" height="40" viewBox="0 0 40 40" fill="none" xmlns="http://www.w3.org/2000/svg">
<path fill="#955AE0" d="M 20.839844 2.078125 C 20.839844 2.371094 20.824219 2.558594 20.800781 2.558594 C 20.777344 2.558594 20.761719 2.6875 20.761719 2.859375 C 20.761719 3.019531 20.742188 3.167969 20.71875 3.179688 C 20.699219 3.195312 20.679688 3.265625 20.679688 3.34375 C 20.679688 3.417969 20.660156 3.480469 20.640625 3.480469 C 20.617188 3.480469 20.601562 3.515625 20.601562 3.558594 C 20.601562 3.605469 20.582031 3.640625 20.558594 3.640625 C 20.539062 3.640625 20.519531 3.675781 20.519531 3.714844 C 20.519531 3.808594 20.359375 4.121094 20.3125 4.121094 C 20.292969 4.121094 20.28125 4.144531 20.28125 4.171875 C 20.28125 4.203125 20.242188 4.261719 20.199219 4.300781 C 20.15625 4.339844 20.121094 4.386719 20.121094 4.40625 C 20.121094 4.457031 19.609375 4.960938 19.5625 4.960938 C 19.539062 4.960938 19.519531 4.976562 19.519531 5 C 19.519531 5.023438 19.492188 5.039062 19.460938 5.039062 C 19.425781 5.039062 19.398438 5.058594 19.398438 5.078125 C 19.398438 5.101562 19.371094 5.121094 19.339844 5.121094 C 19.308594 5.121094 19.28125 5.136719 19.28125 5.160156 C 19.28125 5.183594 19.257812 5.199219 19.226562 5.199219 C 19.199219 5.199219 19.136719 5.234375 19.089844 5.28125 C 19.042969 5.324219 18.96875 5.359375 18.925781 5.359375 C 18.878906 5.359375 18.832031 5.378906 18.820312 5.398438 C 18.804688 5.421875 18.761719 5.441406 18.71875 5.441406 C 18.675781 5.441406 18.640625 5.457031 18.640625 5.480469 C 18.640625 5.503906 18.597656 5.519531 18.542969 5.519531 C 18.488281 5.519531 18.433594 5.539062 18.421875 5.558594 C 18.40625 5.582031 18.335938 5.601562 18.261719 5.601562 C 18.1875 5.601562 18.113281 5.617188 18.101562 5.640625 C 18.085938 5.660156 17.976562 5.679688 17.859375 5.679688 C 17.738281 5.679688 17.640625 5.699219 17.640625 5.71875 C 17.640625 5.746094 17.242188 5.761719 16.523438 5.761719 C 15.90625 5.761719 15.394531 5.777344 15.382812 5.792969 C 15.371094 5.8125 15.230469 5.839844 15.070312 5.851562 C 14.761719 5.875 14.714844 5.886719 14.558594 5.949219 C 14.503906 5.972656 14.4375 5.980469 14.410156 5.96875 C 14.382812 5.960938 14.335938 5.972656 14.304688 5.996094 C 14.277344 6.019531 14.203125 6.042969 14.144531 6.046875 C 14.085938 6.054688 14.039062 6.070312 14.039062 6.089844 C 14.039062 6.105469 13.996094 6.121094 13.941406 6.121094 C 13.890625 6.121094 13.832031 6.136719 13.820312 6.160156 C 13.804688 6.183594 13.761719 6.199219 13.71875 6.199219 C 13.675781 6.199219 13.640625 6.21875 13.640625 6.238281 C 13.640625 6.261719 13.609375 6.28125 13.570312 6.28125 C 13.53125 6.28125 13.457031 6.308594 13.410156 6.34375 C 13.359375 6.375 13.320312 6.390625 13.320312 6.375 C 13.320312 6.359375 13.285156 6.378906 13.238281 6.421875 C 13.195312 6.460938 13.160156 6.480469 13.160156 6.464844 C 13.160156 6.449219 13.082031 6.488281 12.988281 6.550781 C 12.898438 6.613281 12.769531 6.6875 12.710938 6.71875 C 12.648438 6.75 12.601562 6.789062 12.601562 6.808594 C 12.601562 6.824219 12.578125 6.839844 12.546875 6.839844 C 12.519531 6.839844 12.472656 6.875 12.441406 6.921875 C 12.410156 6.964844 12.347656 7 12.300781 7 C 12.234375 7 12.230469 7.007812 12.28125 7.039062 C 12.332031 7.074219 12.328125 7.078125 12.265625 7.078125 C 12.226562 7.078125 12.140625 7.132812 12.078125 7.199219 C 12.019531 7.265625 11.949219 7.320312 11.929688 7.320312 C 11.867188 7.320312 11.394531 7.796875 11.269531 7.980469 C 11.207031 8.066406 11.160156 8.121094 11.160156 8.097656 C 11.15625 8.0625 11.0625 8.199219 11.0625 8.242188 C 11.058594 8.253906 11.011719 8.316406 10.949219 8.378906 C 10.890625 8.445312 10.839844 8.53125 10.839844 8.570312 C 10.839844 8.609375 10.820312 8.640625 10.800781 8.640625 C 10.777344 8.640625 10.761719 8.664062 10.761719 8.691406 C 10.761719 8.722656 10.722656 8.785156 10.679688 8.832031 C 10.636719 8.878906 10.601562 8.953125 10.601562 9 C 10.601562 9.046875 10.582031 9.074219 10.558594 9.058594 C 10.535156 9.046875 10.523438 9.050781 10.527344 9.070312 C 10.546875 9.121094 10.429688 9.398438 10.390625 9.398438 C 10.375 9.398438 10.359375 9.4375 10.359375 9.480469 C 10.359375 9.523438 10.34375 9.558594 10.320312 9.558594 C 10.296875 9.558594 10.28125 9.613281 10.28125 9.679688 C 10.28125 9.746094 10.261719 9.800781 10.238281 9.800781 C 10.21875 9.800781 10.199219 9.855469 10.199219 9.921875 C 10.199219 9.984375 10.183594 10.039062 10.160156 10.039062 C 10.136719 10.039062 10.121094 10.113281 10.121094 10.199219 C 10.121094 10.289062 10.105469 10.359375 10.085938 10.359375 C 10.070312 10.359375 10.050781 10.445312 10.046875 10.546875 C 10.03125 10.796875 10 10.828125 9.726562 10.851562 C 9.257812 10.890625 9.164062 10.90625 9.113281 10.945312 C 9.082031 10.96875 9 10.984375 8.929688 10.980469 C 8.855469 10.976562 8.800781 10.992188 8.800781 11.019531 C 8.800781 11.046875 8.746094 11.0625 8.671875 11.054688 C 8.597656 11.050781 8.53125 11.0625 8.519531 11.082031 C 8.507812 11.101562 8.4375 11.121094 8.367188 11.128906 C 8.296875 11.132812 8.238281 11.152344 8.238281 11.167969 C 8.238281 11.1875 8.1875 11.199219 8.121094 11.199219 C 8.054688 11.199219 8 11.21875 8 11.238281 C 8 11.261719 7.964844 11.28125 7.921875 11.28125 C 7.878906 11.28125 7.75 11.335938 7.640625 11.402344 C 7.527344 11.46875 7.449219 11.5 7.464844 11.46875 C 7.484375 11.429688 7.480469 11.429688 7.4375 11.46875 C 7.40625 11.496094 7.347656 11.519531 7.300781 11.519531 C 7.234375 11.519531 7.230469 11.527344 7.28125 11.558594 C 7.328125 11.589844 7.320312 11.597656 7.246094 11.597656 C 7.195312 11.601562 7.128906 11.625 7.097656 11.660156 C 7.0625 11.691406 7.011719 11.707031 6.980469 11.695312 C 6.945312 11.679688 6.921875 11.691406 6.921875 11.714844 C 6.921875 11.738281 6.898438 11.761719 6.875 11.761719 C 6.851562 11.761719 6.777344 11.804688 6.710938 11.863281 C 6.640625 11.917969 6.519531 11.992188 6.433594 12.027344 C 6.347656 12.0625 6.28125 12.113281 6.28125 12.148438 C 6.28125 12.179688 6.261719 12.195312 6.238281 12.179688 C 6.21875 12.167969 6.199219 12.175781 6.199219 12.199219 C 6.199219 12.222656 6.183594 12.234375 6.164062 12.222656 C 6.140625 12.207031 6.070312 12.25 6.003906 12.316406 C 5.9375 12.378906 5.875 12.421875 5.863281 12.410156 C 5.851562 12.398438 5.839844 12.417969 5.839844 12.453125 C 5.839844 12.488281 5.816406 12.515625 5.789062 12.511719 C 5.761719 12.503906 5.742188 12.53125 5.746094 12.566406 C 5.75 12.609375 5.730469 12.625 5.695312 12.613281 C 5.664062 12.601562 5.628906 12.621094 5.617188 12.65625 C 5.601562 12.691406 5.578125 12.710938 5.5625 12.703125 C 5.507812 12.667969 5.359375 12.804688 5.359375 12.886719 C 5.359375 12.949219 5.339844 12.964844 5.28125 12.949219 C 5.234375 12.9375 5.210938 12.945312 5.222656 12.964844 C 5.234375 12.984375 5.214844 13 5.175781 13 C 5.125 13 5.121094 13.011719 5.15625 13.058594 C 5.195312 13.105469 5.1875 13.109375 5.117188 13.089844 C 5.046875 13.070312 5.03125 13.082031 5.050781 13.132812 C 5.070312 13.175781 5.058594 13.1875 5.015625 13.171875 C 4.96875 13.15625 4.960938 13.175781 4.976562 13.257812 C 4.988281 13.316406 4.980469 13.351562 4.957031 13.339844 C 4.9375 13.324219 4.929688 13.292969 4.945312 13.265625 C 4.964844 13.242188 4.945312 13.242188 4.90625 13.273438 C 4.871094 13.304688 4.839844 13.359375 4.839844 13.398438 C 4.839844 13.433594 4.820312 13.484375 4.792969 13.511719 C 4.765625 13.539062 4.757812 13.558594 4.773438 13.558594 C 4.789062 13.558594 4.78125 13.585938 4.75 13.617188 C 4.722656 13.648438 4.6875 13.664062 4.671875 13.652344 C 4.582031 13.601562 4.570312 13.695312 4.65625 13.761719 C 4.746094 13.835938 4.828125 13.839844 5.820312 13.839844 C 6.792969 13.839844 6.894531 13.847656 6.945312 13.910156 C 6.992188 13.972656 6.996094 13.976562 7 13.914062 C 7 13.875 6.980469 13.832031 6.960938 13.820312 C 6.898438 13.78125 6.953125 13.71875 7.023438 13.746094 C 7.0625 13.761719 7.09375 13.742188 7.105469 13.683594 C 7.140625 13.558594 7.207031 13.582031 7.179688 13.710938 C 7.167969 13.769531 7.171875 13.796875 7.183594 13.769531 C 7.195312 13.742188 7.234375 13.71875 7.265625 13.71875 C 7.308594 13.71875 7.3125 13.703125 7.28125 13.644531 C 7.214844 13.519531 7.226562 13.472656 7.316406 13.519531 C 7.421875 13.574219 7.453125 13.570312 7.414062 13.511719 C 7.394531 13.476562 7.410156 13.480469 7.453125 13.515625 C 7.515625 13.566406 7.535156 13.5625 7.613281 13.476562 C 7.691406 13.394531 7.691406 13.390625 7.617188 13.453125 C 7.570312 13.488281 7.515625 13.519531 7.496094 13.519531 C 7.476562 13.519531 7.503906 13.480469 7.554688 13.4375 C 7.605469 13.394531 7.667969 13.371094 7.6875 13.386719 C 7.710938 13.398438 7.746094 13.386719 7.765625 13.355469 C 7.792969 13.308594 7.800781 13.308594 7.800781 13.359375 C 7.800781 13.394531 7.824219 13.375 7.851562 13.320312 C 7.890625 13.246094 7.929688 13.222656 8.007812 13.230469 C 8.070312 13.238281 8.117188 13.222656 8.132812 13.183594 C 8.148438 13.148438 8.1875 13.132812 8.238281 13.148438 C 8.28125 13.160156 8.320312 13.152344 8.320312 13.132812 C 8.320312 13.113281 8.359375 13.074219 8.402344 13.046875 C 8.449219 13.019531 8.476562 13.011719 8.460938 13.035156 C 8.445312 13.0625 8.453125 13.078125 8.476562 13.078125 C 8.5 13.078125 8.519531 13.0625 8.519531 13.039062 C 8.519531 13.019531 8.5625 13 8.617188 13 C 8.671875 13 8.726562 12.980469 8.738281 12.960938 C 8.753906 12.9375 8.800781 12.921875 8.84375 12.921875 C 8.890625 12.921875 8.914062 12.902344 8.898438 12.878906 C 8.886719 12.855469 8.945312 12.839844 9.058594 12.839844 C 9.171875 12.839844 9.234375 12.824219 9.21875 12.800781 C 9.207031 12.777344 9.238281 12.757812 9.289062 12.753906 C 9.386719 12.75 9.394531 12.75 9.601562 12.707031 C 9.675781 12.691406 9.777344 12.675781 9.820312 12.667969 C 9.863281 12.664062 9.917969 12.648438 9.941406 12.636719 C 9.988281 12.605469 10.628906 12.578125 11.265625 12.578125 L 11.753906 12.578125 L 11.753906 11.84375 C 11.753906 11.375 11.769531 11.09375 11.796875 11.066406 C 11.820312 11.042969 11.839844 10.957031 11.839844 10.875 C 11.839844 10.792969 11.859375 10.714844 11.878906 10.699219 C 11.902344 10.6875 11.921875 10.632812 11.921875 10.585938 C 11.921875 10.535156 11.933594 10.480469 11.949219 10.464844 C 11.964844 10.449219 11.980469 10.414062 11.984375 10.386719 C 11.984375 10.359375 11.992188 10.304688 11.996094 10.261719 C 12 10.191406 12.007812 10.191406 12.039062 10.238281 C 12.070312 10.285156 12.078125 10.269531 12.078125 10.167969 C 12.078125 10.09375 12.09375 10.042969 12.113281 10.054688 C 12.140625 10.074219 12.25 9.835938 12.238281 9.777344 C 12.238281 9.765625 12.273438 9.71875 12.324219 9.675781 C 12.371094 9.632812 12.402344 9.589844 12.390625 9.578125 C 12.363281 9.550781 12.433594 9.457031 12.621094 9.265625 C 12.6875 9.195312 12.757812 9.105469 12.769531 9.070312 C 12.785156 9.03125 12.820312 9 12.847656 9 C 12.875 9 13.023438 8.882812 13.175781 8.738281 C 13.328125 8.597656 13.476562 8.480469 13.507812 8.480469 C 13.535156 8.480469 13.558594 8.460938 13.558594 8.441406 C 13.558594 8.417969 13.578125 8.398438 13.601562 8.398438 C 13.625 8.398438 13.683594 8.363281 13.730469 8.320312 C 13.777344 8.277344 13.847656 8.238281 13.886719 8.238281 C 13.925781 8.238281 13.960938 8.226562 13.960938 8.207031 C 13.960938 8.191406 14.023438 8.148438 14.101562 8.121094 C 14.175781 8.089844 14.238281 8.050781 14.238281 8.03125 C 14.238281 8.015625 14.277344 8 14.320312 8 C 14.363281 8 14.460938 7.964844 14.539062 7.921875 C 14.617188 7.875 14.71875 7.839844 14.765625 7.839844 C 14.808594 7.839844 14.878906 7.824219 14.917969 7.800781 C 14.957031 7.78125 15.054688 7.757812 15.132812 7.753906 C 15.214844 7.75 15.28125 7.730469 15.28125 7.710938 C 15.28125 7.695312 15.378906 7.679688 15.496094 7.679688 C 15.617188 7.679688 15.71875 7.664062 15.726562 7.640625 C 15.734375 7.617188 16.160156 7.601562 16.828125 7.597656 C 17.429688 7.597656 17.921875 7.578125 17.921875 7.5625 C 17.921875 7.542969 18.03125 7.519531 18.171875 7.507812 C 18.558594 7.476562 18.773438 7.445312 18.796875 7.410156 C 18.808594 7.390625 18.859375 7.378906 18.910156 7.382812 C 18.960938 7.386719 19.011719 7.375 19.023438 7.355469 C 19.035156 7.335938 19.089844 7.320312 19.140625 7.320312 C 19.195312 7.320312 19.238281 7.300781 19.238281 7.28125 C 19.238281 7.257812 19.273438 7.238281 19.3125 7.238281 C 19.351562 7.238281 19.402344 7.222656 19.425781 7.195312 C 19.449219 7.171875 19.496094 7.148438 19.523438 7.144531 C 19.621094 7.125 19.734375 7.070312 19.847656 6.992188 C 19.90625 6.953125 19.980469 6.921875 20.019531 6.921875 C 20.054688 6.921875 20.117188 6.886719 20.164062 6.847656 C 20.207031 6.804688 20.289062 6.746094 20.351562 6.714844 C 20.410156 6.6875 20.488281 6.628906 20.523438 6.589844 C 20.558594 6.550781 20.609375 6.519531 20.632812 6.519531 C 20.660156 6.519531 20.679688 6.503906 20.679688 6.480469 C 20.679688 6.457031 20.695312 6.441406 20.71875 6.441406 C 20.761719 6.441406 21.519531 5.695312 21.519531 5.652344 C 21.519531 5.632812 21.574219 5.570312 21.640625 5.507812 C 21.707031 5.445312 21.761719 5.363281 21.761719 5.328125 C 21.761719 5.289062 21.796875 5.238281 21.839844 5.210938 C 21.882812 5.183594 21.921875 5.132812 21.921875 5.101562 C 21.921875 5.066406 21.9375 5.039062 21.960938 5.039062 C 21.980469 5.039062 22 5.015625 22 4.988281 C 22 4.914062 22.09375 4.71875 22.128906 4.71875 C 22.148438 4.71875 22.160156 4.683594 22.160156 4.640625 C 22.160156 4.597656 22.179688 4.558594 22.203125 4.558594 C 22.230469 4.558594 22.238281 4.535156 22.226562 4.5 C 22.214844 4.46875 22.21875 4.433594 22.238281 4.421875 C 22.285156 4.390625 22.453125 3.855469 22.464844 3.699219 C 22.484375 3.414062 22.5 3.398438 22.824219 3.398438 C 22.984375 3.398438 23.125 3.417969 23.140625 3.441406 C 23.152344 3.460938 23.28125 3.480469 23.421875 3.480469 C 23.566406 3.480469 23.679688 3.496094 23.679688 3.519531 C 23.679688 3.542969 23.761719 3.558594 23.859375 3.558594 C 23.960938 3.558594 24.039062 3.578125 24.039062 3.601562 C 24.039062 3.621094 24.101562 3.640625 24.175781 3.640625 C 24.253906 3.640625 24.328125 3.65625 24.339844 3.679688 C 24.355469 3.703125 24.40625 3.71875 24.460938 3.71875 C 24.511719 3.71875 24.566406 3.738281 24.578125 3.761719 C 24.59375 3.78125 24.648438 3.800781 24.703125 3.800781 C 24.757812 3.800781 24.800781 3.816406 24.800781 3.832031 C 24.800781 3.851562 24.890625 3.890625 25 3.921875 C 25.109375 3.949219 25.199219 3.988281 25.199219 4.007812 C 25.199219 4.023438 25.234375 4.039062 25.277344 4.039062 C 25.320312 4.039062 25.367188 4.058594 25.378906 4.082031 C 25.394531 4.101562 25.421875 4.113281 25.441406 4.101562 C 25.460938 4.089844 25.484375 4.097656 25.5 4.121094 C 25.511719 4.140625 25.554688 4.160156 25.59375 4.160156 C 25.632812 4.160156 25.6875 4.195312 25.71875 4.238281 C 25.75 4.285156 25.808594 4.320312 25.847656 4.320312 C 25.886719 4.320312 25.921875 4.339844 25.921875 4.359375 C 25.921875 4.382812 25.945312 4.398438 25.980469 4.398438 C 26.011719 4.398438 26.039062 4.417969 26.039062 4.441406 C 26.039062 4.460938 26.066406 4.480469 26.101562 4.480469 C 26.136719 4.480469 26.152344 4.496094 26.140625 4.519531 C 26.125 4.542969 26.148438 4.558594 26.1875 4.558594 C 26.230469 4.558594 26.289062 4.597656 26.320312 4.640625 C 26.351562 4.683594 26.402344 4.71875 26.429688 4.71875 C 26.460938 4.71875 26.472656 4.738281 26.460938 4.761719 C 26.445312 4.78125 26.464844 4.800781 26.5 4.800781 C 26.539062 4.800781 26.617188 4.855469 26.679688 4.921875 C 26.742188 4.984375 26.8125 5.039062 26.832031 5.039062 C 26.855469 5.039062 26.886719 5.074219 26.898438 5.117188 C 26.914062 5.160156 26.960938 5.207031 27.003906 5.21875 C 27.042969 5.234375 27.082031 5.257812 27.082031 5.273438 C 27.082031 5.324219 27.429688 5.675781 27.453125 5.652344 C 27.46875 5.636719 27.480469 5.65625 27.480469 5.695312 C 27.480469 5.734375 27.496094 5.753906 27.515625 5.742188 C 27.539062 5.730469 27.566406 5.753906 27.578125 5.800781 C 27.59375 5.84375 27.625 5.878906 27.644531 5.878906 C 27.667969 5.878906 27.675781 5.894531 27.664062 5.914062 C 27.652344 5.929688 27.683594 5.988281 27.730469 6.042969 C 27.839844 6.167969 27.964844 6.34375 28.039062 6.488281 C 28.066406 6.550781 28.109375 6.601562 28.125 6.601562 C 28.144531 6.601562 28.160156 6.636719 28.160156 6.679688 C 28.160156 6.722656 28.179688 6.761719 28.199219 6.761719 C 28.222656 6.761719 28.238281 6.785156 28.238281 6.820312 C 28.238281 6.851562 28.253906 6.878906 28.273438 6.878906 C 28.289062 6.878906 28.328125 6.941406 28.355469 7.019531 C 28.382812 7.097656 28.421875 7.160156 28.445312 7.160156 C 28.46875 7.160156 28.476562 7.175781 28.464844 7.191406 C 28.453125 7.210938 28.488281 7.3125 28.542969 7.417969 C 28.597656 7.527344 28.640625 7.648438 28.640625 7.6875 C 28.640625 7.726562 28.65625 7.761719 28.679688 7.761719 C 28.703125 7.761719 28.71875 7.8125 28.71875 7.878906 C 28.71875 7.945312 28.734375 8 28.75 8 C 28.785156 8 28.878906 8.375 28.878906 8.511719 C 28.878906 8.558594 28.898438 8.601562 28.921875 8.601562 C 28.941406 8.601562 28.960938 8.695312 28.960938 8.8125 C 28.960938 8.929688 28.976562 9.042969 29 9.0625 C 29.023438 9.085938 29.039062 9.765625 29.039062 10.847656 L 29.042969 12.59375 L 29.152344 12.574219 C 29.324219 12.539062 30.640625 12.605469 30.617188 12.644531 C 30.605469 12.664062 30.648438 12.679688 30.710938 12.679688 C 30.773438 12.679688 30.847656 12.703125 30.878906 12.730469 C 30.921875 12.769531 30.925781 12.769531 30.902344 12.730469 C 30.859375 12.652344 30.953125 12.671875 31.039062 12.761719 C 31.085938 12.804688 31.15625 12.839844 31.199219 12.839844 C 31.242188 12.839844 31.28125 12.859375 31.28125 12.878906 C 31.28125 12.902344 31.324219 12.921875 31.382812 12.921875 C 31.441406 12.921875 31.472656 12.9375 31.460938 12.960938 C 31.425781 13.015625 31.492188 13.011719 31.550781 12.953125 C 31.589844 12.914062 31.601562 12.921875 31.601562 12.984375 C 31.601562 13.035156 31.628906 13.066406 31.679688 13.070312 C 31.734375 13.074219 31.753906 13.058594 31.734375 13.027344 C 31.71875 13 31.746094 13.015625 31.789062 13.058594 C 31.835938 13.105469 31.867188 13.15625 31.867188 13.179688 C 31.863281 13.203125 31.910156 13.226562 31.96875 13.234375 C 32.03125 13.238281 32.085938 13.277344 32.101562 13.324219 C 32.113281 13.363281 32.136719 13.398438 32.152344 13.398438 C 32.167969 13.398438 32.242188 13.453125 32.316406 13.515625 C 32.402344 13.589844 32.476562 13.621094 32.53125 13.609375 C 32.601562 13.589844 32.609375 13.601562 32.589844 13.691406 C 32.578125 13.769531 32.597656 13.820312 32.664062 13.886719 C 32.726562 13.941406 32.761719 13.953125 32.761719 13.921875 C 32.761719 13.890625 32.726562 13.84375 32.691406 13.8125 C 32.652344 13.78125 32.640625 13.765625 32.671875 13.78125 C 32.699219 13.792969 32.71875 13.78125 32.722656 13.753906 C 32.722656 13.714844 32.738281 13.722656 32.773438 13.765625 C 32.820312 13.828125 32.9375 13.835938 33.863281 13.839844 C 34.644531 13.839844 34.886719 13.832031 34.851562 13.796875 C 34.828125 13.769531 34.816406 13.722656 34.828125 13.6875 C 34.84375 13.648438 34.835938 13.636719 34.808594 13.652344 C 34.78125 13.671875 34.773438 13.640625 34.785156 13.558594 C 34.796875 13.492188 34.785156 13.441406 34.761719 13.441406 C 34.738281 13.441406 34.71875 13.410156 34.71875 13.378906 C 34.71875 13.34375 34.703125 13.328125 34.679688 13.339844 C 34.65625 13.355469 34.640625 13.320312 34.640625 13.261719 C 34.640625 13.199219 34.621094 13.164062 34.601562 13.179688 C 34.578125 13.195312 34.558594 13.175781 34.558594 13.140625 C 34.558594 13.109375 34.53125 13.078125 34.496094 13.078125 C 34.464844 13.078125 34.445312 13.0625 34.460938 13.039062 C 34.472656 13.019531 34.457031 12.988281 34.421875 12.976562 C 34.386719 12.960938 34.371094 12.9375 34.382812 12.917969 C 34.390625 12.902344 34.382812 12.875 34.359375 12.859375 C 34.339844 12.847656 34.320312 12.855469 34.320312 12.878906 C 34.320312 12.90625 34.300781 12.914062 34.277344 12.898438 C 34.253906 12.882812 34.25 12.851562 34.269531 12.828125 C 34.289062 12.796875 34.257812 12.734375 34.183594 12.660156 C 34.121094 12.59375 34.082031 12.566406 34.101562 12.601562 C 34.128906 12.652344 34.125 12.652344 34.066406 12.605469 C 34.03125 12.574219 34.007812 12.539062 34.015625 12.527344 C 34.039062 12.488281 33.933594 12.398438 33.90625 12.429688 C 33.890625 12.441406 33.878906 12.433594 33.878906 12.414062 C 33.878906 12.347656 33.558594 12.035156 33.515625 12.0625 C 33.496094 12.074219 33.480469 12.046875 33.480469 12.003906 C 33.480469 11.957031 33.460938 11.921875 33.4375 11.921875 C 33.414062 11.921875 33.40625 11.941406 33.421875 11.96875 C 33.453125 12.019531 33.40625 11.980469 33.1875 11.78125 C 33.125 11.726562 33.058594 11.679688 33.039062 11.679688 C 33.015625 11.679688 33 11.660156 33 11.640625 C 33 11.617188 32.972656 11.601562 32.941406 11.601562 C 32.90625 11.601562 32.878906 11.582031 32.878906 11.558594 C 32.878906 11.539062 32.867188 11.523438 32.851562 11.527344 C 32.832031 11.535156 32.738281 11.484375 32.640625 11.421875 C 32.539062 11.355469 32.4375 11.308594 32.410156 11.3125 C 32.382812 11.320312 32.359375 11.300781 32.359375 11.273438 C 32.359375 11.25 32.347656 11.238281 32.335938 11.25 C 32.324219 11.265625 32.273438 11.242188 32.226562 11.199219 C 32.15625 11.128906 32.050781 11.097656 31.949219 11.117188 C 31.933594 11.117188 31.921875 11.101562 31.921875 11.074219 C 31.921875 11.050781 31.882812 11.039062 31.835938 11.050781 C 31.789062 11.066406 31.746094 11.050781 31.734375 11.023438 C 31.722656 10.992188 31.667969 10.96875 31.613281 10.96875 C 31.558594 10.96875 31.496094 10.945312 31.480469 10.917969 C 31.460938 10.890625 31.410156 10.878906 31.363281 10.890625 C 31.316406 10.902344 31.28125 10.894531 31.28125 10.875 C 31.28125 10.855469 31.207031 10.839844 31.121094 10.839844 L 30.960938 10.839844 L 30.953125 10.390625 C 30.949219 9.835938 30.945312 9.753906 30.910156 9.679688 C 30.894531 9.648438 30.875 9.421875 30.863281 9.179688 C 30.835938 8.628906 30.800781 8.320312 30.765625 8.320312 C 30.75 8.320312 30.742188 8.261719 30.746094 8.191406 C 30.746094 8.117188 30.730469 8.023438 30.707031 7.980469 C 30.683594 7.9375 30.664062 7.863281 30.660156 7.820312 C 30.652344 7.738281 30.644531 7.71875 30.5625 7.480469 C 30.535156 7.402344 30.507812 7.320312 30.503906 7.300781 C 30.480469 7.21875 30.433594 7.097656 30.398438 7.03125 C 30.375 6.992188 30.359375 6.925781 30.359375 6.878906 C 30.359375 6.835938 30.34375 6.800781 30.320312 6.800781 C 30.296875 6.800781 30.28125 6.753906 30.28125 6.699219 C 30.28125 6.644531 30.261719 6.601562 30.238281 6.601562 C 30.21875 6.601562 30.199219 6.5625 30.199219 6.519531 C 30.199219 6.476562 30.183594 6.441406 30.160156 6.441406 C 30.136719 6.441406 30.121094 6.402344 30.121094 6.359375 C 30.121094 6.3125 30.101562 6.285156 30.078125 6.300781 C 30.058594 6.3125 30.039062 6.28125 30.039062 6.222656 C 30.039062 6.167969 30.023438 6.121094 30 6.121094 C 29.976562 6.121094 29.960938 6.101562 29.960938 6.078125 C 29.960938 6.054688 29.90625 5.957031 29.839844 5.859375 C 29.773438 5.765625 29.71875 5.675781 29.71875 5.660156 C 29.71875 5.644531 29.691406 5.605469 29.660156 5.574219 C 29.625 5.539062 29.609375 5.496094 29.625 5.46875 C 29.640625 5.445312 29.632812 5.4375 29.605469 5.457031 C 29.578125 5.472656 29.558594 5.460938 29.558594 5.421875 C 29.558594 5.386719 29.542969 5.359375 29.519531 5.359375 C 29.496094 5.359375 29.480469 5.335938 29.480469 5.304688 C 29.480469 5.277344 29.425781 5.195312 29.359375 5.125 C 29.292969 5.058594 29.238281 4.980469 29.238281 4.957031 C 29.238281 4.933594 29.21875 4.890625 29.191406 4.863281 C 29.164062 4.832031 29.058594 4.714844 28.960938 4.59375 C 28.71875 4.308594 27.886719 3.480469 27.835938 3.480469 C 27.816406 3.480469 27.734375 3.417969 27.65625 3.339844 C 27.582031 3.265625 27.464844 3.171875 27.398438 3.140625 C 27.332031 3.105469 27.28125 3.058594 27.28125 3.039062 C 27.28125 3.015625 27.261719 3 27.238281 3 C 27.214844 3 27.15625 2.964844 27.109375 2.921875 C 27.0625 2.875 27 2.839844 26.972656 2.839844 C 26.945312 2.839844 26.921875 2.820312 26.921875 2.792969 C 26.921875 2.769531 26.90625 2.757812 26.894531 2.773438 C 26.878906 2.789062 26.847656 2.785156 26.824219 2.765625 C 26.71875 2.675781 26.40625 2.527344 26.386719 2.546875 C 26.371094 2.5625 26.359375 2.550781 26.359375 2.527344 C 26.359375 2.5 26.324219 2.480469 26.28125 2.480469 C 26.234375 2.480469 26.199219 2.460938 26.199219 2.441406 C 26.199219 2.417969 26.175781 2.398438 26.148438 2.398438 C 26.074219 2.398438 25.878906 2.304688 25.878906 2.269531 C 25.878906 2.253906 25.835938 2.238281 25.78125 2.238281 C 25.726562 2.238281 25.679688 2.222656 25.679688 2.199219 C 25.679688 2.179688 25.644531 2.160156 25.601562 2.160156 C 25.558594 2.160156 25.511719 2.140625 25.5 2.121094 C 25.488281 2.097656 25.429688 2.078125 25.378906 2.078125 C 25.324219 2.078125 25.28125 2.0625 25.28125 2.039062 C 25.28125 2.019531 25.226562 2 25.160156 2 C 25.09375 2 25.039062 1.980469 25.039062 1.960938 C 25.039062 1.9375 24.96875 1.921875 24.878906 1.921875 C 24.792969 1.921875 24.71875 1.902344 24.71875 1.878906 C 24.71875 1.859375 24.648438 1.839844 24.558594 1.839844 C 24.472656 1.839844 24.398438 1.820312 24.398438 1.800781 C 24.398438 1.777344 24.320312 1.761719 24.222656 1.761719 C 24.125 1.761719 24.035156 1.742188 24.019531 1.71875 C 24.007812 1.699219 23.878906 1.679688 23.738281 1.679688 C 23.597656 1.679688 23.480469 1.664062 23.480469 1.640625 C 23.480469 1.617188 22.964844 1.601562 22.160156 1.601562 L 20.839844 1.597656 L 20.839844 2.078125 M 29.109375 12.390625 C 29.101562 12.472656 29.09375 12.414062 29.09375 12.261719 C 29.09375 12.105469 29.101562 12.039062 29.109375 12.109375 C 29.117188 12.179688 29.117188 12.304688 29.109375 12.390625 M 34.855469 13.652344 C 34.855469 13.703125 34.882812 13.746094 34.910156 13.746094 C 34.972656 13.746094 34.972656 13.71875 34.902344 13.628906 C 34.851562 13.5625 34.847656 13.5625 34.855469 13.652344 M 32.859375 14.023438 C 32.867188 14.066406 32.875 14.117188 32.875 14.136719 C 32.878906 14.160156 32.902344 14.15625 32.929688 14.128906 C 32.964844 14.089844 32.960938 14.066406 32.910156 14.015625 C 32.851562 13.953125 32.847656 13.953125 32.859375 14.023438 M 34.945312 13.988281 C 34.933594 14 34.921875 14.03125 34.921875 14.054688 C 34.921875 14.082031 34.9375 14.078125 34.964844 14.050781 C 34.988281 14.027344 35.039062 14.015625 35.074219 14.027344 C 35.132812 14.042969 35.132812 14.042969 35.078125 14.003906 C 35.007812 13.953125 34.984375 13.949219 34.945312 13.988281 M 6.542969 14.203125 C 6.464844 14.273438 6.402344 14.347656 6.402344 14.375 C 6.402344 14.398438 6.4375 14.378906 6.476562 14.328125 C 6.519531 14.28125 6.574219 14.238281 6.597656 14.238281 C 6.621094 14.238281 6.652344 14.214844 6.664062 14.179688 C 6.679688 14.148438 6.703125 14.128906 6.722656 14.144531 C 6.742188 14.15625 6.761719 14.144531 6.761719 14.121094 C 6.761719 14.046875 6.6875 14.074219 6.542969 14.203125 M 4.222656 14.183594 C 4.199219 14.246094 4.234375 14.253906 4.3125 14.203125 C 4.355469 14.175781 4.355469 14.167969 4.308594 14.148438 C 4.273438 14.136719 4.238281 14.152344 4.222656 14.183594 M 4.023438 14.511719 C 4.011719 14.546875 3.988281 14.601562 3.976562 14.628906 C 3.964844 14.65625 3.96875 14.679688 3.988281 14.679688 C 4.023438 14.679688 4.121094 14.511719 4.121094 14.457031 C 4.121094 14.410156 4.046875 14.449219 4.023438 14.511719 M 6.121094 14.640625 C 6.089844 14.695312 6.089844 14.71875 6.117188 14.71875 C 6.140625 14.71875 6.160156 14.695312 6.160156 14.660156 C 6.160156 14.625 6.183594 14.613281 6.21875 14.625 C 6.253906 14.636719 6.28125 14.628906 6.28125 14.605469 C 6.28125 14.53125 6.164062 14.554688 6.121094 14.640625 M 35.359375 14.59375 C 35.359375 14.621094 35.34375 14.632812 35.320312 14.621094 C 35.253906 14.578125 35.273438 14.617188 35.359375 14.691406 C 35.433594 14.753906 35.4375 14.753906 35.425781 14.679688 C 35.414062 14.589844 35.359375 14.523438 35.359375 14.59375 M 5.890625 14.96875 C 5.796875 15.09375 5.789062 15.128906 5.867188 15.078125 C 5.910156 15.050781 5.945312 15.003906 5.945312 14.972656 C 5.945312 14.90625 5.941406 14.90625 5.890625 14.96875 M 35.890625 17.210938 C 35.894531 17.269531 35.910156 17.320312 35.929688 17.320312 C 35.972656 17.320312 35.96875 17.234375 35.917969 17.160156 C 35.890625 17.113281 35.882812 17.125 35.890625 17.210938 M 5.050781 17.445312 C 5.046875 17.515625 5.054688 17.558594 5.070312 17.542969 C 5.109375 17.503906 5.128906 17.320312 5.089844 17.320312 C 5.074219 17.320312 5.054688 17.375 5.050781 17.445312 M 4.71875 21.457031 C 4.71875 21.5 4.839844 21.613281 4.863281 21.589844 C 4.871094 21.582031 4.84375 21.539062 4.800781 21.5 C 4.757812 21.460938 4.71875 21.441406 4.71875 21.457031 "/>
<path fill="#955AE0" d="M 29.074219 12.285156 C 29.066406 12.441406 29.070312 12.574219 29.085938 12.582031 C 29.097656 12.589844 29.113281 12.464844 29.117188 12.296875 C 29.125 11.917969 29.089844 11.90625 29.074219 12.285156 M 10.988281 12.589844 C 11.105469 12.597656 11.292969 12.597656 11.410156 12.589844 C 11.527344 12.582031 11.429688 12.574219 11.199219 12.574219 C 10.96875 12.574219 10.875 12.582031 10.988281 12.589844 M 29.351562 12.589844 C 29.464844 12.597656 29.65625 12.597656 29.769531 12.589844 C 29.886719 12.582031 29.789062 12.574219 29.558594 12.574219 C 29.328125 12.574219 29.234375 12.582031 29.351562 12.589844 M 9.945312 12.632812 C 9.933594 12.648438 9.972656 12.667969 10.03125 12.671875 C 10.117188 12.675781 10.125 12.671875 10.078125 12.640625 C 10.007812 12.59375 9.972656 12.589844 9.945312 12.632812 M 30.863281 12.710938 C 30.855469 12.730469 30.894531 12.746094 30.953125 12.75 C 31.035156 12.757812 31.046875 12.75 31 12.71875 C 30.925781 12.671875 30.890625 12.671875 30.863281 12.710938 M 5.292969 12.867188 C 5.308594 12.878906 5.289062 12.914062 5.25 12.945312 C 5.1875 12.992188 5.1875 12.992188 5.269531 12.972656 C 5.363281 12.949219 5.398438 12.839844 5.3125 12.839844 C 5.289062 12.839844 5.277344 12.851562 5.292969 12.867188 M 31.75 13.078125 C 31.761719 13.125 31.792969 13.160156 31.824219 13.160156 C 31.867188 13.160156 31.863281 13.140625 31.8125 13.078125 C 31.773438 13.035156 31.738281 13 31.734375 13 C 31.730469 13 31.738281 13.035156 31.75 13.078125 M 7.886719 13.253906 C 7.855469 13.289062 7.863281 13.304688 7.921875 13.308594 C 8 13.316406 8.027344 13.261719 7.964844 13.222656 C 7.945312 13.210938 7.910156 13.222656 7.886719 13.253906 M 32 13.261719 C 32 13.277344 32.027344 13.3125 32.058594 13.34375 C 32.125 13.410156 32.132812 13.402344 32.09375 13.304688 C 32.074219 13.242188 32 13.214844 32 13.261719 M 4.800781 13.394531 C 4.800781 13.421875 4.765625 13.480469 4.722656 13.527344 C 4.636719 13.621094 4.652344 13.710938 4.738281 13.628906 C 4.769531 13.601562 4.792969 13.570312 4.789062 13.558594 C 4.789062 13.550781 4.800781 13.507812 4.820312 13.46875 C 4.835938 13.429688 4.839844 13.386719 4.824219 13.371094 C 4.8125 13.359375 4.800781 13.367188 4.800781 13.394531 M 7.550781 13.4375 C 7.496094 13.480469 7.4375 13.503906 7.417969 13.488281 C 7.402344 13.472656 7.398438 13.484375 7.414062 13.511719 C 7.449219 13.570312 7.421875 13.574219 7.316406 13.519531 C 7.238281 13.476562 7.222656 13.503906 7.265625 13.617188 C 7.285156 13.667969 7.316406 13.660156 7.457031 13.5625 C 7.554688 13.496094 7.636719 13.453125 7.648438 13.460938 C 7.660156 13.472656 7.667969 13.453125 7.667969 13.421875 C 7.667969 13.34375 7.671875 13.34375 7.550781 13.4375 M 32.4375 13.589844 C 32.40625 13.628906 32.398438 13.648438 32.417969 13.632812 C 32.433594 13.617188 32.484375 13.644531 32.523438 13.691406 L 32.597656 13.78125 L 32.597656 13.691406 C 32.597656 13.628906 32.574219 13.601562 32.53125 13.597656 C 32.46875 13.597656 32.46875 13.59375 32.519531 13.558594 C 32.554688 13.539062 32.558594 13.519531 32.535156 13.519531 C 32.511719 13.519531 32.464844 13.550781 32.4375 13.589844 M 34.773438 13.617188 C 34.773438 13.648438 34.792969 13.664062 34.8125 13.652344 C 34.835938 13.636719 34.84375 13.652344 34.828125 13.6875 C 34.816406 13.722656 34.828125 13.769531 34.851562 13.796875 C 34.886719 13.832031 34.644531 13.839844 33.863281 13.839844 C 32.9375 13.835938 32.820312 13.828125 32.773438 13.765625 C 32.738281 13.722656 32.722656 13.714844 32.722656 13.753906 C 32.71875 13.78125 32.699219 13.792969 32.671875 13.78125 C 32.640625 13.765625 32.648438 13.777344 32.683594 13.808594 C 32.722656 13.835938 32.757812 13.894531 32.765625 13.9375 C 32.773438 13.980469 32.804688 14.023438 32.835938 14.03125 C 32.875 14.042969 32.882812 14.035156 32.859375 13.996094 C 32.828125 13.949219 32.835938 13.949219 32.890625 13.996094 C 32.9375 14.03125 32.953125 14.085938 32.9375 14.15625 C 32.929688 14.210938 32.929688 14.238281 32.941406 14.210938 C 32.957031 14.183594 32.984375 14.160156 33.003906 14.160156 C 33.027344 14.160156 33.039062 14.183594 33.039062 14.210938 C 33.023438 14.3125 33.089844 14.445312 33.144531 14.425781 C 33.171875 14.414062 33.210938 14.421875 33.226562 14.449219 C 33.242188 14.476562 33.234375 14.480469 33.207031 14.464844 C 33.179688 14.445312 33.160156 14.460938 33.160156 14.5 C 33.160156 14.542969 33.179688 14.558594 33.21875 14.546875 C 33.257812 14.53125 33.269531 14.542969 33.253906 14.582031 C 33.242188 14.613281 33.253906 14.640625 33.277344 14.640625 C 33.304688 14.640625 33.3125 14.65625 33.300781 14.679688 C 33.285156 14.703125 33.304688 14.71875 33.335938 14.71875 C 33.375 14.71875 33.402344 14.753906 33.402344 14.808594 C 33.402344 14.859375 33.4375 14.945312 33.480469 15 C 33.523438 15.054688 33.558594 15.128906 33.558594 15.167969 C 33.558594 15.203125 33.578125 15.246094 33.601562 15.261719 C 33.621094 15.273438 33.640625 15.332031 33.640625 15.390625 C 33.640625 15.476562 33.648438 15.488281 33.679688 15.441406 C 33.710938 15.394531 33.71875 15.402344 33.722656 15.488281 C 33.734375 15.648438 33.738281 15.671875 33.769531 15.703125 C 33.785156 15.71875 33.800781 15.773438 33.800781 15.828125 C 33.800781 15.878906 33.816406 15.921875 33.835938 15.921875 C 33.855469 15.921875 33.882812 15.996094 33.898438 16.089844 C 33.910156 16.183594 33.9375 16.359375 33.957031 16.480469 C 33.972656 16.601562 33.992188 16.671875 34 16.640625 C 34.03125 16.507812 34.058594 17.214844 34.046875 17.769531 C 34.039062 18.132812 34.019531 18.351562 33.996094 18.339844 C 33.976562 18.324219 33.960938 18.410156 33.960938 18.539062 C 33.960938 18.679688 33.945312 18.753906 33.921875 18.738281 C 33.898438 18.726562 33.878906 18.765625 33.878906 18.839844 C 33.878906 18.90625 33.863281 18.992188 33.84375 19.03125 C 33.824219 19.070312 33.789062 19.144531 33.769531 19.199219 C 33.746094 19.253906 33.691406 19.386719 33.644531 19.488281 C 33.597656 19.59375 33.558594 19.699219 33.558594 19.722656 C 33.558594 19.746094 33.542969 19.753906 33.519531 19.738281 C 33.496094 19.726562 33.480469 19.753906 33.480469 19.796875 C 33.480469 19.84375 33.460938 19.878906 33.441406 19.878906 C 33.417969 19.878906 33.398438 19.910156 33.398438 19.945312 C 33.398438 19.980469 33.359375 20.042969 33.3125 20.085938 C 33.265625 20.125 33.238281 20.160156 33.253906 20.160156 C 33.285156 20.160156 33.257812 20.195312 33.070312 20.40625 C 33.007812 20.472656 32.960938 20.542969 32.960938 20.5625 C 32.960938 20.582031 32.933594 20.601562 32.898438 20.601562 C 32.867188 20.601562 32.84375 20.621094 32.851562 20.648438 C 32.855469 20.671875 32.820312 20.714844 32.769531 20.742188 C 32.722656 20.765625 32.691406 20.800781 32.707031 20.8125 C 32.722656 20.828125 32.710938 20.839844 32.679688 20.839844 C 32.652344 20.839844 32.578125 20.894531 32.511719 20.960938 C 32.449219 21.027344 32.382812 21.074219 32.367188 21.0625 C 32.347656 21.054688 32.308594 21.078125 32.277344 21.121094 C 32.246094 21.164062 32.191406 21.199219 32.152344 21.199219 C 32.113281 21.199219 32.078125 21.21875 32.078125 21.238281 C 32.078125 21.261719 32.042969 21.28125 32 21.28125 C 31.957031 21.28125 31.917969 21.292969 31.917969 21.308594 C 31.917969 21.347656 31.722656 21.441406 31.640625 21.441406 C 31.605469 21.441406 31.558594 21.457031 31.539062 21.476562 C 31.515625 21.5 31.414062 21.519531 31.308594 21.523438 C 31.207031 21.53125 31.121094 21.550781 31.121094 21.566406 C 31.121094 21.585938 26.070312 21.601562 19.898438 21.601562 C 13.730469 21.601562 8.679688 21.585938 8.679688 21.566406 C 8.679688 21.550781 8.585938 21.53125 8.46875 21.523438 C 8.355469 21.519531 8.242188 21.5 8.222656 21.476562 C 8.199219 21.457031 8.125 21.441406 8.050781 21.441406 C 7.980469 21.441406 7.921875 21.421875 7.921875 21.398438 C 7.921875 21.378906 7.867188 21.359375 7.800781 21.359375 C 7.734375 21.359375 7.679688 21.34375 7.679688 21.320312 C 7.679688 21.296875 7.65625 21.28125 7.628906 21.28125 C 7.597656 21.28125 7.5 21.242188 7.410156 21.199219 C 7.320312 21.15625 7.226562 21.121094 7.203125 21.121094 C 7.179688 21.121094 7.160156 21.105469 7.160156 21.085938 C 7.160156 21.066406 7.089844 21.019531 7 20.980469 C 6.910156 20.941406 6.839844 20.894531 6.839844 20.875 C 6.839844 20.855469 6.8125 20.839844 6.777344 20.839844 C 6.742188 20.839844 6.726562 20.820312 6.738281 20.800781 C 6.753906 20.777344 6.734375 20.761719 6.699219 20.761719 C 6.664062 20.761719 6.566406 20.6875 6.480469 20.601562 C 6.394531 20.511719 6.304688 20.441406 6.277344 20.441406 C 6.25 20.441406 6.238281 20.429688 6.25 20.414062 C 6.265625 20.402344 6.207031 20.320312 6.117188 20.238281 C 6.03125 20.15625 5.960938 20.0625 5.960938 20.03125 C 5.960938 20.003906 5.925781 19.957031 5.878906 19.929688 C 5.835938 19.902344 5.800781 19.851562 5.800781 19.816406 C 5.800781 19.78125 5.777344 19.730469 5.75 19.699219 C 5.632812 19.570312 5.597656 19.519531 5.621094 19.519531 C 5.632812 19.519531 5.609375 19.460938 5.574219 19.390625 C 5.535156 19.320312 5.507812 19.246094 5.511719 19.230469 C 5.515625 19.214844 5.503906 19.199219 5.480469 19.199219 C 5.457031 19.199219 5.441406 19.164062 5.441406 19.121094 C 5.441406 19.074219 5.425781 19.039062 5.40625 19.039062 C 5.390625 19.039062 5.347656 18.949219 5.320312 18.835938 C 5.289062 18.726562 5.25 18.625 5.230469 18.613281 C 5.214844 18.605469 5.199219 18.527344 5.199219 18.445312 C 5.199219 18.363281 5.183594 18.277344 5.160156 18.253906 C 5.136719 18.234375 5.117188 18.058594 5.113281 17.871094 C 5.109375 17.679688 5.09375 17.53125 5.074219 17.542969 C 5.054688 17.554688 5.039062 17.535156 5.039062 17.5 C 5.039062 17.464844 5.058594 17.445312 5.085938 17.460938 C 5.113281 17.480469 5.113281 17.464844 5.082031 17.40625 C 5.058594 17.359375 5.054688 17.320312 5.074219 17.320312 C 5.09375 17.320312 5.109375 17.28125 5.109375 17.230469 C 5.113281 16.832031 5.125 16.71875 5.160156 16.738281 C 5.183594 16.753906 5.199219 16.691406 5.199219 16.578125 C 5.199219 16.457031 5.214844 16.40625 5.242188 16.421875 C 5.269531 16.4375 5.28125 16.414062 5.277344 16.355469 C 5.269531 16.300781 5.285156 16.222656 5.308594 16.179688 C 5.332031 16.136719 5.367188 16.03125 5.382812 15.949219 C 5.398438 15.859375 5.429688 15.800781 5.46875 15.800781 C 5.5 15.800781 5.515625 15.78125 5.5 15.761719 C 5.488281 15.742188 5.496094 15.714844 5.519531 15.699219 C 5.542969 15.6875 5.558594 15.640625 5.558594 15.597656 C 5.558594 15.554688 5.582031 15.519531 5.605469 15.519531 C 5.632812 15.519531 5.640625 15.507812 5.628906 15.496094 C 5.613281 15.480469 5.628906 15.445312 5.660156 15.414062 C 5.695312 15.378906 5.71875 15.320312 5.71875 15.277344 C 5.71875 15.234375 5.738281 15.199219 5.761719 15.199219 C 5.78125 15.199219 5.800781 15.171875 5.800781 15.136719 C 5.800781 15.101562 5.816406 15.085938 5.835938 15.097656 C 5.855469 15.109375 5.867188 15.085938 5.867188 15.050781 C 5.863281 15.011719 5.882812 14.984375 5.914062 14.992188 C 5.941406 14.996094 5.953125 14.984375 5.941406 14.960938 C 5.925781 14.9375 5.964844 14.875 6.023438 14.820312 C 6.082031 14.765625 6.121094 14.71875 6.105469 14.71875 C 6.089844 14.71875 6.097656 14.683594 6.121094 14.640625 C 6.144531 14.59375 6.203125 14.558594 6.257812 14.558594 C 6.34375 14.558594 6.421875 14.464844 6.40625 14.382812 C 6.390625 14.324219 6.613281 14.117188 6.671875 14.136719 C 6.699219 14.148438 6.714844 14.140625 6.699219 14.121094 C 6.6875 14.097656 6.699219 14.078125 6.730469 14.078125 C 6.824219 14.078125 6.957031 13.960938 6.933594 13.898438 C 6.914062 13.847656 6.746094 13.839844 5.820312 13.839844 C 4.898438 13.839844 4.722656 13.832031 4.679688 13.78125 C 4.617188 13.703125 4.535156 13.703125 4.503906 13.78125 C 4.488281 13.820312 4.496094 13.835938 4.527344 13.816406 C 4.554688 13.796875 4.5625 13.804688 4.542969 13.832031 C 4.527344 13.859375 4.488281 13.878906 4.457031 13.878906 C 4.425781 13.878906 4.398438 13.90625 4.398438 13.941406 C 4.398438 13.976562 4.382812 13.992188 4.359375 13.980469 C 4.339844 13.964844 4.332031 13.980469 4.34375 14.015625 C 4.355469 14.046875 4.34375 14.085938 4.320312 14.101562 C 4.28125 14.121094 4.285156 14.136719 4.320312 14.160156 C 4.355469 14.183594 4.34375 14.199219 4.285156 14.21875 C 4.238281 14.234375 4.199219 14.273438 4.199219 14.304688 C 4.199219 14.339844 4.183594 14.355469 4.160156 14.339844 C 4.136719 14.328125 4.121094 14.351562 4.121094 14.394531 C 4.121094 14.496094 4.039062 14.679688 3.992188 14.679688 C 3.976562 14.679688 3.960938 14.71875 3.960938 14.769531 C 3.957031 14.84375 3.953125 14.847656 3.921875 14.800781 C 3.886719 14.75 3.882812 14.753906 3.878906 14.824219 C 3.878906 14.933594 3.78125 15.128906 3.746094 15.09375 C 3.730469 15.078125 3.71875 15.113281 3.71875 15.167969 C 3.71875 15.222656 3.707031 15.28125 3.691406 15.292969 C 3.675781 15.308594 3.65625 15.371094 3.648438 15.429688 C 3.640625 15.492188 3.617188 15.546875 3.597656 15.554688 C 3.578125 15.5625 3.558594 15.609375 3.558594 15.664062 C 3.558594 15.714844 3.546875 15.761719 3.53125 15.761719 C 3.511719 15.761719 3.496094 15.808594 3.492188 15.867188 C 3.488281 15.929688 3.46875 15.984375 3.445312 15.992188 C 3.417969 16 3.398438 16.085938 3.398438 16.183594 C 3.398438 16.296875 3.382812 16.359375 3.351562 16.359375 C 3.316406 16.359375 3.320312 16.375 3.359375 16.398438 C 3.394531 16.421875 3.402344 16.4375 3.375 16.4375 C 3.351562 16.441406 3.328125 16.539062 3.324219 16.671875 C 3.320312 16.796875 3.296875 16.917969 3.277344 16.9375 C 3.226562 16.988281 3.230469 17.050781 3.28125 17.019531 C 3.300781 17.007812 3.320312 17.015625 3.320312 17.039062 C 3.320312 17.0625 3.304688 17.078125 3.285156 17.078125 C 3.234375 17.078125 3.226562 18.046875 3.277344 18.078125 C 3.296875 18.089844 3.320312 18.234375 3.324219 18.390625 C 3.328125 18.550781 3.347656 18.691406 3.367188 18.703125 C 3.382812 18.714844 3.398438 18.785156 3.398438 18.863281 C 3.398438 18.9375 3.417969 19 3.441406 19 C 3.460938 19 3.480469 19.0625 3.480469 19.136719 C 3.480469 19.214844 3.496094 19.285156 3.519531 19.300781 C 3.542969 19.3125 3.558594 19.378906 3.558594 19.445312 C 3.558594 19.515625 3.578125 19.554688 3.601562 19.539062 C 3.621094 19.527344 3.640625 19.558594 3.640625 19.617188 C 3.640625 19.675781 3.65625 19.71875 3.679688 19.71875 C 3.703125 19.71875 3.71875 19.753906 3.71875 19.796875 C 3.71875 19.839844 3.738281 19.886719 3.761719 19.898438 C 3.78125 19.914062 3.800781 19.96875 3.800781 20.023438 C 3.800781 20.074219 3.816406 20.121094 3.839844 20.121094 C 3.863281 20.121094 3.878906 20.15625 3.878906 20.195312 C 3.878906 20.238281 3.894531 20.28125 3.910156 20.285156 C 3.925781 20.292969 3.984375 20.386719 4.035156 20.488281 C 4.089844 20.59375 4.144531 20.679688 4.160156 20.679688 C 4.175781 20.679688 4.203125 20.710938 4.214844 20.75 C 4.253906 20.871094 4.417969 21.085938 4.632812 21.304688 C 4.683594 21.359375 4.710938 21.398438 4.695312 21.398438 C 4.679688 21.398438 4.714844 21.4375 4.773438 21.484375 C 4.832031 21.527344 4.878906 21.589844 4.878906 21.621094 C 4.878906 21.65625 4.90625 21.679688 4.9375 21.679688 C 4.96875 21.679688 5.003906 21.714844 5.019531 21.757812 C 5.03125 21.800781 5.078125 21.847656 5.117188 21.859375 C 5.160156 21.871094 5.203125 21.910156 5.214844 21.941406 C 5.226562 21.972656 5.261719 22 5.292969 22 C 5.324219 22 5.394531 22.054688 5.445312 22.121094 C 5.496094 22.183594 5.566406 22.238281 5.59375 22.238281 C 5.625 22.238281 5.679688 22.273438 5.714844 22.308594 C 5.75 22.347656 5.808594 22.386719 5.839844 22.394531 C 5.871094 22.402344 5.914062 22.433594 5.933594 22.464844 C 5.949219 22.496094 5.992188 22.519531 6.023438 22.519531 C 6.164062 22.519531 6.28125 22.644531 6.28125 22.800781 C 6.28125 22.886719 6.296875 22.964844 6.320312 22.980469 C 6.34375 22.992188 6.359375 23.066406 6.359375 23.140625 C 6.359375 23.214844 6.378906 23.285156 6.398438 23.300781 C 6.421875 23.3125 6.441406 23.390625 6.441406 23.472656 C 6.441406 23.558594 6.457031 23.640625 6.476562 23.660156 C 6.5 23.683594 6.519531 23.777344 6.527344 23.871094 C 6.53125 23.964844 6.550781 24.039062 6.566406 24.039062 C 6.585938 24.039062 6.601562 24.113281 6.601562 24.199219 C 6.601562 24.289062 6.617188 24.359375 6.640625 24.359375 C 6.660156 24.359375 6.679688 24.441406 6.679688 24.539062 C 6.679688 24.640625 6.695312 24.71875 6.714844 24.71875 C 6.75 24.71875 6.769531 24.816406 6.824219 25.289062 C 6.835938 25.394531 6.863281 25.480469 6.882812 25.480469 C 6.902344 25.480469 6.921875 25.550781 6.921875 25.640625 C 6.921875 25.726562 6.9375 25.800781 6.960938 25.800781 C 6.980469 25.800781 7 25.890625 7 26 C 7 26.109375 7.019531 26.199219 7.039062 26.199219 C 7.0625 26.199219 7.078125 26.273438 7.078125 26.359375 C 7.078125 26.449219 7.097656 26.519531 7.121094 26.519531 C 7.140625 26.519531 7.160156 26.613281 7.160156 26.730469 C 7.160156 26.878906 7.171875 26.921875 7.199219 26.878906 C 7.226562 26.835938 7.238281 26.871094 7.238281 27.003906 C 7.238281 27.101562 7.257812 27.199219 7.277344 27.222656 C 7.296875 27.242188 7.320312 27.335938 7.324219 27.429688 C 7.332031 27.523438 7.351562 27.601562 7.367188 27.601562 C 7.386719 27.601562 7.398438 27.671875 7.398438 27.761719 C 7.398438 27.847656 7.414062 27.921875 7.433594 27.921875 C 7.453125 27.921875 7.480469 28.023438 7.492188 28.148438 C 7.507812 28.277344 7.527344 28.425781 7.539062 28.480469 C 7.550781 28.535156 7.570312 28.652344 7.582031 28.738281 C 7.59375 28.828125 7.621094 28.9375 7.640625 28.980469 C 7.675781 29.0625 7.707031 29.214844 7.746094 29.53125 C 7.757812 29.632812 7.785156 29.71875 7.800781 29.71875 C 7.816406 29.71875 7.84375 29.796875 7.855469 29.890625 C 7.898438 30.21875 7.929688 30.378906 7.960938 30.421875 C 7.980469 30.445312 8 30.539062 8.003906 30.632812 C 8.011719 30.722656 8.03125 30.800781 8.046875 30.800781 C 8.066406 30.800781 8.078125 30.871094 8.078125 30.960938 C 8.078125 31.046875 8.097656 31.121094 8.121094 31.121094 C 8.140625 31.121094 8.160156 31.210938 8.160156 31.320312 C 8.160156 31.429688 8.179688 31.519531 8.199219 31.519531 C 8.222656 31.519531 8.238281 31.59375 8.238281 31.679688 C 8.238281 31.769531 8.257812 31.839844 8.28125 31.839844 C 8.300781 31.839844 8.320312 31.917969 8.320312 32.019531 C 8.320312 32.117188 8.339844 32.207031 8.359375 32.21875 C 8.382812 32.234375 8.398438 32.308594 8.398438 32.382812 C 8.398438 32.457031 8.417969 32.519531 8.441406 32.519531 C 8.460938 32.519531 8.480469 32.609375 8.480469 32.71875 C 8.480469 32.828125 8.496094 32.921875 8.515625 32.921875 C 8.535156 32.921875 8.5625 32.996094 8.574219 33.089844 C 8.628906 33.5 8.652344 33.601562 8.683594 33.621094 C 8.703125 33.636719 8.71875 33.714844 8.71875 33.800781 C 8.71875 33.886719 8.738281 33.964844 8.761719 33.980469 C 8.78125 33.992188 8.800781 34.074219 8.800781 34.164062 C 8.800781 34.25 8.816406 34.320312 8.839844 34.320312 C 8.863281 34.320312 8.878906 34.410156 8.878906 34.519531 C 8.878906 34.628906 8.898438 34.71875 8.921875 34.71875 C 8.941406 34.71875 8.960938 34.78125 8.960938 34.859375 C 8.960938 34.933594 8.976562 35.007812 9 35.019531 C 9.023438 35.035156 9.039062 35.132812 9.039062 35.246094 C 9.039062 35.355469 9.054688 35.433594 9.074219 35.421875 C 9.09375 35.410156 9.121094 35.496094 9.132812 35.609375 C 9.164062 35.898438 9.253906 36.308594 9.289062 36.34375 C 9.304688 36.359375 9.320312 36.40625 9.320312 36.441406 C 9.320312 36.503906 9.394531 36.675781 9.53125 36.941406 C 9.554688 36.984375 9.609375 37.09375 9.65625 37.179688 C 9.703125 37.269531 9.789062 37.386719 9.847656 37.445312 C 9.910156 37.503906 9.949219 37.558594 9.9375 37.570312 C 9.90625 37.597656 10.710938 38.398438 10.769531 38.398438 C 10.796875 38.398438 10.84375 38.4375 10.871094 38.480469 C 10.898438 38.523438 10.9375 38.558594 10.960938 38.558594 C 10.984375 38.558594 11.042969 38.597656 11.089844 38.640625 C 11.136719 38.683594 11.199219 38.71875 11.226562 38.71875 C 11.257812 38.71875 11.28125 38.738281 11.28125 38.761719 C 11.28125 38.78125 11.304688 38.800781 11.332031 38.800781 C 11.40625 38.800781 11.597656 38.894531 11.601562 38.929688 C 11.601562 38.945312 11.628906 38.960938 11.660156 38.960938 C 11.695312 38.960938 11.753906 38.976562 11.789062 38.996094 C 11.929688 39.070312 12.292969 39.160156 12.441406 39.160156 C 12.527344 39.160156 12.605469 39.179688 12.621094 39.199219 C 12.652344 39.253906 27.347656 39.253906 27.378906 39.199219 C 27.394531 39.179688 27.46875 39.160156 27.546875 39.160156 C 27.691406 39.160156 28.074219 39.066406 28.210938 38.996094 C 28.246094 38.976562 28.304688 38.960938 28.339844 38.960938 C 28.371094 38.960938 28.398438 38.945312 28.398438 38.929688 C 28.402344 38.894531 28.59375 38.800781 28.667969 38.800781 C 28.695312 38.800781 28.71875 38.78125 28.71875 38.761719 C 28.71875 38.738281 28.742188 38.71875 28.773438 38.71875 C 28.800781 38.71875 28.863281 38.683594 28.910156 38.640625 C 28.957031 38.597656 29.015625 38.558594 29.039062 38.558594 C 29.0625 38.558594 29.101562 38.523438 29.128906 38.480469 C 29.15625 38.4375 29.203125 38.398438 29.230469 38.398438 C 29.289062 38.398438 30.035156 37.664062 30.050781 37.589844 C 30.054688 37.5625 30.105469 37.496094 30.160156 37.441406 C 30.214844 37.386719 30.296875 37.269531 30.34375 37.179688 C 30.390625 37.09375 30.445312 36.984375 30.46875 36.941406 C 30.605469 36.675781 30.679688 36.503906 30.679688 36.441406 C 30.679688 36.40625 30.695312 36.359375 30.710938 36.34375 C 30.746094 36.308594 30.835938 35.898438 30.867188 35.609375 C 30.878906 35.496094 30.90625 35.410156 30.925781 35.421875 C 30.945312 35.433594 30.960938 35.355469 30.960938 35.242188 C 30.960938 35.132812 30.976562 35.039062 31 35.039062 C 31.023438 35.039062 31.039062 34.96875 31.039062 34.878906 C 31.039062 34.792969 31.058594 34.71875 31.078125 34.71875 C 31.101562 34.71875 31.121094 34.628906 31.121094 34.519531 C 31.121094 34.410156 31.136719 34.320312 31.160156 34.320312 C 31.183594 34.320312 31.199219 34.246094 31.199219 34.160156 C 31.199219 34.070312 31.21875 34 31.238281 34 C 31.261719 34 31.28125 33.921875 31.28125 33.824219 C 31.28125 33.726562 31.296875 33.632812 31.320312 33.621094 C 31.34375 33.605469 31.359375 33.515625 31.359375 33.414062 C 31.359375 33.304688 31.375 33.246094 31.398438 33.261719 C 31.425781 33.273438 31.441406 33.214844 31.441406 33.101562 C 31.441406 33.003906 31.457031 32.921875 31.480469 32.921875 C 31.503906 32.921875 31.519531 32.828125 31.519531 32.71875 C 31.519531 32.609375 31.539062 32.519531 31.558594 32.519531 C 31.582031 32.519531 31.601562 32.457031 31.601562 32.382812 C 31.601562 32.308594 31.617188 32.234375 31.640625 32.21875 C 31.660156 32.207031 31.679688 32.117188 31.679688 32.019531 C 31.679688 31.921875 31.695312 31.835938 31.714844 31.824219 C 31.75 31.800781 31.769531 31.699219 31.824219 31.289062 C 31.835938 31.195312 31.863281 31.121094 31.882812 31.121094 C 31.902344 31.121094 31.921875 31.027344 31.921875 30.917969 C 31.921875 30.792969 31.933594 30.726562 31.960938 30.738281 C 31.984375 30.753906 32 30.703125 32 30.609375 C 32 30.527344 32.015625 30.4375 32.035156 30.417969 C 32.054688 30.398438 32.082031 30.308594 32.09375 30.21875 C 32.105469 30.132812 32.136719 29.96875 32.160156 29.859375 C 32.183594 29.75 32.214844 29.597656 32.226562 29.519531 C 32.234375 29.441406 32.261719 29.34375 32.28125 29.300781 C 32.300781 29.257812 32.324219 29.15625 32.332031 29.078125 C 32.34375 29.003906 32.363281 28.894531 32.375 28.839844 C 32.410156 28.695312 32.453125 28.507812 32.464844 28.441406 C 32.472656 28.40625 32.488281 28.277344 32.503906 28.148438 C 32.519531 28.023438 32.546875 27.921875 32.566406 27.921875 C 32.585938 27.921875 32.601562 27.847656 32.601562 27.761719 C 32.601562 27.671875 32.617188 27.601562 32.640625 27.601562 C 32.660156 27.601562 32.679688 27.519531 32.679688 27.421875 C 32.679688 27.320312 32.699219 27.238281 32.71875 27.238281 C 32.742188 27.238281 32.761719 27.148438 32.761719 27.039062 C 32.761719 26.914062 32.773438 26.84375 32.800781 26.859375 C 32.824219 26.875 32.839844 26.8125 32.839844 26.703125 C 32.839844 26.601562 32.859375 26.519531 32.878906 26.519531 C 32.902344 26.519531 32.921875 26.429688 32.921875 26.320312 C 32.921875 26.210938 32.9375 26.121094 32.960938 26.121094 C 32.980469 26.121094 33 26.039062 33 25.9375 C 33 25.828125 33.015625 25.765625 33.039062 25.78125 C 33.0625 25.796875 33.078125 25.734375 33.078125 25.625 C 33.078125 25.527344 33.097656 25.433594 33.121094 25.421875 C 33.140625 25.40625 33.160156 25.324219 33.160156 25.238281 C 33.160156 25.15625 33.179688 25.074219 33.199219 25.058594 C 33.222656 25.046875 33.238281 24.964844 33.238281 24.878906 C 33.238281 24.789062 33.257812 24.71875 33.28125 24.71875 C 33.300781 24.71875 33.320312 24.640625 33.320312 24.539062 C 33.320312 24.441406 33.339844 24.359375 33.359375 24.359375 C 33.382812 24.359375 33.398438 24.289062 33.398438 24.203125 C 33.398438 24.117188 33.417969 24.035156 33.441406 24.019531 C 33.460938 24.007812 33.480469 23.925781 33.480469 23.839844 C 33.480469 23.753906 33.496094 23.671875 33.519531 23.660156 C 33.542969 23.644531 33.558594 23.5625 33.558594 23.476562 C 33.558594 23.390625 33.578125 23.320312 33.601562 23.320312 C 33.621094 23.320312 33.640625 23.230469 33.640625 23.121094 C 33.640625 23.011719 33.65625 22.921875 33.671875 22.921875 C 33.6875 22.921875 33.707031 22.851562 33.714844 22.769531 C 33.71875 22.6875 33.738281 22.613281 33.75 22.601562 C 33.765625 22.589844 33.785156 22.527344 33.792969 22.460938 C 33.800781 22.386719 33.867188 22.285156 33.984375 22.175781 C 34.082031 22.082031 34.160156 21.996094 34.160156 21.980469 C 34.160156 21.96875 34.238281 21.878906 34.328125 21.785156 C 34.527344 21.582031 34.640625 21.449219 34.640625 21.414062 C 34.640625 21.402344 34.695312 21.339844 34.761719 21.28125 C 34.824219 21.21875 34.878906 21.140625 34.878906 21.105469 C 34.878906 21.070312 34.898438 21.039062 34.921875 21.039062 C 34.941406 21.039062 34.960938 21.011719 34.960938 20.980469 C 34.960938 20.945312 34.976562 20.921875 35 20.921875 C 35.023438 20.921875 35.039062 20.894531 35.039062 20.859375 C 35.039062 20.828125 35.058594 20.800781 35.078125 20.800781 C 35.101562 20.800781 35.121094 20.773438 35.121094 20.746094 C 35.121094 20.660156 35.222656 20.476562 35.253906 20.507812 C 35.269531 20.523438 35.28125 20.488281 35.28125 20.433594 C 35.28125 20.378906 35.3125 20.300781 35.351562 20.257812 C 35.414062 20.191406 35.671875 19.484375 35.695312 19.320312 C 35.699219 19.285156 35.714844 19.238281 35.734375 19.210938 C 35.75 19.183594 35.753906 19.140625 35.738281 19.121094 C 35.726562 19.097656 35.730469 19.058594 35.746094 19.03125 C 35.789062 18.964844 35.808594 18.855469 35.816406 18.671875 C 35.816406 18.585938 35.832031 18.519531 35.847656 18.519531 C 35.863281 18.519531 35.882812 18.328125 35.894531 18.089844 C 35.902344 17.851562 35.921875 17.582031 35.9375 17.488281 C 35.949219 17.386719 35.945312 17.320312 35.917969 17.320312 C 35.898438 17.320312 35.882812 17.304688 35.882812 17.289062 C 35.90625 17.164062 35.875 16.28125 35.847656 16.292969 C 35.832031 16.304688 35.816406 16.242188 35.8125 16.15625 C 35.8125 16.070312 35.789062 15.976562 35.765625 15.949219 C 35.742188 15.917969 35.730469 15.839844 35.738281 15.773438 C 35.746094 15.707031 35.726562 15.601562 35.695312 15.539062 C 35.664062 15.476562 35.648438 15.390625 35.664062 15.347656 C 35.683594 15.285156 35.675781 15.273438 35.628906 15.292969 C 35.582031 15.308594 35.570312 15.292969 35.582031 15.21875 C 35.59375 15.167969 35.578125 15.101562 35.546875 15.074219 C 35.519531 15.042969 35.5 14.996094 35.511719 14.96875 C 35.519531 14.941406 35.5 14.871094 35.460938 14.816406 C 35.425781 14.761719 35.40625 14.699219 35.421875 14.679688 C 35.433594 14.65625 35.417969 14.652344 35.386719 14.664062 C 35.355469 14.675781 35.316406 14.664062 35.296875 14.636719 C 35.277344 14.605469 35.285156 14.597656 35.3125 14.617188 C 35.398438 14.667969 35.363281 14.449219 35.28125 14.390625 C 35.238281 14.359375 35.210938 14.324219 35.222656 14.308594 C 35.300781 14.234375 35.050781 13.980469 34.96875 14.046875 C 34.917969 14.089844 34.910156 14.089844 34.929688 14.039062 C 34.941406 14.007812 34.988281 13.984375 35.042969 13.988281 C 35.097656 13.992188 35.117188 13.984375 35.089844 13.972656 C 35.0625 13.960938 35.039062 13.914062 35.039062 13.867188 C 35.035156 13.78125 35.035156 13.78125 35 13.859375 C 34.980469 13.902344 34.960938 13.921875 34.957031 13.898438 C 34.953125 13.878906 34.949219 13.84375 34.945312 13.820312 C 34.917969 13.664062 34.773438 13.496094 34.773438 13.617188 M 7.105469 13.683594 C 7.09375 13.742188 7.0625 13.761719 7.023438 13.746094 C 6.9375 13.714844 6.90625 13.78125 6.980469 13.839844 C 7.023438 13.875 7.039062 13.875 7.039062 13.84375 C 7.039062 13.820312 7.066406 13.800781 7.101562 13.800781 C 7.132812 13.800781 7.160156 13.785156 7.160156 13.761719 C 7.160156 13.742188 7.171875 13.699219 7.183594 13.664062 C 7.199219 13.628906 7.191406 13.601562 7.167969 13.601562 C 7.148438 13.601562 7.121094 13.636719 7.105469 13.683594 M 31.679688 23.398438 C 31.679688 23.441406 31.664062 23.484375 31.648438 23.496094 C 31.628906 23.507812 31.613281 23.59375 31.605469 23.6875 C 31.601562 23.78125 31.578125 23.867188 31.558594 23.875 C 31.535156 23.878906 31.519531 23.964844 31.519531 24.0625 C 31.519531 24.15625 31.503906 24.246094 31.480469 24.261719 C 31.457031 24.273438 31.441406 24.34375 31.441406 24.421875 C 31.441406 24.496094 31.425781 24.5625 31.410156 24.574219 C 31.390625 24.585938 31.371094 24.664062 31.367188 24.746094 C 31.359375 24.832031 31.339844 24.917969 31.316406 24.9375 C 31.296875 24.957031 31.28125 25.042969 31.28125 25.128906 C 31.28125 25.210938 31.265625 25.28125 31.246094 25.28125 C 31.226562 25.28125 31.207031 25.347656 31.203125 25.429688 C 31.199219 25.511719 31.191406 25.601562 31.191406 25.628906 C 31.1875 25.65625 31.171875 25.679688 31.152344 25.679688 C 31.136719 25.679688 31.121094 25.753906 31.121094 25.839844 C 31.121094 25.929688 31.105469 26 31.089844 26 C 31.074219 26 31.054688 26.085938 31.046875 26.1875 C 31.042969 26.292969 31.019531 26.394531 31.003906 26.417969 C 30.964844 26.46875 30.917969 26.683594 30.90625 26.886719 C 30.902344 26.96875 30.886719 27.046875 30.867188 27.0625 C 30.851562 27.082031 30.839844 27.160156 30.839844 27.246094 C 30.839844 27.328125 30.820312 27.40625 30.800781 27.421875 C 30.777344 27.433594 30.761719 27.527344 30.761719 27.625 C 30.761719 27.734375 30.746094 27.796875 30.71875 27.78125 C 30.695312 27.765625 30.679688 27.820312 30.679688 27.914062 C 30.679688 28.003906 30.660156 28.085938 30.640625 28.101562 C 30.617188 28.113281 30.601562 28.203125 30.601562 28.300781 C 30.601562 28.398438 30.582031 28.480469 30.558594 28.480469 C 30.539062 28.480469 30.519531 28.550781 30.519531 28.640625 C 30.519531 28.726562 30.503906 28.800781 30.480469 28.800781 C 30.457031 28.800781 30.441406 28.890625 30.441406 29 C 30.441406 29.109375 30.421875 29.199219 30.398438 29.199219 C 30.378906 29.199219 30.359375 29.273438 30.359375 29.359375 C 30.359375 29.449219 30.34375 29.519531 30.320312 29.519531 C 30.296875 29.519531 30.28125 29.601562 30.28125 29.699219 C 30.28125 29.800781 30.261719 29.878906 30.238281 29.878906 C 30.21875 29.878906 30.199219 29.949219 30.199219 30.039062 C 30.199219 30.125 30.183594 30.207031 30.160156 30.21875 C 30.136719 30.234375 30.121094 30.324219 30.121094 30.421875 C 30.121094 30.519531 30.101562 30.601562 30.078125 30.601562 C 30.058594 30.601562 30.039062 30.671875 30.039062 30.757812 C 30.039062 30.84375 30.023438 30.925781 30 30.941406 C 29.976562 30.953125 29.960938 31.042969 29.960938 31.140625 C 29.960938 31.238281 29.941406 31.320312 29.921875 31.320312 C 29.898438 31.320312 29.878906 31.390625 29.878906 31.476562 C 29.878906 31.5625 29.863281 31.644531 29.839844 31.660156 C 29.816406 31.671875 29.800781 31.753906 29.800781 31.84375 C 29.800781 31.929688 29.78125 32 29.761719 32 C 29.738281 32 29.71875 32.070312 29.71875 32.160156 C 29.71875 32.246094 29.707031 32.320312 29.6875 32.320312 C 29.667969 32.320312 29.652344 32.40625 29.644531 32.507812 C 29.640625 32.613281 29.621094 32.707031 29.601562 32.71875 C 29.570312 32.738281 29.539062 32.894531 29.492188 33.230469 C 29.480469 33.324219 29.457031 33.398438 29.441406 33.398438 C 29.421875 33.398438 29.398438 33.484375 29.386719 33.589844 C 29.359375 33.851562 29.320312 34.046875 29.28125 34.140625 C 29.242188 34.234375 29.160156 34.695312 29.132812 34.96875 C 29.121094 35.074219 29.097656 35.148438 29.074219 35.136719 C 29.054688 35.125 29.039062 35.207031 29.039062 35.316406 C 29.039062 35.429688 29.023438 35.519531 29 35.519531 C 28.976562 35.519531 28.960938 35.574219 28.960938 35.640625 C 28.960938 35.707031 28.941406 35.761719 28.921875 35.761719 C 28.898438 35.761719 28.878906 35.796875 28.878906 35.839844 C 28.878906 35.914062 28.8125 36.066406 28.761719 36.121094 C 28.75 36.132812 28.714844 36.1875 28.683594 36.25 C 28.652344 36.308594 28.59375 36.394531 28.554688 36.4375 C 28.511719 36.480469 28.480469 36.527344 28.480469 36.542969 C 28.480469 36.585938 28.1875 36.839844 28.140625 36.839844 C 28.117188 36.839844 28.070312 36.875 28.039062 36.921875 C 28.007812 36.964844 27.960938 37 27.929688 37 C 27.902344 37 27.878906 37.019531 27.878906 37.039062 C 27.878906 37.0625 27.851562 37.078125 27.820312 37.078125 C 27.785156 37.078125 27.761719 37.097656 27.761719 37.121094 C 27.761719 37.140625 27.722656 37.160156 27.679688 37.160156 C 27.636719 37.160156 27.601562 37.179688 27.601562 37.199219 C 27.601562 37.222656 27.554688 37.238281 27.5 37.238281 C 27.445312 37.238281 27.398438 37.257812 27.398438 37.28125 C 27.398438 37.300781 27.328125 37.320312 27.238281 37.320312 C 27.152344 37.320312 27.078125 37.339844 27.078125 37.359375 C 27.078125 37.386719 24.691406 37.398438 20 37.398438 C 15.308594 37.398438 12.921875 37.386719 12.921875 37.359375 C 12.921875 37.339844 12.867188 37.320312 12.800781 37.320312 C 12.734375 37.320312 12.679688 37.300781 12.679688 37.28125 C 12.679688 37.257812 12.628906 37.238281 12.5625 37.238281 C 12.5 37.238281 12.441406 37.226562 12.433594 37.210938 C 12.425781 37.195312 12.328125 37.136719 12.21875 37.082031 C 12.109375 37.027344 11.992188 36.949219 11.957031 36.910156 C 11.917969 36.871094 11.871094 36.839844 11.84375 36.839844 C 11.792969 36.839844 11.519531 36.582031 11.519531 36.53125 C 11.515625 36.515625 11.464844 36.4375 11.398438 36.363281 C 11.332031 36.285156 11.28125 36.199219 11.28125 36.171875 C 11.28125 36.144531 11.265625 36.121094 11.25 36.121094 C 11.210938 36.121094 11.121094 35.921875 11.121094 35.832031 C 11.121094 35.792969 11.101562 35.761719 11.078125 35.761719 C 11.058594 35.761719 11.039062 35.707031 11.039062 35.640625 C 11.039062 35.574219 11.023438 35.519531 11 35.519531 C 10.976562 35.519531 10.960938 35.441406 10.960938 35.34375 C 10.960938 35.246094 10.941406 35.152344 10.921875 35.140625 C 10.898438 35.125 10.878906 35.066406 10.878906 35.007812 C 10.878906 34.949219 10.855469 34.773438 10.824219 34.621094 C 10.792969 34.464844 10.753906 34.285156 10.742188 34.21875 C 10.695312 33.949219 10.652344 33.773438 10.628906 33.734375 C 10.613281 33.710938 10.597656 33.625 10.59375 33.542969 C 10.585938 33.460938 10.570312 33.386719 10.550781 33.375 C 10.535156 33.363281 10.519531 33.273438 10.519531 33.175781 C 10.519531 33.078125 10.503906 33 10.480469 33 C 10.457031 33 10.441406 32.929688 10.441406 32.84375 C 10.441406 32.753906 10.421875 32.671875 10.398438 32.660156 C 10.378906 32.644531 10.359375 32.566406 10.359375 32.480469 C 10.359375 32.394531 10.34375 32.316406 10.324219 32.300781 C 10.304688 32.289062 10.277344 32.203125 10.261719 32.109375 C 10.25 32.015625 10.226562 31.867188 10.214844 31.78125 C 10.203125 31.691406 10.175781 31.601562 10.15625 31.582031 C 10.136719 31.5625 10.121094 31.464844 10.121094 31.371094 C 10.121094 31.277344 10.101562 31.199219 10.078125 31.199219 C 10.058594 31.199219 10.039062 31.117188 10.039062 31.019531 C 10.039062 30.921875 10.023438 30.839844 10 30.839844 C 9.976562 30.839844 9.960938 30.757812 9.960938 30.660156 C 9.960938 30.5625 9.941406 30.480469 9.921875 30.480469 C 9.898438 30.480469 9.878906 30.398438 9.878906 30.300781 C 9.878906 30.199219 9.863281 30.121094 9.839844 30.121094 C 9.816406 30.121094 9.800781 30.039062 9.800781 29.941406 C 9.800781 29.839844 9.78125 29.761719 9.761719 29.761719 C 9.738281 29.761719 9.71875 29.679688 9.71875 29.578125 C 9.71875 29.480469 9.703125 29.398438 9.679688 29.398438 C 9.65625 29.398438 9.640625 29.320312 9.640625 29.21875 C 9.640625 29.121094 9.621094 29.039062 9.601562 29.039062 C 9.578125 29.039062 9.558594 28.96875 9.558594 28.878906 C 9.558594 28.792969 9.542969 28.71875 9.519531 28.71875 C 9.496094 28.71875 9.480469 28.628906 9.480469 28.519531 C 9.480469 28.410156 9.460938 28.320312 9.441406 28.320312 C 9.417969 28.320312 9.398438 28.238281 9.398438 28.140625 C 9.398438 28.039062 9.382812 27.960938 9.359375 27.960938 C 9.339844 27.960938 9.320312 27.878906 9.320312 27.777344 C 9.320312 27.667969 9.304688 27.605469 9.28125 27.621094 C 9.253906 27.636719 9.238281 27.566406 9.238281 27.441406 C 9.238281 27.332031 9.222656 27.238281 9.203125 27.238281 C 9.183594 27.238281 9.15625 27.15625 9.144531 27.050781 C 9.132812 26.945312 9.113281 26.796875 9.101562 26.71875 C 9.089844 26.644531 9.070312 26.5 9.054688 26.398438 C 9.042969 26.300781 9.015625 26.203125 8.996094 26.183594 C 8.976562 26.160156 8.960938 26.089844 8.960938 26.019531 C 8.960938 25.953125 8.945312 25.878906 8.921875 25.859375 C 8.902344 25.835938 8.882812 25.738281 8.875 25.640625 C 8.867188 25.539062 8.847656 25.449219 8.832031 25.4375 C 8.816406 25.425781 8.800781 25.351562 8.792969 25.269531 C 8.789062 25.1875 8.773438 25.121094 8.757812 25.121094 C 8.746094 25.121094 8.730469 25.035156 8.726562 24.929688 C 8.71875 24.824219 8.699219 24.734375 8.679688 24.726562 C 8.65625 24.71875 8.640625 24.632812 8.640625 24.535156 C 8.640625 24.425781 8.625 24.363281 8.601562 24.378906 C 8.574219 24.394531 8.558594 24.335938 8.558594 24.226562 C 8.558594 24.128906 8.542969 24.039062 8.523438 24.035156 C 8.5 24.027344 8.480469 23.945312 8.472656 23.851562 C 8.46875 23.757812 8.449219 23.679688 8.433594 23.679688 C 8.414062 23.679688 8.398438 23.617188 8.398438 23.539062 L 8.398438 23.398438 L 19.878906 23.398438 C 27.484375 23.398438 31.363281 23.386719 31.378906 23.359375 C 31.429688 23.28125 31.679688 23.3125 31.679688 23.398438 M 25.972656 25.785156 C 25.984375 25.800781 25.972656 25.871094 25.941406 25.945312 C 25.910156 26.019531 25.882812 26.085938 25.886719 26.089844 C 25.894531 26.164062 25.820312 26.609375 25.792969 26.625 C 25.777344 26.636719 25.761719 26.726562 25.761719 26.824219 C 25.761719 26.921875 25.742188 27 25.71875 27 C 25.699219 27 25.679688 27.070312 25.679688 27.160156 C 25.679688 27.246094 25.660156 27.320312 25.640625 27.320312 C 25.617188 27.320312 25.601562 27.382812 25.601562 27.457031 C 25.601562 27.535156 25.582031 27.605469 25.558594 27.621094 C 25.539062 27.632812 25.519531 27.714844 25.519531 27.804688 C 25.519531 27.902344 25.503906 27.953125 25.480469 27.941406 C 25.457031 27.925781 25.441406 27.984375 25.441406 28.09375 C 25.441406 28.195312 25.421875 28.285156 25.398438 28.300781 C 25.378906 28.3125 25.359375 28.394531 25.359375 28.480469 C 25.359375 28.570312 25.34375 28.640625 25.320312 28.640625 C 25.296875 28.640625 25.28125 28.710938 25.28125 28.800781 C 25.28125 28.886719 25.261719 28.960938 25.238281 28.960938 C 25.21875 28.960938 25.199219 29.03125 25.199219 29.121094 C 25.199219 29.207031 25.183594 29.28125 25.164062 29.28125 C 25.128906 29.28125 25.109375 29.375 25.054688 29.789062 C 25.042969 29.882812 25.015625 29.960938 24.996094 29.960938 C 24.976562 29.960938 24.960938 30.03125 24.960938 30.121094 C 24.960938 30.207031 24.941406 30.28125 24.921875 30.28125 C 24.898438 30.28125 24.878906 30.351562 24.878906 30.441406 C 24.878906 30.527344 24.863281 30.601562 24.839844 30.601562 C 24.816406 30.601562 24.800781 30.671875 24.800781 30.757812 C 24.800781 30.84375 24.78125 30.925781 24.761719 30.941406 C 24.738281 30.953125 24.71875 31.027344 24.71875 31.101562 C 24.71875 31.175781 24.703125 31.246094 24.679688 31.261719 C 24.65625 31.273438 24.640625 31.355469 24.640625 31.441406 C 24.640625 31.527344 24.621094 31.605469 24.601562 31.621094 C 24.578125 31.632812 24.558594 31.707031 24.558594 31.78125 C 24.558594 31.859375 24.542969 31.921875 24.523438 31.921875 C 24.503906 31.921875 24.480469 31.996094 24.46875 32.089844 C 24.457031 32.183594 24.429688 32.332031 24.40625 32.421875 C 24.28125 32.894531 24.160156 33.472656 24.132812 33.710938 C 24.121094 33.804688 24.097656 33.878906 24.074219 33.878906 C 24.054688 33.878906 24.039062 33.953125 24.039062 34.039062 C 24.039062 34.128906 24.023438 34.199219 24 34.199219 C 23.976562 34.199219 23.960938 34.300781 23.960938 34.421875 L 23.960938 34.640625 L 24.097656 34.640625 C 24.171875 34.640625 24.246094 34.65625 24.261719 34.679688 C 24.273438 34.703125 24.347656 34.71875 24.421875 34.71875 C 24.5 34.71875 24.558594 34.738281 24.558594 34.761719 C 24.558594 34.78125 24.632812 34.800781 24.71875 34.800781 C 24.804688 34.800781 24.886719 34.816406 24.898438 34.839844 C 24.914062 34.863281 24.988281 34.878906 25.0625 34.878906 C 25.136719 34.878906 25.199219 34.898438 25.199219 34.921875 C 25.199219 34.941406 25.269531 34.960938 25.359375 34.960938 C 25.445312 34.960938 25.527344 34.976562 25.539062 35 C 25.632812 35.152344 25.808594 34.660156 25.867188 34.070312 C 25.878906 33.964844 25.902344 33.878906 25.925781 33.878906 C 25.945312 33.878906 25.960938 33.808594 25.960938 33.71875 C 25.960938 33.632812 25.976562 33.558594 26 33.558594 C 26.023438 33.558594 26.039062 33.476562 26.039062 33.378906 C 26.039062 33.265625 26.054688 33.203125 26.078125 33.21875 C 26.105469 33.234375 26.121094 33.179688 26.121094 33.082031 C 26.121094 32.992188 26.136719 32.921875 26.160156 32.921875 C 26.183594 32.921875 26.199219 32.847656 26.199219 32.761719 C 26.199219 32.675781 26.21875 32.59375 26.238281 32.578125 C 26.261719 32.566406 26.28125 32.484375 26.28125 32.398438 C 26.28125 32.3125 26.296875 32.238281 26.320312 32.238281 C 26.34375 32.238281 26.359375 32.167969 26.359375 32.082031 C 26.359375 31.996094 26.378906 31.914062 26.398438 31.898438 C 26.421875 31.886719 26.441406 31.8125 26.441406 31.738281 C 26.441406 31.660156 26.457031 31.601562 26.480469 31.601562 C 26.503906 31.601562 26.519531 31.519531 26.519531 31.421875 C 26.519531 31.320312 26.539062 31.238281 26.558594 31.238281 C 26.582031 31.238281 26.601562 31.160156 26.601562 31.058594 C 26.601562 30.960938 26.617188 30.878906 26.640625 30.878906 C 26.660156 30.878906 26.679688 30.808594 26.679688 30.71875 C 26.679688 30.632812 26.699219 30.558594 26.71875 30.558594 C 26.742188 30.558594 26.761719 30.5 26.761719 30.421875 C 26.761719 30.347656 26.777344 30.273438 26.800781 30.261719 C 26.820312 30.246094 26.839844 30.15625 26.839844 30.054688 C 26.839844 29.945312 26.855469 29.886719 26.878906 29.898438 C 26.90625 29.914062 26.921875 29.855469 26.921875 29.742188 C 26.921875 29.640625 26.9375 29.558594 26.960938 29.558594 C 26.980469 29.558594 27 29.488281 27 29.398438 C 27 29.3125 27.019531 29.238281 27.039062 29.238281 C 27.0625 29.238281 27.078125 29.183594 27.078125 29.117188 C 27.078125 29.050781 27.097656 28.960938 27.117188 28.921875 C 27.140625 28.882812 27.160156 28.785156 27.167969 28.707031 C 27.171875 28.625 27.191406 28.558594 27.207031 28.558594 C 27.226562 28.558594 27.238281 28.488281 27.238281 28.402344 C 27.238281 28.316406 27.257812 28.234375 27.277344 28.222656 C 27.296875 28.210938 27.320312 28.132812 27.332031 28.050781 C 27.34375 27.96875 27.375 27.820312 27.398438 27.71875 C 27.421875 27.621094 27.449219 27.503906 27.457031 27.460938 C 27.46875 27.414062 27.496094 27.28125 27.519531 27.160156 C 27.546875 27.039062 27.574219 26.863281 27.585938 26.769531 C 27.597656 26.675781 27.625 26.601562 27.644531 26.601562 C 27.664062 26.601562 27.679688 26.519531 27.679688 26.417969 C 27.679688 26.304688 27.695312 26.246094 27.71875 26.261719 C 27.742188 26.273438 27.761719 26.257812 27.761719 26.226562 C 27.761719 26.191406 27.722656 26.152344 27.679688 26.140625 C 27.636719 26.125 27.601562 26.101562 27.601562 26.082031 C 27.601562 26.0625 27.578125 26.050781 27.550781 26.054688 C 27.496094 26.058594 27.0625 25.96875 26.960938 25.929688 C 26.925781 25.917969 26.859375 25.90625 26.8125 25.902344 C 26.761719 25.898438 26.710938 25.882812 26.695312 25.867188 C 26.679688 25.851562 26.597656 25.839844 26.511719 25.839844 C 26.429688 25.839844 26.359375 25.820312 26.359375 25.800781 C 26.359375 25.777344 26.265625 25.761719 26.152344 25.761719 C 26.039062 25.761719 25.957031 25.769531 25.972656 25.785156 M 13.238281 25.925781 C 13.03125 25.964844 12.789062 26.011719 12.699219 26.023438 C 12.480469 26.058594 12.238281 26.164062 12.238281 26.230469 C 12.238281 26.261719 12.257812 26.273438 12.28125 26.261719 C 12.304688 26.246094 12.320312 26.304688 12.320312 26.417969 C 12.320312 26.519531 12.335938 26.601562 12.355469 26.601562 C 12.375 26.601562 12.402344 26.675781 12.414062 26.769531 C 12.425781 26.863281 12.453125 27.039062 12.480469 27.160156 C 12.503906 27.28125 12.53125 27.414062 12.542969 27.460938 C 12.550781 27.503906 12.578125 27.621094 12.601562 27.71875 C 12.625 27.820312 12.65625 27.964844 12.664062 28.039062 C 12.675781 28.117188 12.699219 28.214844 12.71875 28.261719 C 12.738281 28.304688 12.773438 28.449219 12.800781 28.578125 C 12.824219 28.710938 12.863281 28.859375 12.882812 28.910156 C 12.902344 28.960938 12.921875 29.058594 12.921875 29.121094 C 12.921875 29.1875 12.9375 29.238281 12.960938 29.238281 C 12.980469 29.238281 13 29.3125 13 29.398438 C 13 29.488281 13.019531 29.558594 13.039062 29.558594 C 13.0625 29.558594 13.078125 29.640625 13.078125 29.738281 C 13.078125 29.839844 13.097656 29.921875 13.121094 29.921875 C 13.140625 29.921875 13.160156 29.992188 13.160156 30.078125 C 13.160156 30.167969 13.179688 30.238281 13.199219 30.238281 C 13.222656 30.238281 13.238281 30.3125 13.238281 30.398438 C 13.238281 30.488281 13.257812 30.558594 13.28125 30.558594 C 13.300781 30.558594 13.320312 30.632812 13.320312 30.71875 C 13.320312 30.808594 13.339844 30.878906 13.359375 30.878906 C 13.382812 30.878906 13.398438 30.960938 13.398438 31.058594 C 13.398438 31.160156 13.417969 31.238281 13.441406 31.238281 C 13.460938 31.238281 13.480469 31.320312 13.480469 31.421875 C 13.480469 31.519531 13.496094 31.601562 13.519531 31.601562 C 13.542969 31.601562 13.558594 31.660156 13.558594 31.738281 C 13.558594 31.8125 13.578125 31.886719 13.601562 31.898438 C 13.621094 31.914062 13.640625 31.996094 13.640625 32.082031 C 13.640625 32.167969 13.65625 32.238281 13.679688 32.238281 C 13.703125 32.238281 13.71875 32.304688 13.71875 32.378906 C 13.71875 32.457031 13.738281 32.519531 13.761719 32.519531 C 13.78125 32.519531 13.800781 32.609375 13.800781 32.71875 C 13.800781 32.828125 13.816406 32.921875 13.839844 32.921875 C 13.863281 32.921875 13.878906 32.980469 13.878906 33.058594 C 13.878906 33.132812 13.898438 33.207031 13.921875 33.21875 C 13.941406 33.234375 13.960938 33.316406 13.960938 33.402344 C 13.960938 33.488281 13.976562 33.558594 14 33.558594 C 14.023438 33.558594 14.039062 33.632812 14.039062 33.722656 C 14.039062 33.8125 14.054688 33.875 14.078125 33.863281 C 14.097656 33.851562 14.121094 33.933594 14.132812 34.050781 C 14.1875 34.640625 14.363281 35.15625 14.460938 35 C 14.472656 34.976562 14.554688 34.960938 14.640625 34.960938 C 14.730469 34.960938 14.800781 34.941406 14.800781 34.921875 C 14.800781 34.898438 14.871094 34.878906 14.960938 34.878906 C 15.046875 34.878906 15.121094 34.863281 15.121094 34.839844 C 15.121094 34.816406 15.183594 34.800781 15.257812 34.800781 C 15.332031 34.800781 15.40625 34.78125 15.421875 34.761719 C 15.433594 34.738281 15.503906 34.71875 15.578125 34.71875 C 15.65625 34.71875 15.726562 34.703125 15.738281 34.679688 C 15.753906 34.65625 15.828125 34.640625 15.902344 34.640625 L 16.039062 34.640625 L 16.039062 34.421875 C 16.039062 34.300781 16.023438 34.199219 16 34.199219 C 15.976562 34.199219 15.960938 34.128906 15.960938 34.039062 C 15.960938 33.953125 15.941406 33.878906 15.921875 33.878906 C 15.898438 33.878906 15.878906 33.828125 15.878906 33.761719 C 15.878906 33.699219 15.855469 33.542969 15.820312 33.414062 C 15.789062 33.285156 15.757812 33.136719 15.746094 33.078125 C 15.738281 33.023438 15.722656 32.953125 15.710938 32.921875 C 15.675781 32.835938 15.636719 32.644531 15.613281 32.460938 C 15.601562 32.371094 15.574219 32.28125 15.558594 32.257812 C 15.539062 32.234375 15.519531 32.148438 15.511719 32.066406 C 15.507812 31.988281 15.488281 31.921875 15.472656 31.921875 C 15.453125 31.921875 15.441406 31.847656 15.441406 31.761719 C 15.441406 31.671875 15.421875 31.601562 15.398438 31.601562 C 15.378906 31.601562 15.359375 31.527344 15.359375 31.441406 C 15.359375 31.351562 15.34375 31.28125 15.320312 31.28125 C 15.296875 31.28125 15.28125 31.21875 15.28125 31.148438 C 15.28125 31.074219 15.261719 31 15.242188 30.976562 C 15.222656 30.957031 15.199219 30.863281 15.195312 30.769531 C 15.1875 30.675781 15.167969 30.601562 15.152344 30.601562 C 15.132812 30.601562 15.121094 30.539062 15.121094 30.460938 C 15.121094 30.386719 15.101562 30.3125 15.078125 30.300781 C 15.058594 30.285156 15.039062 30.214844 15.039062 30.140625 C 15.039062 30.066406 15.023438 29.992188 15 29.980469 C 14.976562 29.964844 14.960938 29.894531 14.960938 29.820312 C 14.960938 29.746094 14.941406 29.671875 14.921875 29.660156 C 14.898438 29.644531 14.878906 29.574219 14.878906 29.496094 C 14.878906 29.421875 14.867188 29.359375 14.847656 29.359375 C 14.828125 29.359375 14.8125 29.273438 14.804688 29.171875 C 14.800781 29.066406 14.777344 28.972656 14.757812 28.964844 C 14.738281 28.960938 14.71875 28.894531 14.71875 28.820312 C 14.71875 28.746094 14.703125 28.671875 14.679688 28.660156 C 14.65625 28.644531 14.640625 28.5625 14.640625 28.476562 C 14.640625 28.390625 14.621094 28.320312 14.601562 28.320312 C 14.578125 28.320312 14.558594 28.246094 14.558594 28.160156 C 14.558594 28.070312 14.542969 28 14.519531 28 C 14.496094 28 14.480469 27.929688 14.480469 27.839844 C 14.480469 27.753906 14.460938 27.679688 14.441406 27.679688 C 14.417969 27.679688 14.398438 27.609375 14.398438 27.523438 C 14.398438 27.4375 14.382812 27.355469 14.359375 27.339844 C 14.339844 27.328125 14.320312 27.246094 14.320312 27.15625 C 14.320312 27.070312 14.300781 27 14.28125 27 C 14.257812 27 14.238281 26.929688 14.238281 26.839844 C 14.238281 26.753906 14.222656 26.679688 14.199219 26.679688 C 14.179688 26.679688 14.160156 26.609375 14.160156 26.523438 C 14.160156 26.4375 14.144531 26.355469 14.121094 26.339844 C 14.101562 26.328125 14.09375 26.292969 14.101562 26.265625 C 14.113281 26.238281 14.097656 26.140625 14.0625 26.050781 C 14.03125 25.960938 14.015625 25.875 14.03125 25.863281 C 14.078125 25.816406 13.605469 25.851562 13.238281 25.925781 M 19.039062 30.441406 L 19.039062 35.039062 L 20.878906 35.039062 L 20.878906 25.839844 L 19.039062 25.839844 L 19.039062 30.441406 "/>
</svg>
