<svg width="13" height="13" viewBox="0 0 13 13" fill="none" xmlns="http://www.w3.org/2000/svg">
<path fill="#955AE0" d="M 6.773438 0.675781 C 6.773438 0.769531 6.769531 0.832031 6.761719 0.832031 C 6.753906 0.832031 6.746094 0.871094 6.746094 0.929688 C 6.746094 0.980469 6.742188 1.027344 6.734375 1.035156 C 6.726562 1.039062 6.722656 1.0625 6.722656 1.085938 C 6.722656 1.109375 6.714844 1.132812 6.707031 1.132812 C 6.699219 1.132812 6.695312 1.144531 6.695312 1.15625 C 6.695312 1.171875 6.6875 1.183594 6.683594 1.183594 C 6.675781 1.183594 6.667969 1.195312 6.667969 1.207031 C 6.667969 1.238281 6.617188 1.339844 6.601562 1.339844 C 6.597656 1.339844 6.589844 1.347656 6.589844 1.355469 C 6.589844 1.367188 6.578125 1.382812 6.566406 1.398438 C 6.550781 1.410156 6.539062 1.425781 6.539062 1.433594 C 6.539062 1.449219 6.375 1.613281 6.355469 1.613281 C 6.351562 1.613281 6.34375 1.617188 6.34375 1.625 C 6.34375 1.632812 6.335938 1.636719 6.324219 1.636719 C 6.3125 1.636719 6.304688 1.644531 6.304688 1.652344 C 6.304688 1.65625 6.296875 1.664062 6.285156 1.664062 C 6.273438 1.664062 6.265625 1.667969 6.265625 1.675781 C 6.265625 1.683594 6.257812 1.691406 6.25 1.691406 C 6.238281 1.691406 6.21875 1.703125 6.203125 1.714844 C 6.1875 1.730469 6.164062 1.742188 6.148438 1.742188 C 6.136719 1.742188 6.121094 1.746094 6.117188 1.753906 C 6.113281 1.761719 6.097656 1.769531 6.082031 1.769531 C 6.070312 1.769531 6.058594 1.773438 6.058594 1.78125 C 6.058594 1.789062 6.042969 1.792969 6.027344 1.792969 C 6.007812 1.792969 5.992188 1.800781 5.988281 1.808594 C 5.980469 1.8125 5.957031 1.820312 5.933594 1.820312 C 5.910156 1.820312 5.886719 1.824219 5.882812 1.832031 C 5.878906 1.839844 5.84375 1.847656 5.804688 1.847656 C 5.765625 1.847656 5.734375 1.851562 5.734375 1.859375 C 5.734375 1.867188 5.601562 1.871094 5.371094 1.871094 C 5.171875 1.871094 5.003906 1.878906 5 1.882812 C 4.996094 1.890625 4.949219 1.898438 4.898438 1.902344 C 4.796875 1.910156 4.78125 1.914062 4.730469 1.933594 C 4.714844 1.941406 4.691406 1.945312 4.683594 1.941406 C 4.675781 1.9375 4.660156 1.941406 4.648438 1.949219 C 4.640625 1.957031 4.617188 1.964844 4.597656 1.964844 C 4.578125 1.96875 4.5625 1.972656 4.5625 1.980469 C 4.5625 1.984375 4.546875 1.988281 4.53125 1.988281 C 4.515625 1.988281 4.496094 1.996094 4.492188 2.003906 C 4.488281 2.007812 4.472656 2.015625 4.457031 2.015625 C 4.445312 2.015625 4.433594 2.019531 4.433594 2.027344 C 4.433594 2.035156 4.421875 2.039062 4.410156 2.039062 C 4.398438 2.039062 4.375 2.050781 4.359375 2.0625 C 4.34375 2.074219 4.328125 2.078125 4.328125 2.070312 C 4.328125 2.066406 4.316406 2.074219 4.304688 2.085938 C 4.289062 2.097656 4.277344 2.105469 4.277344 2.101562 C 4.277344 2.097656 4.253906 2.109375 4.222656 2.128906 C 4.191406 2.148438 4.152344 2.171875 4.128906 2.183594 C 4.109375 2.191406 4.09375 2.207031 4.09375 2.210938 C 4.09375 2.21875 4.085938 2.222656 4.078125 2.222656 C 4.070312 2.222656 4.054688 2.234375 4.042969 2.25 C 4.03125 2.261719 4.011719 2.273438 3.996094 2.273438 C 3.976562 2.273438 3.976562 2.277344 3.992188 2.289062 C 4.007812 2.296875 4.007812 2.300781 3.988281 2.300781 C 3.972656 2.300781 3.945312 2.320312 3.925781 2.339844 C 3.90625 2.363281 3.882812 2.378906 3.875 2.378906 C 3.855469 2.378906 3.703125 2.535156 3.660156 2.59375 C 3.644531 2.621094 3.625 2.640625 3.625 2.632812 C 3.625 2.621094 3.59375 2.664062 3.59375 2.679688 C 3.59375 2.683594 3.578125 2.703125 3.558594 2.722656 C 3.539062 2.746094 3.523438 2.773438 3.523438 2.785156 C 3.523438 2.796875 3.515625 2.808594 3.511719 2.808594 C 3.503906 2.808594 3.496094 2.816406 3.496094 2.824219 C 3.496094 2.835938 3.484375 2.855469 3.472656 2.871094 C 3.457031 2.886719 3.445312 2.910156 3.445312 2.925781 C 3.445312 2.941406 3.4375 2.949219 3.433594 2.945312 C 3.425781 2.941406 3.421875 2.941406 3.421875 2.949219 C 3.425781 2.964844 3.390625 3.054688 3.378906 3.054688 C 3.371094 3.054688 3.367188 3.066406 3.367188 3.082031 C 3.367188 3.09375 3.359375 3.105469 3.355469 3.105469 C 3.347656 3.105469 3.339844 3.125 3.339844 3.144531 C 3.339844 3.167969 3.335938 3.183594 3.328125 3.183594 C 3.320312 3.183594 3.316406 3.203125 3.316406 3.222656 C 3.316406 3.246094 3.308594 3.261719 3.300781 3.261719 C 3.292969 3.261719 3.289062 3.285156 3.289062 3.316406 C 3.289062 3.34375 3.285156 3.367188 3.277344 3.367188 C 3.273438 3.367188 3.265625 3.394531 3.265625 3.429688 C 3.261719 3.507812 3.25 3.519531 3.160156 3.527344 C 3.007812 3.539062 2.976562 3.542969 2.960938 3.558594 C 2.953125 3.566406 2.925781 3.570312 2.902344 3.570312 C 2.878906 3.566406 2.859375 3.574219 2.859375 3.582031 C 2.859375 3.589844 2.84375 3.59375 2.816406 3.59375 C 2.792969 3.589844 2.773438 3.59375 2.769531 3.601562 C 2.765625 3.609375 2.742188 3.613281 2.71875 3.617188 C 2.695312 3.617188 2.679688 3.625 2.679688 3.628906 C 2.679688 3.636719 2.660156 3.640625 2.640625 3.640625 C 2.617188 3.640625 2.601562 3.644531 2.601562 3.652344 C 2.601562 3.660156 2.589844 3.664062 2.574219 3.664062 C 2.5625 3.664062 2.519531 3.683594 2.484375 3.707031 C 2.445312 3.726562 2.421875 3.738281 2.425781 3.726562 C 2.433594 3.714844 2.429688 3.714844 2.417969 3.726562 C 2.40625 3.738281 2.386719 3.742188 2.375 3.746094 C 2.351562 3.746094 2.351562 3.746094 2.367188 3.757812 C 2.382812 3.765625 2.378906 3.769531 2.355469 3.769531 C 2.339844 3.769531 2.316406 3.777344 2.304688 3.789062 C 2.296875 3.800781 2.277344 3.804688 2.269531 3.800781 C 2.257812 3.796875 2.25 3.800781 2.25 3.808594 C 2.25 3.816406 2.242188 3.820312 2.234375 3.820312 C 2.226562 3.820312 2.203125 3.835938 2.179688 3.855469 C 2.160156 3.875 2.117188 3.898438 2.089844 3.910156 C 2.0625 3.917969 2.039062 3.9375 2.039062 3.949219 C 2.039062 3.957031 2.035156 3.964844 2.027344 3.957031 C 2.019531 3.953125 2.015625 3.957031 2.015625 3.964844 C 2.015625 3.972656 2.007812 3.976562 2.003906 3.972656 C 1.996094 3.96875 1.972656 3.980469 1.953125 4.003906 C 1.929688 4.023438 1.910156 4.035156 1.90625 4.03125 C 1.902344 4.027344 1.898438 4.035156 1.898438 4.046875 C 1.898438 4.058594 1.890625 4.066406 1.882812 4.066406 C 1.871094 4.0625 1.867188 4.074219 1.867188 4.085938 C 1.867188 4.097656 1.863281 4.101562 1.851562 4.097656 C 1.839844 4.09375 1.828125 4.101562 1.824219 4.113281 C 1.820312 4.125 1.8125 4.132812 1.808594 4.128906 C 1.789062 4.117188 1.742188 4.160156 1.742188 4.1875 C 1.742188 4.207031 1.734375 4.214844 1.714844 4.207031 C 1.703125 4.203125 1.691406 4.207031 1.695312 4.214844 C 1.703125 4.21875 1.695312 4.226562 1.683594 4.226562 C 1.664062 4.226562 1.664062 4.230469 1.675781 4.242188 C 1.6875 4.257812 1.6875 4.261719 1.664062 4.253906 C 1.640625 4.25 1.636719 4.25 1.640625 4.269531 C 1.648438 4.28125 1.644531 4.285156 1.628906 4.28125 C 1.617188 4.277344 1.613281 4.28125 1.617188 4.308594 C 1.621094 4.328125 1.617188 4.339844 1.609375 4.335938 C 1.605469 4.332031 1.601562 4.320312 1.609375 4.3125 C 1.613281 4.304688 1.609375 4.304688 1.59375 4.3125 C 1.582031 4.324219 1.574219 4.34375 1.574219 4.355469 C 1.574219 4.367188 1.566406 4.382812 1.558594 4.390625 C 1.546875 4.398438 1.546875 4.40625 1.550781 4.40625 C 1.558594 4.40625 1.554688 4.414062 1.542969 4.425781 C 1.535156 4.433594 1.523438 4.441406 1.519531 4.4375 C 1.488281 4.421875 1.484375 4.453125 1.511719 4.472656 C 1.542969 4.496094 1.570312 4.496094 1.890625 4.496094 C 2.207031 4.496094 2.242188 4.5 2.257812 4.519531 C 2.273438 4.542969 2.273438 4.542969 2.273438 4.523438 C 2.273438 4.507812 2.269531 4.496094 2.261719 4.492188 C 2.242188 4.480469 2.261719 4.457031 2.28125 4.46875 C 2.296875 4.472656 2.304688 4.464844 2.308594 4.449219 C 2.320312 4.40625 2.339844 4.414062 2.332031 4.457031 C 2.328125 4.476562 2.332031 4.484375 2.335938 4.476562 C 2.339844 4.464844 2.351562 4.460938 2.359375 4.460938 C 2.375 4.460938 2.375 4.453125 2.367188 4.433594 C 2.34375 4.394531 2.347656 4.378906 2.378906 4.394531 C 2.410156 4.410156 2.421875 4.410156 2.410156 4.390625 C 2.402344 4.378906 2.40625 4.382812 2.421875 4.394531 C 2.441406 4.410156 2.449219 4.40625 2.472656 4.378906 C 2.5 4.351562 2.5 4.351562 2.476562 4.371094 C 2.460938 4.382812 2.441406 4.394531 2.4375 4.394531 C 2.429688 4.394531 2.4375 4.382812 2.457031 4.367188 C 2.472656 4.355469 2.492188 4.347656 2.5 4.351562 C 2.507812 4.355469 2.515625 4.351562 2.523438 4.339844 C 2.53125 4.324219 2.535156 4.324219 2.535156 4.34375 C 2.535156 4.351562 2.542969 4.347656 2.550781 4.328125 C 2.5625 4.304688 2.578125 4.296875 2.601562 4.300781 C 2.621094 4.304688 2.636719 4.296875 2.644531 4.285156 C 2.648438 4.273438 2.660156 4.269531 2.675781 4.273438 C 2.691406 4.277344 2.703125 4.273438 2.703125 4.269531 C 2.703125 4.261719 2.714844 4.25 2.730469 4.238281 C 2.746094 4.230469 2.753906 4.230469 2.75 4.238281 C 2.746094 4.246094 2.746094 4.25 2.753906 4.25 C 2.761719 4.25 2.769531 4.246094 2.769531 4.238281 C 2.769531 4.230469 2.785156 4.226562 2.800781 4.226562 C 2.816406 4.226562 2.835938 4.21875 2.839844 4.210938 C 2.84375 4.203125 2.859375 4.199219 2.875 4.199219 C 2.890625 4.199219 2.898438 4.191406 2.890625 4.1875 C 2.886719 4.179688 2.90625 4.171875 2.945312 4.171875 C 2.980469 4.171875 3 4.167969 2.996094 4.160156 C 2.992188 4.152344 3.003906 4.144531 3.019531 4.144531 C 3.050781 4.144531 3.054688 4.144531 3.121094 4.128906 C 3.144531 4.125 3.175781 4.117188 3.191406 4.117188 C 3.207031 4.117188 3.222656 4.109375 3.230469 4.105469 C 3.246094 4.097656 3.453125 4.089844 3.660156 4.089844 L 3.820312 4.089844 L 3.820312 3.847656 C 3.820312 3.695312 3.824219 3.605469 3.835938 3.597656 C 3.839844 3.589844 3.847656 3.5625 3.847656 3.535156 C 3.847656 3.507812 3.855469 3.480469 3.859375 3.476562 C 3.867188 3.472656 3.875 3.457031 3.875 3.441406 C 3.875 3.421875 3.878906 3.40625 3.882812 3.402344 C 3.890625 3.394531 3.894531 3.382812 3.894531 3.375 C 3.894531 3.367188 3.898438 3.347656 3.898438 3.335938 C 3.898438 3.3125 3.902344 3.3125 3.914062 3.328125 C 3.921875 3.34375 3.925781 3.335938 3.925781 3.304688 C 3.925781 3.28125 3.929688 3.265625 3.9375 3.269531 C 3.945312 3.273438 3.980469 3.195312 3.976562 3.179688 C 3.976562 3.171875 3.988281 3.160156 4.003906 3.144531 C 4.019531 3.132812 4.03125 3.117188 4.027344 3.113281 C 4.019531 3.105469 4.042969 3.074219 4.101562 3.011719 C 4.125 2.988281 4.144531 2.960938 4.152344 2.949219 C 4.15625 2.933594 4.167969 2.925781 4.175781 2.925781 C 4.183594 2.925781 4.234375 2.886719 4.28125 2.839844 C 4.332031 2.792969 4.378906 2.757812 4.390625 2.757812 C 4.398438 2.757812 4.40625 2.75 4.40625 2.742188 C 4.40625 2.734375 4.414062 2.730469 4.421875 2.730469 C 4.429688 2.730469 4.445312 2.71875 4.460938 2.703125 C 4.476562 2.691406 4.5 2.679688 4.511719 2.679688 C 4.527344 2.679688 4.535156 2.671875 4.535156 2.667969 C 4.535156 2.660156 4.558594 2.648438 4.582031 2.640625 C 4.609375 2.628906 4.628906 2.617188 4.628906 2.609375 C 4.628906 2.605469 4.640625 2.601562 4.652344 2.601562 C 4.667969 2.601562 4.699219 2.589844 4.726562 2.574219 C 4.75 2.558594 4.785156 2.546875 4.796875 2.546875 C 4.8125 2.546875 4.835938 2.542969 4.847656 2.535156 C 4.859375 2.527344 4.894531 2.523438 4.917969 2.519531 C 4.945312 2.519531 4.964844 2.511719 4.964844 2.507812 C 4.964844 2.5 4.996094 2.496094 5.035156 2.496094 C 5.074219 2.496094 5.109375 2.492188 5.109375 2.484375 C 5.113281 2.476562 5.253906 2.46875 5.46875 2.46875 C 5.664062 2.46875 5.824219 2.464844 5.824219 2.457031 C 5.824219 2.453125 5.859375 2.445312 5.90625 2.441406 C 6.03125 2.429688 6.101562 2.417969 6.109375 2.40625 C 6.113281 2.402344 6.128906 2.398438 6.144531 2.398438 C 6.164062 2.402344 6.179688 2.394531 6.183594 2.390625 C 6.1875 2.382812 6.203125 2.378906 6.222656 2.378906 C 6.238281 2.378906 6.253906 2.375 6.253906 2.367188 C 6.253906 2.359375 6.261719 2.351562 6.277344 2.351562 C 6.289062 2.351562 6.304688 2.347656 6.3125 2.339844 C 6.320312 2.332031 6.335938 2.324219 6.34375 2.320312 C 6.375 2.316406 6.414062 2.296875 6.449219 2.273438 C 6.46875 2.257812 6.492188 2.25 6.503906 2.25 C 6.515625 2.25 6.539062 2.238281 6.554688 2.226562 C 6.566406 2.210938 6.59375 2.191406 6.613281 2.183594 C 6.632812 2.171875 6.660156 2.15625 6.671875 2.140625 C 6.683594 2.128906 6.699219 2.117188 6.707031 2.117188 C 6.714844 2.117188 6.722656 2.113281 6.722656 2.105469 C 6.722656 2.097656 6.726562 2.09375 6.734375 2.09375 C 6.75 2.09375 6.992188 1.851562 6.992188 1.835938 C 6.992188 1.832031 7.011719 1.808594 7.03125 1.789062 C 7.054688 1.769531 7.070312 1.742188 7.070312 1.730469 C 7.070312 1.71875 7.082031 1.703125 7.097656 1.691406 C 7.113281 1.683594 7.125 1.667969 7.125 1.65625 C 7.125 1.648438 7.128906 1.636719 7.136719 1.636719 C 7.144531 1.636719 7.148438 1.628906 7.148438 1.621094 C 7.148438 1.597656 7.179688 1.535156 7.191406 1.535156 C 7.199219 1.535156 7.203125 1.523438 7.203125 1.507812 C 7.203125 1.492188 7.207031 1.480469 7.214844 1.480469 C 7.222656 1.480469 7.226562 1.472656 7.222656 1.464844 C 7.21875 1.453125 7.222656 1.441406 7.226562 1.4375 C 7.242188 1.425781 7.296875 1.253906 7.300781 1.203125 C 7.308594 1.109375 7.3125 1.105469 7.417969 1.105469 C 7.46875 1.105469 7.515625 1.109375 7.519531 1.117188 C 7.523438 1.125 7.566406 1.132812 7.613281 1.132812 C 7.660156 1.132812 7.695312 1.136719 7.695312 1.144531 C 7.695312 1.152344 7.722656 1.15625 7.753906 1.15625 C 7.785156 1.15625 7.8125 1.164062 7.8125 1.171875 C 7.8125 1.175781 7.832031 1.183594 7.859375 1.183594 C 7.882812 1.183594 7.90625 1.1875 7.910156 1.195312 C 7.914062 1.203125 7.933594 1.210938 7.949219 1.210938 C 7.964844 1.210938 7.984375 1.214844 7.988281 1.222656 C 7.992188 1.230469 8.011719 1.234375 8.027344 1.234375 C 8.046875 1.234375 8.058594 1.238281 8.058594 1.246094 C 8.058594 1.25 8.089844 1.265625 8.125 1.273438 C 8.160156 1.285156 8.191406 1.296875 8.191406 1.300781 C 8.191406 1.308594 8.203125 1.3125 8.214844 1.3125 C 8.230469 1.3125 8.246094 1.320312 8.25 1.328125 C 8.253906 1.332031 8.261719 1.335938 8.269531 1.332031 C 8.273438 1.328125 8.28125 1.332031 8.289062 1.339844 C 8.292969 1.347656 8.304688 1.351562 8.316406 1.351562 C 8.332031 1.351562 8.347656 1.363281 8.359375 1.378906 C 8.371094 1.390625 8.386719 1.402344 8.402344 1.402344 C 8.414062 1.402344 8.425781 1.410156 8.425781 1.417969 C 8.425781 1.425781 8.433594 1.429688 8.445312 1.429688 C 8.453125 1.429688 8.464844 1.4375 8.464844 1.441406 C 8.464844 1.449219 8.472656 1.457031 8.484375 1.457031 C 8.496094 1.457031 8.5 1.460938 8.496094 1.46875 C 8.492188 1.476562 8.5 1.480469 8.511719 1.480469 C 8.523438 1.480469 8.542969 1.492188 8.554688 1.507812 C 8.5625 1.523438 8.582031 1.535156 8.589844 1.535156 C 8.601562 1.535156 8.605469 1.539062 8.597656 1.546875 C 8.59375 1.554688 8.601562 1.558594 8.613281 1.558594 C 8.625 1.558594 8.652344 1.578125 8.671875 1.597656 C 8.691406 1.621094 8.714844 1.636719 8.722656 1.636719 C 8.726562 1.636719 8.738281 1.648438 8.742188 1.664062 C 8.746094 1.675781 8.761719 1.691406 8.777344 1.695312 C 8.789062 1.699219 8.800781 1.707031 8.800781 1.714844 C 8.800781 1.730469 8.914062 1.84375 8.921875 1.835938 C 8.925781 1.832031 8.929688 1.839844 8.929688 1.851562 C 8.929688 1.863281 8.9375 1.871094 8.941406 1.867188 C 8.949219 1.863281 8.957031 1.871094 8.964844 1.886719 C 8.96875 1.898438 8.976562 1.910156 8.984375 1.910156 C 8.992188 1.910156 8.996094 1.914062 8.992188 1.921875 C 8.988281 1.925781 8.996094 1.945312 9.011719 1.964844 C 9.046875 2.003906 9.089844 2.0625 9.113281 2.109375 C 9.121094 2.128906 9.136719 2.144531 9.140625 2.144531 C 9.148438 2.144531 9.152344 2.15625 9.152344 2.171875 C 9.152344 2.183594 9.15625 2.195312 9.164062 2.195312 C 9.171875 2.195312 9.179688 2.207031 9.179688 2.214844 C 9.179688 2.226562 9.183594 2.234375 9.1875 2.234375 C 9.195312 2.234375 9.207031 2.257812 9.214844 2.28125 C 9.222656 2.304688 9.238281 2.328125 9.246094 2.328125 C 9.25 2.328125 9.253906 2.332031 9.25 2.335938 C 9.246094 2.34375 9.257812 2.375 9.277344 2.410156 C 9.292969 2.445312 9.308594 2.484375 9.308594 2.5 C 9.308594 2.511719 9.3125 2.523438 9.320312 2.523438 C 9.328125 2.523438 9.335938 2.539062 9.335938 2.5625 C 9.335938 2.582031 9.339844 2.601562 9.34375 2.601562 C 9.355469 2.601562 9.386719 2.722656 9.386719 2.765625 C 9.386719 2.78125 9.390625 2.796875 9.398438 2.796875 C 9.40625 2.796875 9.410156 2.824219 9.410156 2.863281 C 9.410156 2.902344 9.417969 2.9375 9.425781 2.945312 C 9.433594 2.953125 9.4375 3.171875 9.4375 3.527344 L 9.4375 4.09375 L 9.472656 4.085938 C 9.53125 4.074219 9.957031 4.097656 9.949219 4.109375 C 9.945312 4.117188 9.960938 4.121094 9.980469 4.121094 C 10 4.121094 10.027344 4.128906 10.035156 4.136719 C 10.050781 4.148438 10.050781 4.148438 10.042969 4.136719 C 10.027344 4.113281 10.058594 4.117188 10.089844 4.148438 C 10.101562 4.160156 10.125 4.171875 10.140625 4.171875 C 10.15625 4.171875 10.164062 4.179688 10.164062 4.1875 C 10.164062 4.191406 10.179688 4.199219 10.199219 4.199219 C 10.21875 4.199219 10.230469 4.203125 10.222656 4.210938 C 10.214844 4.230469 10.234375 4.226562 10.253906 4.210938 C 10.265625 4.199219 10.269531 4.199219 10.269531 4.21875 C 10.269531 4.234375 10.28125 4.246094 10.296875 4.246094 C 10.3125 4.25 10.320312 4.242188 10.3125 4.234375 C 10.308594 4.226562 10.316406 4.230469 10.332031 4.246094 C 10.347656 4.257812 10.355469 4.277344 10.355469 4.285156 C 10.355469 4.289062 10.371094 4.296875 10.390625 4.300781 C 10.410156 4.304688 10.429688 4.316406 10.433594 4.328125 C 10.4375 4.34375 10.445312 4.355469 10.449219 4.355469 C 10.453125 4.355469 10.476562 4.371094 10.503906 4.390625 C 10.53125 4.417969 10.554688 4.425781 10.574219 4.421875 C 10.59375 4.417969 10.597656 4.421875 10.59375 4.449219 C 10.585938 4.472656 10.59375 4.492188 10.617188 4.511719 C 10.636719 4.53125 10.648438 4.535156 10.648438 4.523438 C 10.648438 4.515625 10.636719 4.5 10.625 4.488281 C 10.613281 4.476562 10.609375 4.472656 10.617188 4.476562 C 10.625 4.484375 10.632812 4.480469 10.632812 4.46875 C 10.632812 4.457031 10.640625 4.460938 10.652344 4.472656 C 10.667969 4.492188 10.707031 4.496094 11.003906 4.496094 C 11.257812 4.5 11.339844 4.496094 11.328125 4.484375 C 11.320312 4.476562 11.316406 4.460938 11.320312 4.449219 C 11.324219 4.4375 11.320312 4.433594 11.3125 4.4375 C 11.304688 4.441406 11.300781 4.433594 11.304688 4.40625 C 11.308594 4.382812 11.304688 4.367188 11.296875 4.367188 C 11.289062 4.367188 11.285156 4.359375 11.285156 4.347656 C 11.285156 4.335938 11.277344 4.332031 11.269531 4.335938 C 11.261719 4.339844 11.257812 4.328125 11.257812 4.308594 C 11.257812 4.289062 11.253906 4.277344 11.246094 4.285156 C 11.238281 4.289062 11.230469 4.28125 11.230469 4.269531 C 11.230469 4.261719 11.222656 4.25 11.210938 4.25 C 11.199219 4.25 11.195312 4.246094 11.199219 4.238281 C 11.203125 4.230469 11.199219 4.222656 11.1875 4.21875 C 11.175781 4.210938 11.171875 4.203125 11.171875 4.199219 C 11.175781 4.191406 11.175781 4.183594 11.167969 4.179688 C 11.160156 4.175781 11.152344 4.179688 11.152344 4.1875 C 11.152344 4.195312 11.148438 4.195312 11.140625 4.191406 C 11.132812 4.1875 11.132812 4.175781 11.136719 4.167969 C 11.144531 4.160156 11.132812 4.140625 11.109375 4.113281 C 11.089844 4.09375 11.078125 4.085938 11.082031 4.09375 C 11.09375 4.113281 11.089844 4.113281 11.070312 4.097656 C 11.058594 4.085938 11.050781 4.074219 11.054688 4.070312 C 11.0625 4.058594 11.027344 4.03125 11.019531 4.039062 C 11.015625 4.042969 11.011719 4.042969 11.011719 4.035156 C 11.011719 4.011719 10.90625 3.910156 10.894531 3.921875 C 10.886719 3.925781 10.882812 3.914062 10.882812 3.902344 C 10.882812 3.886719 10.875 3.875 10.867188 3.875 C 10.859375 3.875 10.859375 3.882812 10.863281 3.890625 C 10.871094 3.90625 10.855469 3.894531 10.785156 3.828125 C 10.765625 3.8125 10.746094 3.796875 10.738281 3.796875 C 10.730469 3.796875 10.726562 3.789062 10.726562 3.78125 C 10.726562 3.777344 10.714844 3.769531 10.707031 3.769531 C 10.695312 3.769531 10.6875 3.765625 10.6875 3.757812 C 10.6875 3.75 10.679688 3.746094 10.675781 3.746094 C 10.671875 3.75 10.640625 3.734375 10.609375 3.710938 C 10.574219 3.691406 10.542969 3.675781 10.535156 3.675781 C 10.523438 3.679688 10.515625 3.671875 10.515625 3.664062 C 10.515625 3.65625 10.511719 3.652344 10.507812 3.65625 C 10.503906 3.660156 10.488281 3.652344 10.472656 3.640625 C 10.449219 3.617188 10.417969 3.605469 10.382812 3.613281 C 10.378906 3.613281 10.375 3.609375 10.375 3.597656 C 10.375 3.589844 10.363281 3.589844 10.347656 3.59375 C 10.332031 3.597656 10.316406 3.59375 10.3125 3.582031 C 10.308594 3.574219 10.292969 3.566406 10.273438 3.566406 C 10.257812 3.566406 10.238281 3.558594 10.230469 3.546875 C 10.226562 3.539062 10.207031 3.535156 10.191406 3.539062 C 10.179688 3.542969 10.164062 3.542969 10.164062 3.535156 C 10.164062 3.527344 10.144531 3.523438 10.113281 3.523438 L 10.0625 3.523438 L 10.058594 3.375 C 10.058594 3.195312 10.058594 3.171875 10.046875 3.144531 C 10.042969 3.136719 10.035156 3.0625 10.03125 2.984375 C 10.019531 2.804688 10.011719 2.703125 10 2.703125 C 9.996094 2.703125 9.992188 2.683594 9.992188 2.660156 C 9.992188 2.636719 9.988281 2.609375 9.980469 2.59375 C 9.972656 2.578125 9.964844 2.554688 9.964844 2.542969 C 9.960938 2.515625 9.960938 2.507812 9.933594 2.429688 C 9.925781 2.40625 9.914062 2.378906 9.914062 2.371094 C 9.90625 2.347656 9.890625 2.308594 9.878906 2.285156 C 9.871094 2.273438 9.867188 2.25 9.867188 2.234375 C 9.867188 2.222656 9.859375 2.210938 9.855469 2.210938 C 9.847656 2.210938 9.839844 2.195312 9.839844 2.175781 C 9.839844 2.160156 9.835938 2.144531 9.828125 2.144531 C 9.820312 2.144531 9.816406 2.132812 9.816406 2.117188 C 9.816406 2.105469 9.808594 2.09375 9.800781 2.09375 C 9.792969 2.09375 9.789062 2.082031 9.789062 2.066406 C 9.789062 2.050781 9.78125 2.042969 9.777344 2.046875 C 9.769531 2.050781 9.761719 2.042969 9.761719 2.023438 C 9.761719 2.003906 9.757812 1.988281 9.75 1.988281 C 9.742188 1.988281 9.738281 1.984375 9.738281 1.976562 C 9.738281 1.96875 9.71875 1.9375 9.699219 1.90625 C 9.675781 1.875 9.660156 1.84375 9.660156 1.839844 C 9.660156 1.835938 9.648438 1.824219 9.640625 1.8125 C 9.628906 1.800781 9.625 1.785156 9.628906 1.777344 C 9.632812 1.769531 9.632812 1.769531 9.621094 1.773438 C 9.613281 1.777344 9.605469 1.773438 9.605469 1.761719 C 9.605469 1.75 9.601562 1.742188 9.59375 1.742188 C 9.585938 1.742188 9.582031 1.734375 9.582031 1.722656 C 9.582031 1.714844 9.5625 1.6875 9.542969 1.667969 C 9.519531 1.644531 9.503906 1.617188 9.503906 1.609375 C 9.503906 1.601562 9.496094 1.589844 9.488281 1.582031 C 9.476562 1.570312 9.445312 1.53125 9.410156 1.492188 C 9.332031 1.398438 9.0625 1.132812 9.046875 1.132812 C 9.039062 1.132812 9.015625 1.109375 8.988281 1.085938 C 8.964844 1.0625 8.925781 1.03125 8.90625 1.019531 C 8.882812 1.007812 8.867188 0.996094 8.867188 0.988281 C 8.867188 0.980469 8.859375 0.976562 8.851562 0.976562 C 8.84375 0.976562 8.828125 0.964844 8.8125 0.949219 C 8.796875 0.933594 8.777344 0.921875 8.765625 0.921875 C 8.757812 0.921875 8.75 0.917969 8.75 0.90625 C 8.75 0.898438 8.746094 0.898438 8.742188 0.902344 C 8.734375 0.90625 8.726562 0.90625 8.71875 0.898438 C 8.683594 0.871094 8.582031 0.820312 8.574219 0.828125 C 8.570312 0.832031 8.566406 0.828125 8.566406 0.820312 C 8.566406 0.8125 8.554688 0.804688 8.539062 0.804688 C 8.527344 0.804688 8.515625 0.800781 8.515625 0.792969 C 8.515625 0.785156 8.507812 0.78125 8.5 0.78125 C 8.472656 0.78125 8.410156 0.75 8.410156 0.738281 C 8.410156 0.730469 8.394531 0.726562 8.378906 0.726562 C 8.359375 0.726562 8.347656 0.722656 8.347656 0.714844 C 8.347656 0.707031 8.335938 0.703125 8.320312 0.703125 C 8.308594 0.703125 8.292969 0.695312 8.289062 0.6875 C 8.28125 0.683594 8.265625 0.675781 8.246094 0.675781 C 8.230469 0.675781 8.214844 0.671875 8.214844 0.664062 C 8.214844 0.65625 8.199219 0.648438 8.175781 0.648438 C 8.15625 0.648438 8.136719 0.644531 8.136719 0.636719 C 8.136719 0.628906 8.113281 0.625 8.085938 0.625 C 8.058594 0.625 8.035156 0.617188 8.035156 0.609375 C 8.035156 0.605469 8.011719 0.597656 7.980469 0.597656 C 7.953125 0.597656 7.929688 0.59375 7.929688 0.585938 C 7.929688 0.578125 7.902344 0.570312 7.871094 0.570312 C 7.839844 0.570312 7.8125 0.566406 7.804688 0.558594 C 7.800781 0.550781 7.761719 0.546875 7.714844 0.546875 C 7.667969 0.546875 7.632812 0.539062 7.632812 0.535156 C 7.632812 0.527344 7.464844 0.519531 7.203125 0.519531 L 6.773438 0.519531 L 6.773438 0.675781 M 9.460938 4.027344 C 9.457031 4.054688 9.457031 4.035156 9.457031 3.984375 C 9.457031 3.933594 9.457031 3.914062 9.460938 3.933594 C 9.464844 3.957031 9.464844 4 9.460938 4.027344 M 11.328125 4.4375 C 11.328125 4.453125 11.335938 4.46875 11.347656 4.46875 C 11.367188 4.46875 11.367188 4.457031 11.34375 4.429688 C 11.328125 4.40625 11.324219 4.40625 11.328125 4.4375 M 10.679688 4.558594 C 10.683594 4.570312 10.683594 4.589844 10.683594 4.59375 C 10.683594 4.601562 10.691406 4.601562 10.703125 4.589844 C 10.714844 4.578125 10.710938 4.570312 10.695312 4.554688 C 10.675781 4.535156 10.675781 4.535156 10.679688 4.558594 M 11.359375 4.546875 C 11.351562 4.550781 11.347656 4.558594 11.347656 4.566406 C 11.347656 4.578125 11.355469 4.574219 11.363281 4.566406 C 11.371094 4.558594 11.386719 4.554688 11.398438 4.558594 C 11.417969 4.566406 11.417969 4.5625 11.402344 4.550781 C 11.378906 4.535156 11.371094 4.535156 11.359375 4.546875 M 2.125 4.617188 C 2.101562 4.636719 2.082031 4.664062 2.082031 4.671875 C 2.082031 4.679688 2.09375 4.671875 2.105469 4.65625 C 2.117188 4.640625 2.136719 4.628906 2.144531 4.628906 C 2.152344 4.628906 2.164062 4.621094 2.167969 4.609375 C 2.171875 4.597656 2.179688 4.59375 2.183594 4.597656 C 2.191406 4.601562 2.195312 4.597656 2.195312 4.589844 C 2.195312 4.566406 2.171875 4.574219 2.125 4.617188 M 1.371094 4.609375 C 1.363281 4.628906 1.375 4.632812 1.402344 4.617188 C 1.414062 4.609375 1.414062 4.605469 1.398438 4.597656 C 1.390625 4.59375 1.375 4.597656 1.371094 4.609375 M 1.308594 4.714844 C 1.304688 4.726562 1.296875 4.746094 1.292969 4.753906 C 1.289062 4.765625 1.289062 4.769531 1.296875 4.769531 C 1.308594 4.769531 1.339844 4.714844 1.339844 4.699219 C 1.339844 4.683594 1.316406 4.695312 1.308594 4.714844 M 1.988281 4.757812 C 1.980469 4.777344 1.980469 4.785156 1.988281 4.785156 C 1.996094 4.785156 2.003906 4.777344 2.003906 4.765625 C 2.003906 4.753906 2.007812 4.75 2.023438 4.753906 C 2.03125 4.757812 2.039062 4.753906 2.039062 4.746094 C 2.039062 4.722656 2.003906 4.730469 1.988281 4.757812 M 11.492188 4.742188 C 11.492188 4.753906 11.484375 4.757812 11.480469 4.75 C 11.457031 4.738281 11.464844 4.75 11.492188 4.773438 C 11.515625 4.796875 11.515625 4.796875 11.515625 4.769531 C 11.507812 4.742188 11.492188 4.71875 11.492188 4.742188 M 1.914062 4.867188 C 1.882812 4.90625 1.882812 4.917969 1.90625 4.898438 C 1.921875 4.890625 1.933594 4.875 1.933594 4.867188 C 1.933594 4.84375 1.929688 4.84375 1.914062 4.867188 M 11.664062 5.59375 C 11.664062 5.613281 11.671875 5.628906 11.675781 5.628906 C 11.691406 5.628906 11.6875 5.601562 11.675781 5.578125 C 11.664062 5.5625 11.660156 5.566406 11.664062 5.59375 M 1.640625 5.667969 C 1.640625 5.691406 1.644531 5.707031 1.648438 5.703125 C 1.660156 5.6875 1.667969 5.628906 1.65625 5.628906 C 1.648438 5.628906 1.644531 5.648438 1.640625 5.667969 M 1.535156 6.972656 C 1.535156 6.988281 1.574219 7.023438 1.582031 7.015625 C 1.582031 7.015625 1.574219 7 1.558594 6.988281 C 1.546875 6.972656 1.535156 6.96875 1.535156 6.972656 "/>
<path fill="#955AE0" d="M 9.449219 3.992188 C 9.445312 4.042969 9.449219 4.085938 9.453125 4.089844 C 9.457031 4.09375 9.460938 4.050781 9.460938 3.996094 C 9.464844 3.875 9.453125 3.871094 9.449219 3.992188 M 3.570312 4.089844 C 3.609375 4.09375 3.671875 4.09375 3.707031 4.089844 C 3.746094 4.089844 3.714844 4.085938 3.640625 4.085938 C 3.566406 4.085938 3.535156 4.089844 3.570312 4.089844 M 9.539062 4.089844 C 9.578125 4.09375 9.636719 4.09375 9.675781 4.089844 C 9.710938 4.089844 9.683594 4.085938 9.605469 4.085938 C 9.53125 4.085938 9.5 4.089844 9.539062 4.089844 M 3.230469 4.105469 C 3.230469 4.109375 3.242188 4.117188 3.261719 4.117188 C 3.289062 4.121094 3.289062 4.117188 3.277344 4.109375 C 3.253906 4.09375 3.242188 4.09375 3.230469 4.105469 M 10.03125 4.132812 C 10.027344 4.136719 10.039062 4.144531 10.058594 4.144531 C 10.085938 4.144531 10.089844 4.144531 10.074219 4.132812 C 10.050781 4.117188 10.039062 4.117188 10.03125 4.132812 M 1.71875 4.179688 C 1.726562 4.1875 1.71875 4.199219 1.707031 4.207031 C 1.6875 4.222656 1.6875 4.222656 1.710938 4.214844 C 1.742188 4.207031 1.753906 4.171875 1.726562 4.171875 C 1.71875 4.171875 1.714844 4.175781 1.71875 4.179688 M 10.316406 4.25 C 10.320312 4.265625 10.332031 4.277344 10.34375 4.277344 C 10.355469 4.277344 10.355469 4.269531 10.339844 4.25 C 10.328125 4.238281 10.316406 4.226562 10.3125 4.226562 C 10.3125 4.226562 10.316406 4.238281 10.316406 4.25 M 2.5625 4.308594 C 2.554688 4.320312 2.554688 4.324219 2.574219 4.324219 C 2.601562 4.328125 2.609375 4.308594 2.589844 4.296875 C 2.582031 4.292969 2.570312 4.296875 2.5625 4.308594 M 10.398438 4.308594 C 10.398438 4.316406 10.410156 4.328125 10.417969 4.335938 C 10.441406 4.359375 10.441406 4.355469 10.429688 4.324219 C 10.421875 4.304688 10.398438 4.292969 10.398438 4.308594 M 1.558594 4.351562 C 1.558594 4.363281 1.546875 4.382812 1.535156 4.398438 C 1.507812 4.425781 1.511719 4.457031 1.539062 4.429688 C 1.550781 4.421875 1.558594 4.410156 1.558594 4.40625 C 1.554688 4.402344 1.558594 4.390625 1.566406 4.378906 C 1.570312 4.363281 1.574219 4.351562 1.566406 4.347656 C 1.5625 4.339844 1.558594 4.34375 1.558594 4.351562 M 2.453125 4.367188 C 2.4375 4.382812 2.417969 4.390625 2.410156 4.382812 C 2.40625 4.378906 2.40625 4.382812 2.410156 4.390625 C 2.421875 4.410156 2.410156 4.410156 2.378906 4.394531 C 2.351562 4.378906 2.347656 4.390625 2.359375 4.425781 C 2.367188 4.441406 2.378906 4.4375 2.425781 4.40625 C 2.453125 4.386719 2.480469 4.371094 2.484375 4.375 C 2.488281 4.378906 2.492188 4.371094 2.492188 4.363281 C 2.492188 4.335938 2.492188 4.335938 2.453125 4.367188 M 10.542969 4.417969 C 10.53125 4.429688 10.527344 4.433594 10.535156 4.429688 C 10.542969 4.425781 10.558594 4.433594 10.570312 4.449219 L 10.59375 4.476562 L 10.59375 4.449219 C 10.59375 4.429688 10.585938 4.421875 10.570312 4.417969 C 10.554688 4.417969 10.550781 4.417969 10.570312 4.40625 C 10.578125 4.398438 10.582031 4.394531 10.574219 4.394531 C 10.566406 4.394531 10.550781 4.402344 10.542969 4.417969 M 11.300781 4.425781 C 11.300781 4.4375 11.308594 4.441406 11.3125 4.4375 C 11.320312 4.433594 11.324219 4.4375 11.320312 4.449219 C 11.316406 4.460938 11.320312 4.476562 11.328125 4.484375 C 11.339844 4.496094 11.257812 4.5 11.003906 4.496094 C 10.707031 4.496094 10.667969 4.492188 10.652344 4.472656 C 10.640625 4.460938 10.632812 4.457031 10.632812 4.46875 C 10.632812 4.480469 10.625 4.484375 10.617188 4.476562 C 10.609375 4.472656 10.609375 4.476562 10.621094 4.488281 C 10.632812 4.496094 10.644531 4.515625 10.648438 4.53125 C 10.652344 4.542969 10.660156 4.558594 10.671875 4.558594 C 10.683594 4.566406 10.6875 4.5625 10.679688 4.546875 C 10.667969 4.535156 10.671875 4.535156 10.691406 4.546875 C 10.703125 4.558594 10.710938 4.578125 10.707031 4.601562 C 10.703125 4.617188 10.703125 4.628906 10.707031 4.617188 C 10.710938 4.609375 10.71875 4.601562 10.726562 4.601562 C 10.734375 4.601562 10.738281 4.609375 10.738281 4.617188 C 10.734375 4.652344 10.753906 4.695312 10.773438 4.6875 C 10.78125 4.683594 10.792969 4.6875 10.796875 4.695312 C 10.804688 4.703125 10.800781 4.707031 10.792969 4.699219 C 10.78125 4.695312 10.777344 4.699219 10.777344 4.714844 C 10.777344 4.726562 10.785156 4.730469 10.796875 4.726562 C 10.808594 4.722656 10.8125 4.726562 10.808594 4.738281 C 10.804688 4.75 10.808594 4.757812 10.816406 4.757812 C 10.824219 4.757812 10.828125 4.765625 10.824219 4.769531 C 10.816406 4.777344 10.824219 4.785156 10.835938 4.785156 C 10.847656 4.785156 10.855469 4.796875 10.855469 4.8125 C 10.855469 4.828125 10.867188 4.855469 10.882812 4.875 C 10.894531 4.894531 10.90625 4.917969 10.90625 4.929688 C 10.90625 4.941406 10.914062 4.957031 10.921875 4.960938 C 10.925781 4.964844 10.933594 4.984375 10.933594 5.003906 C 10.933594 5.03125 10.9375 5.035156 10.945312 5.019531 C 10.957031 5.003906 10.960938 5.007812 10.960938 5.035156 C 10.964844 5.085938 10.964844 5.09375 10.976562 5.105469 C 10.980469 5.109375 10.984375 5.128906 10.984375 5.144531 C 10.984375 5.160156 10.988281 5.175781 10.996094 5.175781 C 11.003906 5.175781 11.011719 5.199219 11.015625 5.230469 C 11.019531 5.257812 11.03125 5.316406 11.035156 5.355469 C 11.042969 5.394531 11.046875 5.417969 11.050781 5.40625 C 11.058594 5.363281 11.070312 5.59375 11.066406 5.777344 C 11.0625 5.890625 11.058594 5.964844 11.050781 5.960938 C 11.042969 5.957031 11.035156 5.984375 11.035156 6.027344 C 11.035156 6.070312 11.03125 6.09375 11.023438 6.089844 C 11.015625 6.085938 11.011719 6.097656 11.011719 6.121094 C 11.011719 6.144531 11.003906 6.171875 11 6.183594 C 10.992188 6.199219 10.980469 6.222656 10.976562 6.238281 C 10.96875 6.257812 10.949219 6.300781 10.933594 6.335938 C 10.917969 6.367188 10.90625 6.402344 10.90625 6.410156 C 10.90625 6.417969 10.902344 6.417969 10.894531 6.414062 C 10.886719 6.410156 10.882812 6.417969 10.882812 6.433594 C 10.882812 6.449219 10.875 6.460938 10.867188 6.460938 C 10.859375 6.460938 10.855469 6.46875 10.855469 6.480469 C 10.855469 6.492188 10.84375 6.515625 10.828125 6.527344 C 10.8125 6.542969 10.804688 6.550781 10.808594 6.550781 C 10.816406 6.550781 10.808594 6.5625 10.746094 6.632812 C 10.726562 6.652344 10.710938 6.675781 10.710938 6.683594 C 10.710938 6.691406 10.703125 6.695312 10.691406 6.695312 C 10.683594 6.695312 10.675781 6.703125 10.675781 6.710938 C 10.679688 6.71875 10.667969 6.730469 10.648438 6.742188 C 10.632812 6.75 10.625 6.757812 10.628906 6.765625 C 10.632812 6.769531 10.628906 6.773438 10.621094 6.773438 C 10.613281 6.773438 10.585938 6.789062 10.566406 6.8125 C 10.546875 6.835938 10.523438 6.847656 10.519531 6.84375 C 10.511719 6.84375 10.5 6.851562 10.492188 6.863281 C 10.480469 6.878906 10.460938 6.890625 10.449219 6.890625 C 10.4375 6.890625 10.425781 6.894531 10.425781 6.902344 C 10.425781 6.910156 10.414062 6.914062 10.398438 6.914062 C 10.386719 6.914062 10.375 6.921875 10.375 6.925781 C 10.375 6.9375 10.308594 6.96875 10.28125 6.96875 C 10.273438 6.96875 10.257812 6.972656 10.25 6.980469 C 10.242188 6.988281 10.210938 6.992188 10.175781 6.996094 C 10.140625 6.996094 10.113281 7.003906 10.113281 7.007812 C 10.113281 7.015625 8.472656 7.019531 6.46875 7.019531 C 4.460938 7.019531 2.820312 7.015625 2.820312 7.007812 C 2.820312 7.003906 2.789062 6.996094 2.753906 6.996094 C 2.714844 6.992188 2.679688 6.988281 2.671875 6.980469 C 2.664062 6.972656 2.640625 6.96875 2.617188 6.96875 C 2.59375 6.96875 2.574219 6.960938 2.574219 6.953125 C 2.574219 6.949219 2.554688 6.941406 2.535156 6.941406 C 2.511719 6.941406 2.496094 6.9375 2.496094 6.929688 C 2.496094 6.921875 2.488281 6.914062 2.480469 6.914062 C 2.46875 6.914062 2.4375 6.90625 2.40625 6.890625 C 2.378906 6.875 2.347656 6.863281 2.339844 6.863281 C 2.332031 6.863281 2.328125 6.859375 2.328125 6.851562 C 2.328125 6.847656 2.304688 6.832031 2.273438 6.820312 C 2.246094 6.804688 2.222656 6.789062 2.222656 6.785156 C 2.222656 6.777344 2.214844 6.773438 2.203125 6.773438 C 2.191406 6.773438 2.1875 6.765625 2.191406 6.761719 C 2.195312 6.753906 2.1875 6.746094 2.175781 6.746094 C 2.164062 6.746094 2.132812 6.722656 2.105469 6.695312 C 2.078125 6.667969 2.046875 6.644531 2.039062 6.644531 C 2.03125 6.644531 2.027344 6.640625 2.03125 6.636719 C 2.035156 6.628906 2.015625 6.605469 1.988281 6.578125 C 1.960938 6.550781 1.9375 6.519531 1.9375 6.511719 C 1.9375 6.5 1.925781 6.484375 1.910156 6.476562 C 1.898438 6.46875 1.886719 6.453125 1.886719 6.441406 C 1.886719 6.429688 1.878906 6.410156 1.867188 6.402344 C 1.832031 6.359375 1.820312 6.34375 1.828125 6.34375 C 1.832031 6.34375 1.824219 6.324219 1.8125 6.300781 C 1.796875 6.277344 1.789062 6.253906 1.792969 6.25 C 1.792969 6.246094 1.789062 6.238281 1.78125 6.238281 C 1.773438 6.238281 1.769531 6.226562 1.769531 6.214844 C 1.769531 6.199219 1.761719 6.1875 1.757812 6.1875 C 1.75 6.1875 1.738281 6.160156 1.730469 6.121094 C 1.71875 6.085938 1.707031 6.054688 1.699219 6.050781 C 1.695312 6.046875 1.691406 6.023438 1.691406 5.996094 C 1.691406 5.96875 1.683594 5.941406 1.675781 5.933594 C 1.667969 5.925781 1.664062 5.871094 1.660156 5.808594 C 1.660156 5.746094 1.65625 5.699219 1.648438 5.703125 C 1.644531 5.707031 1.636719 5.699219 1.636719 5.6875 C 1.636719 5.675781 1.644531 5.671875 1.652344 5.675781 C 1.664062 5.679688 1.664062 5.675781 1.652344 5.65625 C 1.644531 5.640625 1.640625 5.628906 1.648438 5.628906 C 1.65625 5.628906 1.660156 5.617188 1.660156 5.601562 C 1.660156 5.46875 1.664062 5.433594 1.675781 5.441406 C 1.683594 5.445312 1.691406 5.425781 1.691406 5.386719 C 1.691406 5.347656 1.695312 5.332031 1.703125 5.335938 C 1.714844 5.34375 1.71875 5.335938 1.714844 5.316406 C 1.710938 5.296875 1.71875 5.273438 1.726562 5.257812 C 1.734375 5.242188 1.742188 5.210938 1.75 5.183594 C 1.753906 5.152344 1.765625 5.136719 1.777344 5.136719 C 1.785156 5.136719 1.792969 5.128906 1.789062 5.121094 C 1.785156 5.117188 1.785156 5.105469 1.792969 5.101562 C 1.800781 5.097656 1.808594 5.082031 1.808594 5.070312 C 1.808594 5.054688 1.8125 5.042969 1.820312 5.042969 C 1.832031 5.042969 1.832031 5.039062 1.828125 5.035156 C 1.824219 5.03125 1.828125 5.019531 1.839844 5.007812 C 1.851562 5 1.859375 4.980469 1.859375 4.964844 C 1.859375 4.953125 1.863281 4.941406 1.871094 4.941406 C 1.878906 4.941406 1.886719 4.929688 1.886719 4.917969 C 1.886719 4.910156 1.890625 4.902344 1.898438 4.90625 C 1.902344 4.910156 1.90625 4.902344 1.90625 4.890625 C 1.90625 4.878906 1.914062 4.871094 1.921875 4.871094 C 1.929688 4.875 1.933594 4.871094 1.929688 4.863281 C 1.925781 4.855469 1.9375 4.835938 1.957031 4.816406 C 1.976562 4.796875 1.988281 4.785156 1.984375 4.785156 C 1.980469 4.785156 1.980469 4.773438 1.988281 4.757812 C 1.996094 4.742188 2.015625 4.730469 2.035156 4.730469 C 2.0625 4.730469 2.085938 4.703125 2.082031 4.675781 C 2.078125 4.65625 2.148438 4.589844 2.167969 4.59375 C 2.175781 4.597656 2.183594 4.597656 2.175781 4.589844 C 2.171875 4.582031 2.175781 4.574219 2.1875 4.574219 C 2.21875 4.574219 2.261719 4.539062 2.253906 4.515625 C 2.246094 4.5 2.191406 4.496094 1.890625 4.496094 C 1.59375 4.496094 1.535156 4.496094 1.519531 4.476562 C 1.5 4.453125 1.472656 4.453125 1.464844 4.480469 C 1.460938 4.492188 1.460938 4.496094 1.472656 4.488281 C 1.480469 4.484375 1.484375 4.488281 1.476562 4.496094 C 1.472656 4.503906 1.460938 4.511719 1.449219 4.511719 C 1.4375 4.511719 1.429688 4.519531 1.429688 4.53125 C 1.429688 4.542969 1.425781 4.546875 1.417969 4.542969 C 1.410156 4.539062 1.40625 4.542969 1.410156 4.554688 C 1.414062 4.566406 1.410156 4.578125 1.402344 4.582031 C 1.390625 4.589844 1.390625 4.59375 1.40625 4.601562 C 1.414062 4.609375 1.414062 4.613281 1.394531 4.621094 C 1.378906 4.625 1.363281 4.636719 1.363281 4.648438 C 1.363281 4.660156 1.359375 4.664062 1.351562 4.660156 C 1.34375 4.65625 1.339844 4.664062 1.339844 4.679688 C 1.339844 4.710938 1.3125 4.769531 1.296875 4.769531 C 1.292969 4.769531 1.285156 4.785156 1.285156 4.800781 C 1.285156 4.824219 1.285156 4.824219 1.273438 4.808594 C 1.265625 4.792969 1.261719 4.796875 1.261719 4.816406 C 1.261719 4.851562 1.230469 4.917969 1.21875 4.90625 C 1.210938 4.902344 1.210938 4.910156 1.210938 4.929688 C 1.210938 4.945312 1.203125 4.964844 1.199219 4.972656 C 1.195312 4.976562 1.1875 4.996094 1.1875 5.015625 C 1.183594 5.035156 1.175781 5.050781 1.167969 5.054688 C 1.164062 5.058594 1.15625 5.074219 1.15625 5.089844 C 1.15625 5.109375 1.152344 5.121094 1.148438 5.121094 C 1.140625 5.121094 1.136719 5.136719 1.136719 5.15625 C 1.132812 5.175781 1.128906 5.195312 1.121094 5.199219 C 1.113281 5.199219 1.105469 5.226562 1.105469 5.257812 C 1.105469 5.296875 1.097656 5.316406 1.089844 5.316406 C 1.078125 5.316406 1.078125 5.320312 1.09375 5.328125 C 1.101562 5.335938 1.105469 5.34375 1.097656 5.34375 C 1.089844 5.34375 1.082031 5.375 1.082031 5.417969 C 1.078125 5.457031 1.070312 5.5 1.066406 5.503906 C 1.050781 5.519531 1.050781 5.542969 1.066406 5.53125 C 1.074219 5.527344 1.078125 5.53125 1.078125 5.539062 C 1.078125 5.542969 1.074219 5.550781 1.066406 5.550781 C 1.050781 5.550781 1.046875 5.867188 1.066406 5.875 C 1.070312 5.878906 1.078125 5.925781 1.082031 5.976562 C 1.082031 6.03125 1.089844 6.074219 1.09375 6.078125 C 1.101562 6.082031 1.105469 6.105469 1.105469 6.128906 C 1.105469 6.15625 1.109375 6.175781 1.117188 6.175781 C 1.125 6.175781 1.132812 6.195312 1.132812 6.21875 C 1.132812 6.246094 1.136719 6.269531 1.144531 6.273438 C 1.152344 6.277344 1.15625 6.296875 1.15625 6.320312 C 1.15625 6.34375 1.164062 6.355469 1.171875 6.351562 C 1.175781 6.347656 1.183594 6.355469 1.183594 6.375 C 1.183594 6.394531 1.1875 6.410156 1.195312 6.410156 C 1.203125 6.410156 1.210938 6.421875 1.210938 6.433594 C 1.210938 6.449219 1.214844 6.464844 1.222656 6.46875 C 1.230469 6.472656 1.234375 6.488281 1.234375 6.507812 C 1.234375 6.523438 1.242188 6.539062 1.246094 6.539062 C 1.253906 6.539062 1.261719 6.550781 1.261719 6.5625 C 1.261719 6.578125 1.265625 6.589844 1.269531 6.59375 C 1.277344 6.59375 1.292969 6.625 1.3125 6.660156 C 1.328125 6.691406 1.347656 6.722656 1.351562 6.722656 C 1.359375 6.722656 1.367188 6.730469 1.371094 6.742188 C 1.382812 6.78125 1.4375 6.851562 1.503906 6.925781 C 1.523438 6.941406 1.53125 6.953125 1.527344 6.953125 C 1.523438 6.953125 1.53125 6.96875 1.550781 6.980469 C 1.570312 6.996094 1.585938 7.015625 1.585938 7.027344 C 1.585938 7.039062 1.59375 7.046875 1.605469 7.046875 C 1.613281 7.046875 1.625 7.058594 1.632812 7.070312 C 1.636719 7.085938 1.648438 7.101562 1.664062 7.105469 C 1.675781 7.109375 1.691406 7.121094 1.695312 7.132812 C 1.699219 7.140625 1.710938 7.148438 1.71875 7.148438 C 1.730469 7.148438 1.753906 7.167969 1.769531 7.1875 C 1.785156 7.210938 1.808594 7.226562 1.820312 7.226562 C 1.828125 7.226562 1.847656 7.238281 1.859375 7.25 C 1.867188 7.261719 1.886719 7.277344 1.898438 7.277344 C 1.910156 7.28125 1.921875 7.289062 1.929688 7.300781 C 1.933594 7.3125 1.945312 7.320312 1.957031 7.320312 C 2.003906 7.320312 2.039062 7.359375 2.039062 7.410156 C 2.039062 7.4375 2.046875 7.464844 2.054688 7.46875 C 2.0625 7.472656 2.066406 7.496094 2.066406 7.519531 C 2.066406 7.542969 2.074219 7.566406 2.078125 7.574219 C 2.085938 7.578125 2.09375 7.601562 2.09375 7.628906 C 2.09375 7.65625 2.097656 7.683594 2.105469 7.691406 C 2.113281 7.695312 2.117188 7.726562 2.121094 7.757812 C 2.121094 7.789062 2.128906 7.8125 2.132812 7.8125 C 2.140625 7.8125 2.144531 7.835938 2.144531 7.863281 C 2.144531 7.894531 2.152344 7.917969 2.15625 7.917969 C 2.164062 7.917969 2.171875 7.941406 2.171875 7.976562 C 2.171875 8.007812 2.175781 8.035156 2.183594 8.035156 C 2.195312 8.035156 2.199219 8.066406 2.21875 8.21875 C 2.222656 8.253906 2.230469 8.28125 2.238281 8.28125 C 2.242188 8.28125 2.25 8.304688 2.25 8.332031 C 2.25 8.363281 2.253906 8.386719 2.261719 8.386719 C 2.269531 8.386719 2.273438 8.414062 2.273438 8.449219 C 2.273438 8.484375 2.28125 8.515625 2.289062 8.515625 C 2.296875 8.515625 2.300781 8.539062 2.300781 8.566406 C 2.300781 8.59375 2.308594 8.617188 2.3125 8.617188 C 2.320312 8.617188 2.328125 8.648438 2.328125 8.6875 C 2.328125 8.734375 2.332031 8.75 2.339844 8.734375 C 2.347656 8.722656 2.351562 8.734375 2.351562 8.777344 C 2.351562 8.808594 2.359375 8.839844 2.367188 8.847656 C 2.371094 8.855469 2.378906 8.882812 2.378906 8.914062 C 2.382812 8.945312 2.390625 8.96875 2.394531 8.96875 C 2.398438 8.96875 2.40625 8.992188 2.40625 9.023438 C 2.40625 9.050781 2.410156 9.074219 2.417969 9.074219 C 2.421875 9.074219 2.429688 9.109375 2.433594 9.148438 C 2.4375 9.191406 2.445312 9.238281 2.449219 9.257812 C 2.453125 9.273438 2.460938 9.3125 2.464844 9.339844 C 2.46875 9.367188 2.476562 9.402344 2.484375 9.417969 C 2.496094 9.445312 2.503906 9.496094 2.515625 9.597656 C 2.523438 9.632812 2.53125 9.660156 2.535156 9.660156 C 2.539062 9.660156 2.546875 9.683594 2.550781 9.714844 C 2.566406 9.820312 2.578125 9.875 2.585938 9.886719 C 2.59375 9.894531 2.601562 9.925781 2.601562 9.957031 C 2.605469 9.984375 2.609375 10.011719 2.617188 10.011719 C 2.621094 10.011719 2.625 10.035156 2.625 10.0625 C 2.625 10.089844 2.632812 10.113281 2.640625 10.113281 C 2.644531 10.113281 2.652344 10.144531 2.652344 10.179688 C 2.652344 10.214844 2.65625 10.242188 2.664062 10.242188 C 2.671875 10.242188 2.679688 10.265625 2.679688 10.296875 C 2.679688 10.324219 2.683594 10.347656 2.691406 10.347656 C 2.699219 10.347656 2.703125 10.375 2.703125 10.40625 C 2.703125 10.4375 2.710938 10.46875 2.71875 10.472656 C 2.722656 10.476562 2.730469 10.5 2.730469 10.523438 C 2.730469 10.550781 2.734375 10.570312 2.742188 10.570312 C 2.75 10.570312 2.757812 10.597656 2.757812 10.632812 C 2.757812 10.667969 2.761719 10.699219 2.769531 10.699219 C 2.773438 10.699219 2.78125 10.722656 2.785156 10.753906 C 2.804688 10.886719 2.8125 10.921875 2.824219 10.925781 C 2.828125 10.929688 2.835938 10.957031 2.835938 10.984375 C 2.835938 11.011719 2.839844 11.039062 2.847656 11.042969 C 2.855469 11.046875 2.859375 11.074219 2.859375 11.101562 C 2.859375 11.132812 2.867188 11.152344 2.871094 11.152344 C 2.878906 11.152344 2.886719 11.183594 2.886719 11.21875 C 2.886719 11.253906 2.890625 11.285156 2.898438 11.285156 C 2.90625 11.285156 2.910156 11.304688 2.910156 11.328125 C 2.910156 11.351562 2.917969 11.378906 2.925781 11.382812 C 2.933594 11.386719 2.9375 11.417969 2.9375 11.453125 C 2.9375 11.492188 2.941406 11.515625 2.949219 11.511719 C 2.957031 11.507812 2.964844 11.535156 2.96875 11.574219 C 2.980469 11.667969 3.007812 11.800781 3.019531 11.8125 C 3.023438 11.816406 3.027344 11.832031 3.027344 11.84375 C 3.027344 11.863281 3.054688 11.917969 3.097656 12.003906 C 3.105469 12.019531 3.125 12.054688 3.136719 12.082031 C 3.152344 12.113281 3.179688 12.152344 3.199219 12.167969 C 3.21875 12.1875 3.234375 12.207031 3.230469 12.210938 C 3.21875 12.21875 3.480469 12.480469 3.5 12.480469 C 3.507812 12.480469 3.523438 12.492188 3.53125 12.507812 C 3.542969 12.519531 3.554688 12.53125 3.5625 12.53125 C 3.570312 12.53125 3.589844 12.542969 3.605469 12.558594 C 3.621094 12.574219 3.640625 12.585938 3.648438 12.585938 C 3.660156 12.585938 3.664062 12.589844 3.664062 12.597656 C 3.664062 12.605469 3.671875 12.609375 3.683594 12.609375 C 3.707031 12.609375 3.769531 12.640625 3.769531 12.652344 C 3.769531 12.65625 3.777344 12.660156 3.789062 12.660156 C 3.800781 12.660156 3.820312 12.667969 3.832031 12.671875 C 3.875 12.699219 3.996094 12.726562 4.042969 12.726562 C 4.070312 12.726562 4.097656 12.734375 4.101562 12.738281 C 4.113281 12.757812 8.886719 12.757812 8.898438 12.738281 C 8.902344 12.734375 8.925781 12.726562 8.953125 12.726562 C 9 12.726562 9.125 12.695312 9.167969 12.671875 C 9.179688 12.667969 9.199219 12.660156 9.210938 12.660156 C 9.222656 12.660156 9.230469 12.65625 9.230469 12.652344 C 9.230469 12.640625 9.292969 12.609375 9.316406 12.609375 C 9.328125 12.609375 9.335938 12.605469 9.335938 12.597656 C 9.335938 12.589844 9.339844 12.585938 9.351562 12.585938 C 9.359375 12.585938 9.378906 12.574219 9.394531 12.558594 C 9.410156 12.542969 9.429688 12.53125 9.4375 12.53125 C 9.445312 12.53125 9.457031 12.519531 9.46875 12.507812 C 9.476562 12.492188 9.492188 12.480469 9.5 12.480469 C 9.519531 12.480469 9.761719 12.242188 9.765625 12.21875 C 9.769531 12.207031 9.785156 12.1875 9.800781 12.167969 C 9.820312 12.148438 9.847656 12.113281 9.863281 12.082031 C 9.875 12.054688 9.894531 12.019531 9.902344 12.003906 C 9.945312 11.917969 9.972656 11.863281 9.972656 11.84375 C 9.972656 11.832031 9.976562 11.816406 9.980469 11.8125 C 9.992188 11.800781 10.019531 11.667969 10.03125 11.574219 C 10.035156 11.535156 10.042969 11.507812 10.050781 11.511719 C 10.058594 11.515625 10.0625 11.488281 10.0625 11.453125 C 10.0625 11.417969 10.066406 11.386719 10.074219 11.386719 C 10.082031 11.386719 10.089844 11.363281 10.089844 11.335938 C 10.089844 11.308594 10.09375 11.285156 10.101562 11.285156 C 10.109375 11.285156 10.113281 11.253906 10.113281 11.21875 C 10.113281 11.183594 10.121094 11.152344 10.128906 11.152344 C 10.132812 11.152344 10.140625 11.128906 10.140625 11.101562 C 10.140625 11.074219 10.144531 11.050781 10.152344 11.050781 C 10.160156 11.050781 10.164062 11.023438 10.164062 10.992188 C 10.164062 10.960938 10.171875 10.929688 10.179688 10.925781 C 10.1875 10.921875 10.191406 10.890625 10.191406 10.859375 C 10.191406 10.824219 10.195312 10.804688 10.203125 10.808594 C 10.214844 10.8125 10.21875 10.792969 10.21875 10.757812 C 10.21875 10.726562 10.222656 10.699219 10.230469 10.699219 C 10.238281 10.699219 10.242188 10.667969 10.242188 10.632812 C 10.242188 10.597656 10.25 10.570312 10.257812 10.570312 C 10.265625 10.570312 10.269531 10.550781 10.269531 10.523438 C 10.269531 10.5 10.277344 10.476562 10.28125 10.472656 C 10.289062 10.46875 10.296875 10.4375 10.296875 10.40625 C 10.296875 10.375 10.300781 10.347656 10.308594 10.34375 C 10.320312 10.335938 10.324219 10.300781 10.34375 10.167969 C 10.347656 10.140625 10.355469 10.113281 10.363281 10.113281 C 10.367188 10.113281 10.375 10.085938 10.375 10.046875 C 10.375 10.007812 10.378906 9.984375 10.386719 9.992188 C 10.394531 9.996094 10.398438 9.976562 10.398438 9.949219 C 10.398438 9.921875 10.40625 9.894531 10.410156 9.886719 C 10.417969 9.878906 10.425781 9.851562 10.429688 9.820312 C 10.433594 9.792969 10.445312 9.742188 10.453125 9.703125 C 10.460938 9.667969 10.46875 9.617188 10.472656 9.59375 C 10.476562 9.570312 10.484375 9.535156 10.492188 9.523438 C 10.496094 9.507812 10.503906 9.476562 10.507812 9.449219 C 10.511719 9.425781 10.519531 9.390625 10.523438 9.371094 C 10.53125 9.328125 10.546875 9.265625 10.550781 9.242188 C 10.554688 9.230469 10.558594 9.191406 10.5625 9.148438 C 10.570312 9.109375 10.578125 9.074219 10.582031 9.074219 C 10.589844 9.074219 10.59375 9.050781 10.59375 9.023438 C 10.59375 8.992188 10.601562 8.96875 10.609375 8.96875 C 10.613281 8.96875 10.621094 8.945312 10.621094 8.910156 C 10.621094 8.878906 10.625 8.851562 10.632812 8.851562 C 10.640625 8.851562 10.648438 8.824219 10.648438 8.789062 C 10.648438 8.746094 10.652344 8.722656 10.660156 8.730469 C 10.667969 8.734375 10.671875 8.714844 10.671875 8.679688 C 10.671875 8.644531 10.679688 8.617188 10.6875 8.617188 C 10.691406 8.617188 10.699219 8.589844 10.699219 8.554688 C 10.699219 8.519531 10.703125 8.488281 10.710938 8.488281 C 10.71875 8.488281 10.726562 8.460938 10.726562 8.429688 C 10.726562 8.394531 10.730469 8.375 10.738281 8.378906 C 10.746094 8.382812 10.75 8.363281 10.75 8.328125 C 10.75 8.296875 10.757812 8.265625 10.765625 8.261719 C 10.769531 8.257812 10.777344 8.230469 10.777344 8.203125 C 10.777344 8.175781 10.78125 8.148438 10.789062 8.144531 C 10.796875 8.140625 10.804688 8.113281 10.804688 8.085938 C 10.804688 8.058594 10.808594 8.035156 10.816406 8.035156 C 10.824219 8.035156 10.828125 8.007812 10.828125 7.976562 C 10.828125 7.941406 10.835938 7.917969 10.84375 7.917969 C 10.847656 7.917969 10.855469 7.894531 10.855469 7.867188 C 10.855469 7.835938 10.859375 7.8125 10.867188 7.804688 C 10.875 7.800781 10.882812 7.777344 10.882812 7.746094 C 10.882812 7.71875 10.886719 7.695312 10.894531 7.691406 C 10.902344 7.683594 10.90625 7.660156 10.90625 7.628906 C 10.90625 7.601562 10.914062 7.578125 10.921875 7.578125 C 10.925781 7.578125 10.933594 7.550781 10.933594 7.515625 C 10.933594 7.476562 10.9375 7.449219 10.941406 7.449219 C 10.949219 7.449219 10.957031 7.425781 10.957031 7.402344 C 10.957031 7.375 10.964844 7.347656 10.96875 7.34375 C 10.972656 7.339844 10.980469 7.320312 10.984375 7.300781 C 10.984375 7.277344 11.007812 7.242188 11.042969 7.207031 C 11.074219 7.175781 11.101562 7.148438 11.101562 7.144531 C 11.101562 7.140625 11.125 7.109375 11.15625 7.078125 C 11.222656 7.015625 11.257812 6.972656 11.257812 6.960938 C 11.257812 6.957031 11.277344 6.9375 11.296875 6.914062 C 11.320312 6.894531 11.335938 6.871094 11.335938 6.859375 C 11.335938 6.847656 11.34375 6.839844 11.347656 6.839844 C 11.355469 6.839844 11.363281 6.828125 11.363281 6.820312 C 11.363281 6.808594 11.367188 6.800781 11.375 6.800781 C 11.382812 6.800781 11.386719 6.789062 11.386719 6.78125 C 11.386719 6.769531 11.394531 6.761719 11.402344 6.761719 C 11.40625 6.761719 11.414062 6.75 11.414062 6.742188 C 11.414062 6.714844 11.449219 6.65625 11.457031 6.664062 C 11.460938 6.667969 11.464844 6.660156 11.464844 6.640625 C 11.464844 6.625 11.476562 6.597656 11.488281 6.582031 C 11.507812 6.5625 11.59375 6.332031 11.601562 6.277344 C 11.601562 6.269531 11.609375 6.253906 11.613281 6.242188 C 11.617188 6.234375 11.621094 6.222656 11.617188 6.214844 C 11.609375 6.207031 11.613281 6.195312 11.617188 6.183594 C 11.632812 6.164062 11.636719 6.128906 11.640625 6.066406 C 11.640625 6.039062 11.644531 6.019531 11.652344 6.019531 C 11.65625 6.019531 11.660156 5.957031 11.664062 5.878906 C 11.667969 5.800781 11.675781 5.714844 11.679688 5.683594 C 11.683594 5.652344 11.683594 5.628906 11.675781 5.628906 C 11.667969 5.628906 11.660156 5.625 11.664062 5.621094 C 11.667969 5.578125 11.660156 5.289062 11.652344 5.296875 C 11.644531 5.300781 11.640625 5.277344 11.640625 5.25 C 11.640625 5.222656 11.632812 5.191406 11.625 5.183594 C 11.617188 5.175781 11.613281 5.148438 11.617188 5.125 C 11.617188 5.105469 11.613281 5.070312 11.601562 5.050781 C 11.589844 5.03125 11.585938 5.003906 11.589844 4.988281 C 11.597656 4.96875 11.59375 4.964844 11.578125 4.96875 C 11.5625 4.976562 11.558594 4.96875 11.566406 4.945312 C 11.566406 4.929688 11.5625 4.90625 11.554688 4.898438 C 11.542969 4.890625 11.539062 4.875 11.539062 4.863281 C 11.542969 4.855469 11.535156 4.832031 11.523438 4.816406 C 11.511719 4.796875 11.507812 4.777344 11.511719 4.769531 C 11.515625 4.765625 11.511719 4.761719 11.5 4.765625 C 11.488281 4.769531 11.476562 4.765625 11.472656 4.757812 C 11.464844 4.746094 11.46875 4.746094 11.476562 4.75 C 11.503906 4.765625 11.492188 4.695312 11.464844 4.675781 C 11.453125 4.667969 11.445312 4.65625 11.449219 4.652344 C 11.472656 4.625 11.390625 4.542969 11.363281 4.566406 C 11.347656 4.578125 11.347656 4.578125 11.351562 4.5625 C 11.355469 4.550781 11.371094 4.542969 11.390625 4.546875 C 11.40625 4.546875 11.414062 4.546875 11.402344 4.542969 C 11.394531 4.539062 11.386719 4.523438 11.386719 4.507812 C 11.386719 4.480469 11.386719 4.480469 11.375 4.503906 C 11.367188 4.519531 11.363281 4.523438 11.363281 4.515625 C 11.359375 4.511719 11.359375 4.5 11.355469 4.492188 C 11.347656 4.441406 11.300781 4.386719 11.300781 4.425781 M 2.308594 4.449219 C 2.304688 4.464844 2.296875 4.472656 2.28125 4.46875 C 2.253906 4.457031 2.246094 4.480469 2.269531 4.5 C 2.28125 4.507812 2.289062 4.507812 2.289062 4.5 C 2.289062 4.492188 2.296875 4.484375 2.308594 4.484375 C 2.316406 4.484375 2.328125 4.480469 2.328125 4.472656 C 2.328125 4.464844 2.332031 4.453125 2.335938 4.441406 C 2.339844 4.429688 2.335938 4.421875 2.328125 4.421875 C 2.324219 4.421875 2.3125 4.433594 2.308594 4.449219 M 10.296875 7.605469 C 10.296875 7.617188 10.292969 7.632812 10.285156 7.636719 C 10.28125 7.640625 10.273438 7.667969 10.273438 7.699219 C 10.269531 7.730469 10.261719 7.757812 10.257812 7.757812 C 10.25 7.761719 10.242188 7.789062 10.242188 7.820312 C 10.242188 7.851562 10.238281 7.878906 10.230469 7.882812 C 10.222656 7.890625 10.21875 7.914062 10.21875 7.9375 C 10.21875 7.960938 10.214844 7.984375 10.207031 7.988281 C 10.203125 7.992188 10.195312 8.015625 10.195312 8.042969 C 10.191406 8.070312 10.183594 8.097656 10.179688 8.105469 C 10.171875 8.113281 10.164062 8.140625 10.164062 8.167969 C 10.164062 8.195312 10.160156 8.214844 10.15625 8.214844 C 10.148438 8.214844 10.144531 8.238281 10.140625 8.265625 C 10.140625 8.292969 10.136719 8.320312 10.136719 8.328125 C 10.136719 8.339844 10.128906 8.347656 10.125 8.347656 C 10.117188 8.347656 10.113281 8.371094 10.113281 8.398438 C 10.113281 8.425781 10.109375 8.449219 10.105469 8.449219 C 10.097656 8.449219 10.09375 8.476562 10.089844 8.511719 C 10.089844 8.546875 10.082031 8.578125 10.074219 8.585938 C 10.0625 8.601562 10.046875 8.671875 10.042969 8.738281 C 10.042969 8.765625 10.039062 8.789062 10.03125 8.796875 C 10.027344 8.800781 10.023438 8.828125 10.023438 8.855469 C 10.023438 8.882812 10.015625 8.90625 10.011719 8.910156 C 10.003906 8.914062 9.996094 8.945312 9.996094 8.976562 C 9.996094 9.015625 9.992188 9.035156 9.984375 9.027344 C 9.976562 9.023438 9.972656 9.042969 9.972656 9.074219 C 9.972656 9.101562 9.964844 9.128906 9.957031 9.132812 C 9.949219 9.136719 9.945312 9.167969 9.945312 9.199219 C 9.945312 9.230469 9.9375 9.257812 9.933594 9.257812 C 9.925781 9.257812 9.917969 9.28125 9.917969 9.308594 C 9.917969 9.335938 9.914062 9.359375 9.90625 9.359375 C 9.898438 9.359375 9.894531 9.390625 9.894531 9.425781 C 9.894531 9.460938 9.886719 9.488281 9.878906 9.488281 C 9.871094 9.488281 9.867188 9.511719 9.867188 9.542969 C 9.867188 9.570312 9.859375 9.59375 9.855469 9.59375 C 9.847656 9.59375 9.839844 9.621094 9.839844 9.652344 C 9.839844 9.683594 9.835938 9.710938 9.828125 9.710938 C 9.820312 9.710938 9.816406 9.734375 9.816406 9.761719 C 9.816406 9.789062 9.808594 9.816406 9.800781 9.820312 C 9.792969 9.824219 9.789062 9.855469 9.789062 9.886719 C 9.789062 9.917969 9.78125 9.945312 9.777344 9.945312 C 9.769531 9.945312 9.761719 9.96875 9.761719 9.996094 C 9.761719 10.023438 9.757812 10.050781 9.75 10.054688 C 9.742188 10.058594 9.738281 10.089844 9.738281 10.121094 C 9.738281 10.152344 9.730469 10.179688 9.722656 10.179688 C 9.71875 10.179688 9.710938 10.203125 9.710938 10.230469 C 9.710938 10.257812 9.707031 10.285156 9.699219 10.289062 C 9.691406 10.292969 9.683594 10.320312 9.683594 10.347656 C 9.683594 10.378906 9.679688 10.398438 9.671875 10.398438 C 9.664062 10.398438 9.660156 10.421875 9.660156 10.453125 C 9.660156 10.480469 9.652344 10.503906 9.648438 10.503906 C 9.644531 10.503906 9.636719 10.53125 9.632812 10.566406 C 9.632812 10.597656 9.625 10.628906 9.621094 10.632812 C 9.609375 10.640625 9.601562 10.691406 9.585938 10.800781 C 9.582031 10.832031 9.574219 10.855469 9.566406 10.855469 C 9.5625 10.855469 9.554688 10.882812 9.550781 10.917969 C 9.542969 11.003906 9.527344 11.066406 9.515625 11.09375 C 9.503906 11.125 9.476562 11.277344 9.46875 11.367188 C 9.464844 11.398438 9.457031 11.421875 9.449219 11.417969 C 9.441406 11.414062 9.4375 11.441406 9.4375 11.476562 C 9.4375 11.515625 9.433594 11.542969 9.425781 11.542969 C 9.417969 11.542969 9.410156 11.5625 9.410156 11.582031 C 9.410156 11.605469 9.40625 11.621094 9.398438 11.621094 C 9.390625 11.621094 9.386719 11.632812 9.386719 11.648438 C 9.386719 11.671875 9.363281 11.722656 9.347656 11.738281 C 9.34375 11.742188 9.332031 11.761719 9.320312 11.78125 C 9.3125 11.800781 9.292969 11.828125 9.28125 11.84375 C 9.265625 11.855469 9.257812 11.871094 9.257812 11.875 C 9.257812 11.890625 9.160156 11.972656 9.144531 11.972656 C 9.136719 11.972656 9.125 11.984375 9.113281 12 C 9.101562 12.011719 9.085938 12.023438 9.078125 12.023438 C 9.070312 12.023438 9.0625 12.03125 9.0625 12.039062 C 9.0625 12.046875 9.050781 12.050781 9.042969 12.050781 C 9.03125 12.050781 9.023438 12.058594 9.023438 12.0625 C 9.023438 12.070312 9.011719 12.078125 8.996094 12.078125 C 8.980469 12.078125 8.96875 12.082031 8.96875 12.089844 C 8.96875 12.097656 8.957031 12.101562 8.9375 12.101562 C 8.917969 12.101562 8.90625 12.109375 8.90625 12.117188 C 8.90625 12.125 8.882812 12.128906 8.851562 12.128906 C 8.824219 12.128906 8.800781 12.136719 8.800781 12.140625 C 8.800781 12.152344 8.023438 12.15625 6.5 12.15625 C 4.976562 12.15625 4.199219 12.152344 4.199219 12.140625 C 4.199219 12.136719 4.179688 12.128906 4.160156 12.128906 C 4.136719 12.128906 4.121094 12.125 4.121094 12.117188 C 4.121094 12.109375 4.105469 12.101562 4.082031 12.101562 C 4.0625 12.101562 4.042969 12.097656 4.039062 12.09375 C 4.039062 12.085938 4.007812 12.070312 3.972656 12.050781 C 3.9375 12.035156 3.898438 12.007812 3.886719 11.996094 C 3.875 11.984375 3.859375 11.972656 3.847656 11.972656 C 3.832031 11.972656 3.746094 11.890625 3.742188 11.871094 C 3.742188 11.867188 3.726562 11.84375 3.703125 11.816406 C 3.683594 11.792969 3.664062 11.765625 3.664062 11.753906 C 3.664062 11.746094 3.660156 11.738281 3.65625 11.738281 C 3.644531 11.738281 3.613281 11.675781 3.613281 11.644531 C 3.613281 11.632812 3.609375 11.621094 3.601562 11.621094 C 3.59375 11.621094 3.589844 11.605469 3.589844 11.582031 C 3.589844 11.5625 3.582031 11.542969 3.574219 11.542969 C 3.566406 11.542969 3.5625 11.519531 3.5625 11.484375 C 3.5625 11.453125 3.554688 11.425781 3.550781 11.421875 C 3.542969 11.417969 3.535156 11.398438 3.535156 11.378906 C 3.535156 11.359375 3.527344 11.300781 3.515625 11.25 C 3.507812 11.203125 3.496094 11.144531 3.492188 11.121094 C 3.476562 11.035156 3.460938 10.976562 3.453125 10.964844 C 3.449219 10.957031 3.445312 10.929688 3.441406 10.902344 C 3.441406 10.875 3.433594 10.851562 3.429688 10.847656 C 3.421875 10.84375 3.417969 10.816406 3.417969 10.78125 C 3.417969 10.75 3.414062 10.726562 3.40625 10.726562 C 3.398438 10.726562 3.394531 10.703125 3.394531 10.671875 C 3.394531 10.644531 3.386719 10.617188 3.378906 10.613281 C 3.371094 10.609375 3.367188 10.582031 3.367188 10.554688 C 3.367188 10.527344 3.363281 10.503906 3.355469 10.5 C 3.347656 10.496094 3.339844 10.464844 3.335938 10.4375 C 3.332031 10.40625 3.324219 10.355469 3.320312 10.328125 C 3.316406 10.300781 3.308594 10.269531 3.300781 10.265625 C 3.292969 10.257812 3.289062 10.226562 3.289062 10.195312 C 3.289062 10.164062 3.28125 10.140625 3.277344 10.140625 C 3.269531 10.140625 3.261719 10.113281 3.261719 10.082031 C 3.261719 10.050781 3.257812 10.023438 3.25 10.023438 C 3.242188 10.023438 3.238281 9.996094 3.238281 9.964844 C 3.238281 9.933594 3.230469 9.90625 3.222656 9.90625 C 3.21875 9.90625 3.210938 9.878906 3.210938 9.847656 C 3.210938 9.816406 3.207031 9.789062 3.199219 9.789062 C 3.191406 9.789062 3.183594 9.761719 3.183594 9.730469 C 3.183594 9.699219 3.179688 9.671875 3.171875 9.671875 C 3.164062 9.671875 3.160156 9.644531 3.160156 9.613281 C 3.160156 9.582031 3.152344 9.554688 3.144531 9.554688 C 3.140625 9.554688 3.132812 9.527344 3.132812 9.496094 C 3.132812 9.464844 3.128906 9.4375 3.121094 9.4375 C 3.113281 9.4375 3.105469 9.414062 3.105469 9.386719 C 3.105469 9.355469 3.101562 9.335938 3.09375 9.335938 C 3.085938 9.335938 3.082031 9.304688 3.082031 9.269531 C 3.082031 9.234375 3.074219 9.203125 3.066406 9.203125 C 3.0625 9.203125 3.054688 9.175781 3.054688 9.144531 C 3.054688 9.113281 3.050781 9.085938 3.042969 9.085938 C 3.035156 9.085938 3.027344 9.058594 3.027344 9.027344 C 3.027344 8.992188 3.023438 8.972656 3.015625 8.976562 C 3.007812 8.980469 3.003906 8.960938 3.003906 8.917969 C 3.003906 8.882812 2.996094 8.851562 2.992188 8.851562 C 2.984375 8.851562 2.976562 8.824219 2.972656 8.792969 C 2.96875 8.757812 2.960938 8.710938 2.957031 8.683594 C 2.953125 8.660156 2.949219 8.613281 2.941406 8.578125 C 2.9375 8.546875 2.929688 8.515625 2.921875 8.507812 C 2.917969 8.503906 2.910156 8.480469 2.910156 8.457031 C 2.910156 8.433594 2.90625 8.410156 2.898438 8.402344 C 2.894531 8.398438 2.886719 8.363281 2.882812 8.332031 C 2.882812 8.300781 2.875 8.269531 2.871094 8.269531 C 2.867188 8.265625 2.859375 8.238281 2.859375 8.210938 C 2.855469 8.1875 2.851562 8.164062 2.847656 8.164062 C 2.84375 8.164062 2.835938 8.136719 2.835938 8.101562 C 2.835938 8.066406 2.828125 8.039062 2.820312 8.035156 C 2.8125 8.035156 2.808594 8.003906 2.808594 7.972656 C 2.808594 7.9375 2.804688 7.917969 2.796875 7.921875 C 2.785156 7.929688 2.78125 7.910156 2.78125 7.875 C 2.78125 7.839844 2.777344 7.8125 2.769531 7.8125 C 2.761719 7.808594 2.757812 7.78125 2.753906 7.75 C 2.753906 7.722656 2.746094 7.695312 2.742188 7.695312 C 2.734375 7.695312 2.730469 7.675781 2.730469 7.652344 L 2.730469 7.605469 L 6.460938 7.605469 C 8.933594 7.605469 10.191406 7.601562 10.199219 7.59375 C 10.214844 7.566406 10.296875 7.578125 10.296875 7.605469 M 8.441406 8.378906 C 8.445312 8.382812 8.441406 8.40625 8.429688 8.433594 C 8.421875 8.457031 8.414062 8.476562 8.414062 8.480469 C 8.417969 8.503906 8.390625 8.648438 8.382812 8.652344 C 8.378906 8.65625 8.371094 8.683594 8.371094 8.71875 C 8.371094 8.75 8.367188 8.773438 8.359375 8.773438 C 8.351562 8.773438 8.347656 8.796875 8.347656 8.828125 C 8.347656 8.855469 8.339844 8.878906 8.332031 8.878906 C 8.324219 8.878906 8.320312 8.898438 8.320312 8.921875 C 8.320312 8.949219 8.3125 8.972656 8.308594 8.976562 C 8.300781 8.980469 8.292969 9.007812 8.292969 9.035156 C 8.292969 9.066406 8.289062 9.085938 8.28125 9.082031 C 8.273438 9.074219 8.269531 9.09375 8.269531 9.132812 C 8.269531 9.164062 8.261719 9.191406 8.253906 9.199219 C 8.246094 9.203125 8.242188 9.230469 8.242188 9.257812 C 8.242188 9.285156 8.234375 9.308594 8.230469 9.308594 C 8.222656 9.308594 8.214844 9.332031 8.214844 9.359375 C 8.214844 9.386719 8.210938 9.410156 8.203125 9.410156 C 8.195312 9.410156 8.191406 9.433594 8.191406 9.464844 C 8.191406 9.492188 8.183594 9.515625 8.179688 9.515625 C 8.167969 9.515625 8.160156 9.546875 8.144531 9.683594 C 8.140625 9.710938 8.128906 9.738281 8.125 9.738281 C 8.117188 9.738281 8.113281 9.761719 8.113281 9.789062 C 8.113281 9.816406 8.105469 9.839844 8.097656 9.839844 C 8.09375 9.839844 8.085938 9.863281 8.085938 9.894531 C 8.085938 9.921875 8.082031 9.945312 8.074219 9.945312 C 8.066406 9.945312 8.058594 9.96875 8.058594 9.996094 C 8.058594 10.023438 8.054688 10.050781 8.046875 10.054688 C 8.039062 10.058594 8.035156 10.082031 8.035156 10.109375 C 8.035156 10.132812 8.027344 10.15625 8.019531 10.160156 C 8.015625 10.164062 8.007812 10.191406 8.007812 10.21875 C 8.007812 10.246094 8.003906 10.273438 7.996094 10.277344 C 7.988281 10.28125 7.980469 10.304688 7.980469 10.328125 C 7.980469 10.355469 7.976562 10.375 7.96875 10.375 C 7.964844 10.375 7.957031 10.398438 7.953125 10.429688 C 7.949219 10.460938 7.9375 10.507812 7.933594 10.535156 C 7.890625 10.691406 7.851562 10.878906 7.84375 10.957031 C 7.839844 10.984375 7.832031 11.011719 7.824219 11.011719 C 7.816406 11.011719 7.8125 11.035156 7.8125 11.0625 C 7.8125 11.089844 7.808594 11.113281 7.800781 11.113281 C 7.792969 11.113281 7.785156 11.148438 7.785156 11.1875 L 7.785156 11.257812 L 7.832031 11.257812 C 7.855469 11.257812 7.878906 11.265625 7.882812 11.269531 C 7.890625 11.277344 7.914062 11.285156 7.9375 11.285156 C 7.960938 11.285156 7.980469 11.289062 7.980469 11.296875 C 7.980469 11.304688 8.003906 11.308594 8.035156 11.308594 C 8.0625 11.308594 8.089844 11.316406 8.09375 11.324219 C 8.097656 11.332031 8.121094 11.335938 8.144531 11.335938 C 8.167969 11.335938 8.191406 11.34375 8.191406 11.347656 C 8.191406 11.355469 8.214844 11.363281 8.242188 11.363281 C 8.269531 11.363281 8.296875 11.367188 8.300781 11.375 C 8.332031 11.425781 8.386719 11.265625 8.40625 11.074219 C 8.410156 11.039062 8.417969 11.011719 8.425781 11.011719 C 8.433594 11.011719 8.4375 10.988281 8.4375 10.960938 C 8.4375 10.929688 8.441406 10.90625 8.449219 10.90625 C 8.457031 10.90625 8.464844 10.878906 8.464844 10.847656 C 8.464844 10.8125 8.46875 10.792969 8.476562 10.796875 C 8.484375 10.800781 8.488281 10.785156 8.488281 10.75 C 8.488281 10.722656 8.496094 10.699219 8.503906 10.699219 C 8.507812 10.699219 8.515625 10.675781 8.515625 10.648438 C 8.515625 10.621094 8.519531 10.59375 8.527344 10.589844 C 8.535156 10.585938 8.539062 10.558594 8.539062 10.527344 C 8.539062 10.5 8.546875 10.476562 8.554688 10.476562 C 8.5625 10.476562 8.566406 10.453125 8.566406 10.425781 C 8.566406 10.398438 8.574219 10.371094 8.578125 10.367188 C 8.585938 10.363281 8.59375 10.339844 8.59375 10.316406 C 8.59375 10.289062 8.597656 10.269531 8.605469 10.269531 C 8.613281 10.269531 8.617188 10.242188 8.617188 10.210938 C 8.617188 10.179688 8.625 10.152344 8.632812 10.152344 C 8.640625 10.152344 8.644531 10.125 8.644531 10.09375 C 8.644531 10.0625 8.652344 10.035156 8.65625 10.035156 C 8.664062 10.035156 8.671875 10.011719 8.671875 9.984375 C 8.671875 9.957031 8.675781 9.933594 8.683594 9.933594 C 8.691406 9.933594 8.695312 9.910156 8.695312 9.886719 C 8.695312 9.863281 8.703125 9.839844 8.710938 9.835938 C 8.71875 9.832031 8.722656 9.800781 8.722656 9.769531 C 8.722656 9.730469 8.726562 9.710938 8.734375 9.71875 C 8.742188 9.722656 8.75 9.703125 8.75 9.667969 C 8.75 9.632812 8.753906 9.605469 8.761719 9.605469 C 8.769531 9.605469 8.773438 9.582031 8.773438 9.554688 C 8.773438 9.527344 8.78125 9.503906 8.789062 9.503906 C 8.796875 9.503906 8.800781 9.484375 8.800781 9.464844 C 8.800781 9.441406 8.804688 9.414062 8.8125 9.398438 C 8.820312 9.386719 8.828125 9.355469 8.828125 9.328125 C 8.832031 9.304688 8.835938 9.28125 8.84375 9.28125 C 8.847656 9.28125 8.851562 9.257812 8.851562 9.230469 C 8.851562 9.203125 8.859375 9.175781 8.863281 9.171875 C 8.871094 9.167969 8.878906 9.144531 8.882812 9.117188 C 8.886719 9.089844 8.894531 9.042969 8.902344 9.007812 C 8.910156 8.976562 8.921875 8.9375 8.921875 8.925781 C 8.925781 8.910156 8.9375 8.867188 8.945312 8.828125 C 8.953125 8.789062 8.960938 8.730469 8.964844 8.699219 C 8.96875 8.667969 8.976562 8.644531 8.984375 8.644531 C 8.992188 8.644531 8.996094 8.617188 8.996094 8.585938 C 8.996094 8.550781 9 8.53125 9.007812 8.535156 C 9.015625 8.539062 9.023438 8.535156 9.023438 8.523438 C 9.023438 8.511719 9.011719 8.5 8.996094 8.496094 C 8.980469 8.492188 8.96875 8.484375 8.96875 8.476562 C 8.96875 8.46875 8.960938 8.464844 8.953125 8.46875 C 8.9375 8.46875 8.796875 8.441406 8.761719 8.425781 C 8.75 8.421875 8.730469 8.417969 8.714844 8.417969 C 8.699219 8.417969 8.679688 8.414062 8.675781 8.40625 C 8.671875 8.402344 8.644531 8.398438 8.617188 8.398438 C 8.589844 8.398438 8.566406 8.390625 8.566406 8.386719 C 8.566406 8.378906 8.535156 8.371094 8.5 8.371094 C 8.464844 8.371094 8.4375 8.375 8.441406 8.378906 M 4.304688 8.425781 C 4.234375 8.4375 4.15625 8.453125 4.128906 8.457031 C 4.054688 8.46875 3.976562 8.503906 3.976562 8.523438 C 3.976562 8.535156 3.984375 8.539062 3.992188 8.535156 C 4 8.53125 4.003906 8.550781 4.003906 8.585938 C 4.003906 8.617188 4.007812 8.644531 4.015625 8.644531 C 4.023438 8.644531 4.03125 8.667969 4.035156 8.699219 C 4.039062 8.730469 4.046875 8.789062 4.054688 8.828125 C 4.0625 8.867188 4.074219 8.910156 4.078125 8.925781 C 4.078125 8.9375 4.089844 8.976562 4.097656 9.007812 C 4.101562 9.042969 4.113281 9.089844 4.117188 9.113281 C 4.121094 9.136719 4.128906 9.171875 4.132812 9.183594 C 4.140625 9.199219 4.152344 9.246094 4.160156 9.289062 C 4.167969 9.332031 4.179688 9.378906 4.1875 9.394531 C 4.195312 9.414062 4.199219 9.445312 4.199219 9.464844 C 4.199219 9.484375 4.203125 9.503906 4.210938 9.503906 C 4.21875 9.503906 4.226562 9.527344 4.226562 9.554688 C 4.226562 9.582031 4.230469 9.605469 4.238281 9.605469 C 4.246094 9.605469 4.25 9.632812 4.25 9.664062 C 4.25 9.699219 4.257812 9.722656 4.265625 9.722656 C 4.269531 9.722656 4.277344 9.746094 4.277344 9.777344 C 4.277344 9.804688 4.28125 9.828125 4.289062 9.828125 C 4.296875 9.828125 4.304688 9.851562 4.304688 9.878906 C 4.304688 9.910156 4.308594 9.933594 4.316406 9.933594 C 4.324219 9.933594 4.328125 9.957031 4.328125 9.984375 C 4.328125 10.011719 4.335938 10.035156 4.34375 10.035156 C 4.347656 10.035156 4.355469 10.0625 4.355469 10.09375 C 4.355469 10.125 4.359375 10.152344 4.367188 10.152344 C 4.375 10.152344 4.382812 10.179688 4.382812 10.210938 C 4.382812 10.242188 4.386719 10.269531 4.394531 10.269531 C 4.402344 10.269531 4.40625 10.289062 4.40625 10.316406 C 4.40625 10.339844 4.414062 10.363281 4.421875 10.367188 C 4.425781 10.371094 4.433594 10.398438 4.433594 10.425781 C 4.433594 10.453125 4.4375 10.476562 4.445312 10.476562 C 4.453125 10.476562 4.460938 10.5 4.460938 10.523438 C 4.460938 10.546875 4.464844 10.570312 4.472656 10.570312 C 4.480469 10.570312 4.484375 10.597656 4.484375 10.632812 C 4.484375 10.667969 4.492188 10.699219 4.496094 10.699219 C 4.503906 10.699219 4.511719 10.71875 4.511719 10.742188 C 4.511719 10.769531 4.515625 10.792969 4.523438 10.796875 C 4.53125 10.800781 4.535156 10.828125 4.535156 10.855469 C 4.535156 10.882812 4.542969 10.90625 4.550781 10.90625 C 4.558594 10.90625 4.5625 10.929688 4.5625 10.960938 C 4.5625 10.988281 4.566406 11.007812 4.574219 11.003906 C 4.582031 11 4.589844 11.027344 4.59375 11.066406 C 4.609375 11.257812 4.667969 11.425781 4.699219 11.375 C 4.703125 11.367188 4.730469 11.363281 4.757812 11.363281 C 4.785156 11.363281 4.808594 11.355469 4.808594 11.347656 C 4.808594 11.34375 4.832031 11.335938 4.863281 11.335938 C 4.890625 11.335938 4.914062 11.332031 4.914062 11.324219 C 4.914062 11.316406 4.933594 11.308594 4.957031 11.308594 C 4.984375 11.308594 5.007812 11.304688 5.011719 11.296875 C 5.015625 11.289062 5.039062 11.285156 5.0625 11.285156 C 5.085938 11.285156 5.109375 11.277344 5.117188 11.269531 C 5.121094 11.265625 5.144531 11.257812 5.167969 11.257812 L 5.214844 11.257812 L 5.214844 11.1875 C 5.214844 11.148438 5.207031 11.113281 5.199219 11.113281 C 5.191406 11.113281 5.1875 11.089844 5.1875 11.0625 C 5.1875 11.035156 5.179688 11.011719 5.175781 11.011719 C 5.167969 11.011719 5.160156 10.992188 5.160156 10.972656 C 5.160156 10.953125 5.152344 10.902344 5.140625 10.859375 C 5.132812 10.816406 5.121094 10.769531 5.117188 10.75 C 5.117188 10.734375 5.109375 10.710938 5.105469 10.699219 C 5.09375 10.671875 5.082031 10.609375 5.074219 10.550781 C 5.070312 10.519531 5.0625 10.492188 5.054688 10.484375 C 5.050781 10.476562 5.042969 10.449219 5.042969 10.421875 C 5.039062 10.394531 5.035156 10.375 5.027344 10.375 C 5.023438 10.375 5.019531 10.351562 5.019531 10.320312 C 5.019531 10.292969 5.011719 10.269531 5.003906 10.269531 C 4.996094 10.269531 4.992188 10.246094 4.992188 10.21875 C 4.992188 10.1875 4.984375 10.164062 4.980469 10.164062 C 4.972656 10.164062 4.964844 10.148438 4.964844 10.125 C 4.964844 10.097656 4.960938 10.074219 4.953125 10.066406 C 4.945312 10.0625 4.941406 10.03125 4.9375 10 C 4.9375 9.96875 4.929688 9.945312 4.925781 9.945312 C 4.917969 9.945312 4.914062 9.925781 4.914062 9.898438 C 4.914062 9.875 4.90625 9.851562 4.902344 9.847656 C 4.894531 9.84375 4.886719 9.820312 4.886719 9.796875 C 4.886719 9.769531 4.882812 9.746094 4.875 9.742188 C 4.867188 9.738281 4.863281 9.714844 4.863281 9.691406 C 4.863281 9.667969 4.855469 9.644531 4.847656 9.640625 C 4.84375 9.636719 4.835938 9.609375 4.835938 9.585938 C 4.835938 9.5625 4.832031 9.542969 4.824219 9.542969 C 4.820312 9.542969 4.8125 9.515625 4.8125 9.480469 C 4.808594 9.445312 4.804688 9.417969 4.796875 9.414062 C 4.789062 9.410156 4.785156 9.390625 4.785156 9.367188 C 4.785156 9.34375 4.777344 9.320312 4.769531 9.316406 C 4.765625 9.308594 4.757812 9.285156 4.757812 9.253906 C 4.757812 9.226562 4.753906 9.203125 4.746094 9.203125 C 4.738281 9.203125 4.730469 9.179688 4.730469 9.152344 C 4.730469 9.125 4.726562 9.101562 4.71875 9.101562 C 4.710938 9.101562 4.707031 9.078125 4.707031 9.046875 C 4.707031 9.019531 4.699219 8.996094 4.691406 8.996094 C 4.6875 8.996094 4.679688 8.972656 4.679688 8.945312 C 4.679688 8.917969 4.675781 8.890625 4.667969 8.886719 C 4.660156 8.882812 4.652344 8.855469 4.652344 8.828125 C 4.652344 8.796875 4.648438 8.773438 4.640625 8.773438 C 4.632812 8.773438 4.628906 8.75 4.628906 8.722656 C 4.628906 8.695312 4.621094 8.671875 4.613281 8.671875 C 4.609375 8.671875 4.601562 8.648438 4.601562 8.621094 C 4.601562 8.589844 4.597656 8.566406 4.589844 8.5625 C 4.582031 8.554688 4.578125 8.546875 4.582031 8.535156 C 4.585938 8.527344 4.582031 8.496094 4.570312 8.46875 C 4.558594 8.4375 4.554688 8.410156 4.558594 8.40625 C 4.574219 8.390625 4.421875 8.402344 4.304688 8.425781 M 6.1875 9.894531 L 6.1875 11.386719 L 6.785156 11.386719 L 6.785156 8.398438 L 6.1875 8.398438 L 6.1875 9.894531 "/>
</svg>
