<svg width="16" height="16" viewBox="0 0 16 16" fill="none" xmlns="http://www.w3.org/2000/svg">
<path fill="#955AE0" d="M 8.335938 0.832031 C 8.335938 0.949219 8.328125 1.023438 8.320312 1.023438 C 8.3125 1.023438 8.304688 1.074219 8.304688 1.144531 C 8.304688 1.207031 8.296875 1.265625 8.289062 1.273438 C 8.277344 1.277344 8.273438 1.308594 8.273438 1.335938 C 8.273438 1.367188 8.265625 1.390625 8.257812 1.390625 C 8.246094 1.390625 8.238281 1.40625 8.238281 1.425781 C 8.238281 1.441406 8.234375 1.457031 8.222656 1.457031 C 8.214844 1.457031 8.207031 1.46875 8.207031 1.488281 C 8.207031 1.523438 8.144531 1.648438 8.125 1.648438 C 8.117188 1.648438 8.113281 1.65625 8.113281 1.667969 C 8.113281 1.679688 8.097656 1.703125 8.078125 1.71875 C 8.0625 1.734375 8.046875 1.753906 8.046875 1.761719 C 8.046875 1.78125 7.84375 1.984375 7.824219 1.984375 C 7.816406 1.984375 7.808594 1.992188 7.808594 2 C 7.808594 2.007812 7.796875 2.015625 7.785156 2.015625 C 7.769531 2.015625 7.761719 2.023438 7.761719 2.03125 C 7.761719 2.039062 7.75 2.046875 7.734375 2.046875 C 7.722656 2.046875 7.710938 2.054688 7.710938 2.0625 C 7.710938 2.074219 7.703125 2.078125 7.691406 2.078125 C 7.679688 2.078125 7.65625 2.09375 7.636719 2.113281 C 7.617188 2.128906 7.585938 2.144531 7.570312 2.144531 C 7.550781 2.144531 7.535156 2.152344 7.527344 2.160156 C 7.523438 2.167969 7.503906 2.175781 7.488281 2.175781 C 7.46875 2.175781 7.457031 2.183594 7.457031 2.191406 C 7.457031 2.199219 7.4375 2.207031 7.417969 2.207031 C 7.394531 2.207031 7.375 2.214844 7.367188 2.222656 C 7.363281 2.234375 7.332031 2.238281 7.304688 2.238281 C 7.273438 2.238281 7.246094 2.246094 7.238281 2.257812 C 7.234375 2.265625 7.191406 2.273438 7.144531 2.273438 C 7.09375 2.273438 7.054688 2.277344 7.054688 2.289062 C 7.054688 2.296875 6.894531 2.304688 6.609375 2.304688 C 6.363281 2.304688 6.15625 2.308594 6.152344 2.316406 C 6.148438 2.324219 6.09375 2.335938 6.027344 2.339844 C 5.902344 2.351562 5.886719 2.355469 5.824219 2.378906 C 5.800781 2.386719 5.773438 2.390625 5.765625 2.386719 C 5.753906 2.382812 5.734375 2.386719 5.722656 2.398438 C 5.710938 2.40625 5.683594 2.417969 5.660156 2.417969 C 5.636719 2.421875 5.617188 2.429688 5.617188 2.433594 C 5.617188 2.441406 5.597656 2.449219 5.578125 2.449219 C 5.554688 2.449219 5.535156 2.457031 5.527344 2.464844 C 5.523438 2.472656 5.503906 2.480469 5.488281 2.480469 C 5.46875 2.480469 5.457031 2.488281 5.457031 2.496094 C 5.457031 2.503906 5.441406 2.511719 5.425781 2.511719 C 5.410156 2.511719 5.382812 2.523438 5.363281 2.535156 C 5.34375 2.550781 5.328125 2.558594 5.328125 2.550781 C 5.328125 2.542969 5.3125 2.550781 5.296875 2.566406 C 5.277344 2.582031 5.265625 2.59375 5.265625 2.585938 C 5.265625 2.578125 5.234375 2.59375 5.195312 2.621094 C 5.160156 2.644531 5.109375 2.675781 5.085938 2.6875 C 5.058594 2.699219 5.039062 2.714844 5.039062 2.722656 C 5.039062 2.730469 5.03125 2.734375 5.019531 2.734375 C 5.007812 2.734375 4.988281 2.75 4.976562 2.769531 C 4.964844 2.785156 4.9375 2.800781 4.921875 2.800781 C 4.894531 2.800781 4.890625 2.804688 4.910156 2.816406 C 4.933594 2.828125 4.929688 2.832031 4.90625 2.832031 C 4.890625 2.832031 4.855469 2.855469 4.832031 2.878906 C 4.808594 2.90625 4.78125 2.929688 4.769531 2.929688 C 4.746094 2.929688 4.558594 3.117188 4.507812 3.191406 C 4.484375 3.226562 4.464844 3.25 4.464844 3.238281 C 4.464844 3.222656 4.425781 3.28125 4.425781 3.296875 C 4.425781 3.300781 4.402344 3.324219 4.378906 3.351562 C 4.355469 3.378906 4.335938 3.414062 4.335938 3.429688 C 4.335938 3.441406 4.328125 3.457031 4.320312 3.457031 C 4.3125 3.457031 4.304688 3.464844 4.304688 3.476562 C 4.304688 3.488281 4.289062 3.511719 4.273438 3.53125 C 4.253906 3.550781 4.238281 3.582031 4.238281 3.601562 C 4.238281 3.621094 4.234375 3.628906 4.222656 3.625 C 4.214844 3.617188 4.210938 3.621094 4.210938 3.628906 C 4.21875 3.648438 4.171875 3.761719 4.15625 3.761719 C 4.148438 3.761719 4.144531 3.773438 4.144531 3.792969 C 4.144531 3.808594 4.136719 3.824219 4.128906 3.824219 C 4.121094 3.824219 4.113281 3.84375 4.113281 3.871094 C 4.113281 3.898438 4.105469 3.921875 4.097656 3.921875 C 4.085938 3.921875 4.078125 3.941406 4.078125 3.96875 C 4.078125 3.996094 4.074219 4.015625 4.0625 4.015625 C 4.054688 4.015625 4.046875 4.042969 4.046875 4.078125 C 4.046875 4.113281 4.042969 4.144531 4.035156 4.144531 C 4.027344 4.144531 4.019531 4.179688 4.019531 4.21875 C 4.011719 4.320312 4 4.332031 3.890625 4.339844 C 3.703125 4.355469 3.664062 4.363281 3.644531 4.378906 C 3.632812 4.386719 3.601562 4.394531 3.570312 4.394531 C 3.542969 4.390625 3.519531 4.398438 3.519531 4.40625 C 3.519531 4.417969 3.5 4.425781 3.46875 4.421875 C 3.441406 4.421875 3.414062 4.425781 3.40625 4.433594 C 3.402344 4.441406 3.375 4.449219 3.347656 4.449219 C 3.320312 4.453125 3.296875 4.460938 3.296875 4.46875 C 3.296875 4.472656 3.273438 4.480469 3.246094 4.480469 C 3.222656 4.480469 3.199219 4.488281 3.199219 4.496094 C 3.199219 4.503906 3.1875 4.511719 3.167969 4.511719 C 3.152344 4.511719 3.101562 4.535156 3.054688 4.558594 C 3.011719 4.585938 2.980469 4.597656 2.984375 4.589844 C 2.996094 4.570312 2.992188 4.570312 2.976562 4.589844 C 2.964844 4.597656 2.9375 4.609375 2.921875 4.609375 C 2.894531 4.609375 2.890625 4.609375 2.910156 4.625 C 2.929688 4.636719 2.929688 4.640625 2.898438 4.640625 C 2.878906 4.640625 2.851562 4.652344 2.839844 4.664062 C 2.824219 4.675781 2.804688 4.683594 2.792969 4.675781 C 2.777344 4.671875 2.769531 4.675781 2.769531 4.6875 C 2.769531 4.695312 2.761719 4.703125 2.75 4.703125 C 2.742188 4.703125 2.710938 4.722656 2.683594 4.746094 C 2.65625 4.769531 2.605469 4.796875 2.574219 4.8125 C 2.539062 4.824219 2.511719 4.847656 2.511719 4.859375 C 2.511719 4.871094 2.503906 4.878906 2.496094 4.871094 C 2.488281 4.867188 2.480469 4.871094 2.480469 4.878906 C 2.480469 4.890625 2.472656 4.894531 2.464844 4.886719 C 2.457031 4.882812 2.429688 4.898438 2.402344 4.925781 C 2.375 4.953125 2.351562 4.96875 2.34375 4.964844 C 2.339844 4.957031 2.335938 4.964844 2.335938 4.980469 C 2.335938 4.996094 2.328125 5.007812 2.316406 5.003906 C 2.304688 5 2.296875 5.011719 2.296875 5.027344 C 2.300781 5.042969 2.292969 5.050781 2.277344 5.046875 C 2.265625 5.039062 2.25 5.046875 2.246094 5.0625 C 2.242188 5.078125 2.230469 5.085938 2.226562 5.082031 C 2.203125 5.066406 2.144531 5.121094 2.144531 5.15625 C 2.144531 5.179688 2.136719 5.1875 2.113281 5.179688 C 2.09375 5.175781 2.085938 5.175781 2.089844 5.183594 C 2.09375 5.195312 2.085938 5.199219 2.070312 5.199219 C 2.050781 5.199219 2.046875 5.203125 2.0625 5.222656 C 2.078125 5.242188 2.074219 5.242188 2.046875 5.234375 C 2.019531 5.230469 2.011719 5.230469 2.019531 5.253906 C 2.027344 5.269531 2.023438 5.277344 2.007812 5.269531 C 1.988281 5.261719 1.984375 5.269531 1.992188 5.300781 C 1.996094 5.328125 1.992188 5.339844 1.984375 5.335938 C 1.972656 5.328125 1.972656 5.316406 1.980469 5.308594 C 1.984375 5.296875 1.976562 5.296875 1.964844 5.308594 C 1.949219 5.320312 1.9375 5.34375 1.9375 5.359375 C 1.9375 5.375 1.925781 5.394531 1.917969 5.40625 C 1.90625 5.414062 1.902344 5.425781 1.910156 5.425781 C 1.914062 5.425781 1.910156 5.433594 1.902344 5.445312 C 1.890625 5.457031 1.875 5.464844 1.867188 5.460938 C 1.832031 5.441406 1.828125 5.480469 1.863281 5.503906 C 1.898438 5.535156 1.929688 5.535156 2.328125 5.535156 C 2.71875 5.535156 2.757812 5.539062 2.777344 5.5625 C 2.796875 5.589844 2.800781 5.589844 2.800781 5.566406 C 2.800781 5.550781 2.792969 5.535156 2.785156 5.527344 C 2.757812 5.511719 2.78125 5.488281 2.808594 5.5 C 2.824219 5.503906 2.835938 5.496094 2.84375 5.472656 C 2.855469 5.421875 2.882812 5.433594 2.871094 5.484375 C 2.867188 5.507812 2.867188 5.519531 2.875 5.507812 C 2.878906 5.496094 2.894531 5.488281 2.90625 5.488281 C 2.925781 5.488281 2.925781 5.480469 2.914062 5.457031 C 2.886719 5.40625 2.890625 5.386719 2.925781 5.40625 C 2.96875 5.429688 2.980469 5.429688 2.964844 5.402344 C 2.957031 5.390625 2.964844 5.390625 2.980469 5.40625 C 3.007812 5.425781 3.015625 5.425781 3.042969 5.390625 C 3.078125 5.355469 3.078125 5.355469 3.046875 5.378906 C 3.027344 5.394531 3.007812 5.40625 3 5.40625 C 2.992188 5.40625 3 5.394531 3.023438 5.375 C 3.042969 5.359375 3.066406 5.347656 3.074219 5.355469 C 3.085938 5.359375 3.097656 5.355469 3.105469 5.34375 C 3.117188 5.324219 3.121094 5.324219 3.121094 5.34375 C 3.121094 5.355469 3.128906 5.351562 3.140625 5.328125 C 3.15625 5.296875 3.171875 5.289062 3.203125 5.292969 C 3.226562 5.296875 3.246094 5.289062 3.253906 5.273438 C 3.257812 5.257812 3.273438 5.253906 3.296875 5.257812 C 3.3125 5.265625 3.328125 5.261719 3.328125 5.253906 C 3.328125 5.246094 3.34375 5.230469 3.363281 5.21875 C 3.378906 5.207031 3.390625 5.207031 3.382812 5.214844 C 3.378906 5.222656 3.382812 5.230469 3.390625 5.230469 C 3.398438 5.230469 3.40625 5.226562 3.40625 5.214844 C 3.40625 5.207031 3.425781 5.199219 3.445312 5.199219 C 3.46875 5.199219 3.492188 5.191406 3.496094 5.183594 C 3.5 5.175781 3.519531 5.167969 3.539062 5.167969 C 3.554688 5.167969 3.566406 5.160156 3.558594 5.152344 C 3.554688 5.140625 3.578125 5.136719 3.625 5.136719 C 3.667969 5.136719 3.695312 5.128906 3.6875 5.121094 C 3.683594 5.109375 3.695312 5.101562 3.714844 5.101562 C 3.753906 5.101562 3.757812 5.101562 3.839844 5.082031 C 3.871094 5.078125 3.910156 5.070312 3.929688 5.066406 C 3.945312 5.066406 3.96875 5.058594 3.976562 5.054688 C 3.996094 5.042969 4.25 5.03125 4.507812 5.03125 L 4.703125 5.03125 L 4.703125 4.738281 C 4.703125 4.550781 4.707031 4.4375 4.71875 4.425781 C 4.726562 4.417969 4.734375 4.382812 4.734375 4.351562 C 4.734375 4.316406 4.742188 4.285156 4.753906 4.28125 C 4.761719 4.273438 4.769531 4.253906 4.769531 4.234375 C 4.769531 4.214844 4.773438 4.191406 4.78125 4.183594 C 4.785156 4.179688 4.792969 4.164062 4.792969 4.15625 C 4.792969 4.144531 4.796875 4.121094 4.796875 4.105469 C 4.800781 4.078125 4.804688 4.074219 4.816406 4.097656 C 4.828125 4.113281 4.832031 4.105469 4.832031 4.066406 C 4.832031 4.039062 4.835938 4.019531 4.84375 4.023438 C 4.855469 4.03125 4.902344 3.933594 4.894531 3.910156 C 4.894531 3.90625 4.910156 3.886719 4.929688 3.871094 C 4.949219 3.855469 4.960938 3.835938 4.957031 3.832031 C 4.945312 3.820312 4.972656 3.78125 5.050781 3.707031 C 5.074219 3.679688 5.101562 3.644531 5.109375 3.628906 C 5.113281 3.613281 5.128906 3.601562 5.140625 3.601562 C 5.152344 3.601562 5.210938 3.554688 5.269531 3.496094 C 5.332031 3.4375 5.390625 3.390625 5.402344 3.390625 C 5.414062 3.390625 5.425781 3.386719 5.425781 3.375 C 5.425781 3.367188 5.429688 3.359375 5.441406 3.359375 C 5.449219 3.359375 5.472656 3.34375 5.492188 3.328125 C 5.511719 3.308594 5.539062 3.296875 5.554688 3.296875 C 5.570312 3.296875 5.585938 3.289062 5.585938 3.28125 C 5.585938 3.277344 5.609375 3.261719 5.640625 3.246094 C 5.671875 3.234375 5.695312 3.21875 5.695312 3.214844 C 5.695312 3.207031 5.710938 3.199219 5.726562 3.199219 C 5.746094 3.199219 5.785156 3.1875 5.816406 3.167969 C 5.847656 3.152344 5.886719 3.136719 5.90625 3.136719 C 5.921875 3.136719 5.949219 3.128906 5.964844 3.121094 C 5.984375 3.113281 6.023438 3.105469 6.054688 3.101562 C 6.085938 3.097656 6.113281 3.089844 6.113281 3.085938 C 6.113281 3.078125 6.152344 3.070312 6.199219 3.070312 C 6.246094 3.070312 6.289062 3.066406 6.289062 3.054688 C 6.292969 3.046875 6.464844 3.039062 6.730469 3.039062 C 6.972656 3.039062 7.167969 3.03125 7.167969 3.023438 C 7.167969 3.015625 7.214844 3.007812 7.269531 3.003906 C 7.425781 2.992188 7.507812 2.976562 7.519531 2.964844 C 7.523438 2.957031 7.542969 2.953125 7.5625 2.953125 C 7.585938 2.953125 7.605469 2.949219 7.609375 2.941406 C 7.613281 2.933594 7.636719 2.929688 7.65625 2.929688 C 7.679688 2.929688 7.695312 2.921875 7.695312 2.910156 C 7.695312 2.902344 7.707031 2.894531 7.726562 2.894531 C 7.742188 2.894531 7.761719 2.886719 7.769531 2.878906 C 7.78125 2.871094 7.796875 2.859375 7.808594 2.855469 C 7.847656 2.851562 7.894531 2.828125 7.9375 2.796875 C 7.960938 2.78125 7.992188 2.769531 8.007812 2.769531 C 8.023438 2.769531 8.046875 2.753906 8.066406 2.738281 C 8.082031 2.722656 8.117188 2.699219 8.140625 2.6875 C 8.164062 2.675781 8.195312 2.652344 8.210938 2.636719 C 8.222656 2.621094 8.242188 2.609375 8.253906 2.609375 C 8.265625 2.609375 8.273438 2.601562 8.273438 2.59375 C 8.273438 2.582031 8.277344 2.574219 8.289062 2.574219 C 8.304688 2.574219 8.609375 2.277344 8.609375 2.261719 C 8.609375 2.253906 8.628906 2.226562 8.65625 2.203125 C 8.683594 2.175781 8.703125 2.144531 8.703125 2.128906 C 8.703125 2.117188 8.71875 2.09375 8.734375 2.082031 C 8.753906 2.074219 8.769531 2.054688 8.769531 2.039062 C 8.769531 2.027344 8.773438 2.015625 8.785156 2.015625 C 8.792969 2.015625 8.800781 2.007812 8.800781 1.996094 C 8.800781 1.964844 8.835938 1.886719 8.851562 1.886719 C 8.859375 1.886719 8.863281 1.875 8.863281 1.855469 C 8.863281 1.839844 8.871094 1.824219 8.882812 1.824219 C 8.890625 1.824219 8.894531 1.8125 8.890625 1.800781 C 8.886719 1.789062 8.886719 1.773438 8.894531 1.769531 C 8.914062 1.757812 8.980469 1.542969 8.984375 1.480469 C 8.992188 1.367188 9 1.359375 9.128906 1.359375 C 9.195312 1.359375 9.25 1.367188 9.257812 1.375 C 9.261719 1.386719 9.3125 1.390625 9.367188 1.390625 C 9.425781 1.390625 9.472656 1.398438 9.472656 1.40625 C 9.472656 1.417969 9.503906 1.425781 9.542969 1.425781 C 9.582031 1.425781 9.617188 1.429688 9.617188 1.441406 C 9.617188 1.449219 9.640625 1.457031 9.671875 1.457031 C 9.703125 1.457031 9.730469 1.464844 9.734375 1.472656 C 9.742188 1.480469 9.761719 1.488281 9.785156 1.488281 C 9.804688 1.488281 9.828125 1.496094 9.832031 1.503906 C 9.835938 1.511719 9.859375 1.519531 9.882812 1.519531 C 9.902344 1.519531 9.921875 1.527344 9.921875 1.53125 C 9.921875 1.539062 9.957031 1.554688 10 1.566406 C 10.042969 1.578125 10.078125 1.59375 10.078125 1.601562 C 10.078125 1.609375 10.09375 1.617188 10.109375 1.617188 C 10.128906 1.617188 10.148438 1.625 10.152344 1.632812 C 10.15625 1.640625 10.167969 1.644531 10.175781 1.640625 C 10.183594 1.636719 10.195312 1.640625 10.199219 1.648438 C 10.207031 1.65625 10.222656 1.664062 10.238281 1.664062 C 10.253906 1.664062 10.273438 1.679688 10.289062 1.695312 C 10.300781 1.714844 10.324219 1.726562 10.339844 1.726562 C 10.355469 1.726562 10.367188 1.734375 10.367188 1.742188 C 10.367188 1.753906 10.378906 1.761719 10.390625 1.761719 C 10.40625 1.761719 10.414062 1.765625 10.414062 1.777344 C 10.414062 1.785156 10.425781 1.792969 10.441406 1.792969 C 10.453125 1.792969 10.460938 1.800781 10.457031 1.808594 C 10.449219 1.816406 10.460938 1.824219 10.476562 1.824219 C 10.492188 1.824219 10.515625 1.839844 10.527344 1.855469 C 10.539062 1.875 10.5625 1.886719 10.574219 1.886719 C 10.585938 1.886719 10.589844 1.894531 10.585938 1.902344 C 10.578125 1.914062 10.585938 1.921875 10.601562 1.921875 C 10.617188 1.921875 10.648438 1.941406 10.671875 1.96875 C 10.695312 1.996094 10.722656 2.015625 10.734375 2.015625 C 10.742188 2.015625 10.753906 2.03125 10.757812 2.046875 C 10.765625 2.0625 10.785156 2.082031 10.800781 2.089844 C 10.816406 2.09375 10.832031 2.101562 10.832031 2.109375 C 10.832031 2.128906 10.972656 2.269531 10.980469 2.261719 C 10.988281 2.253906 10.992188 2.261719 10.992188 2.277344 C 10.992188 2.292969 11 2.300781 11.007812 2.296875 C 11.015625 2.292969 11.027344 2.300781 11.03125 2.320312 C 11.039062 2.335938 11.050781 2.351562 11.058594 2.351562 C 11.066406 2.351562 11.070312 2.359375 11.066406 2.363281 C 11.0625 2.371094 11.074219 2.394531 11.09375 2.417969 C 11.136719 2.464844 11.183594 2.539062 11.214844 2.597656 C 11.226562 2.621094 11.242188 2.640625 11.25 2.640625 C 11.257812 2.640625 11.265625 2.65625 11.265625 2.671875 C 11.265625 2.691406 11.269531 2.703125 11.28125 2.703125 C 11.289062 2.703125 11.296875 2.714844 11.296875 2.726562 C 11.296875 2.742188 11.300781 2.753906 11.308594 2.753906 C 11.316406 2.753906 11.332031 2.777344 11.34375 2.808594 C 11.351562 2.839844 11.371094 2.863281 11.378906 2.863281 C 11.386719 2.863281 11.390625 2.871094 11.386719 2.878906 C 11.382812 2.882812 11.394531 2.925781 11.417969 2.96875 C 11.4375 3.011719 11.457031 3.058594 11.457031 3.074219 C 11.457031 3.089844 11.464844 3.105469 11.472656 3.105469 C 11.480469 3.105469 11.488281 3.125 11.488281 3.152344 C 11.488281 3.179688 11.492188 3.199219 11.5 3.199219 C 11.515625 3.199219 11.550781 3.347656 11.550781 3.40625 C 11.550781 3.425781 11.558594 3.441406 11.566406 3.441406 C 11.578125 3.441406 11.585938 3.476562 11.585938 3.523438 C 11.585938 3.570312 11.589844 3.617188 11.601562 3.625 C 11.609375 3.636719 11.617188 3.90625 11.617188 4.339844 L 11.617188 5.039062 L 11.660156 5.03125 C 11.730469 5.015625 12.257812 5.042969 12.246094 5.058594 C 12.242188 5.066406 12.257812 5.070312 12.285156 5.070312 C 12.308594 5.070312 12.339844 5.082031 12.351562 5.09375 C 12.367188 5.109375 12.371094 5.109375 12.363281 5.09375 C 12.34375 5.058594 12.378906 5.070312 12.414062 5.105469 C 12.433594 5.121094 12.460938 5.136719 12.480469 5.136719 C 12.496094 5.136719 12.511719 5.144531 12.511719 5.152344 C 12.511719 5.160156 12.53125 5.167969 12.554688 5.167969 C 12.574219 5.167969 12.589844 5.175781 12.585938 5.183594 C 12.570312 5.207031 12.597656 5.203125 12.621094 5.179688 C 12.636719 5.164062 12.640625 5.167969 12.640625 5.195312 C 12.640625 5.214844 12.652344 5.226562 12.671875 5.226562 C 12.691406 5.230469 12.699219 5.222656 12.695312 5.210938 C 12.6875 5.199219 12.699219 5.207031 12.714844 5.222656 C 12.734375 5.242188 12.746094 5.261719 12.746094 5.273438 C 12.746094 5.28125 12.761719 5.289062 12.789062 5.292969 C 12.8125 5.296875 12.835938 5.308594 12.839844 5.328125 C 12.847656 5.347656 12.855469 5.359375 12.859375 5.359375 C 12.867188 5.359375 12.894531 5.378906 12.925781 5.40625 C 12.960938 5.4375 12.992188 5.449219 13.011719 5.445312 C 13.039062 5.4375 13.042969 5.441406 13.035156 5.476562 C 13.03125 5.507812 13.039062 5.527344 13.066406 5.554688 C 13.089844 5.578125 13.105469 5.582031 13.105469 5.570312 C 13.105469 5.558594 13.089844 5.539062 13.074219 5.523438 C 13.0625 5.511719 13.058594 5.507812 13.066406 5.511719 C 13.078125 5.515625 13.089844 5.511719 13.089844 5.5 C 13.089844 5.488281 13.09375 5.488281 13.109375 5.507812 C 13.128906 5.53125 13.175781 5.535156 13.542969 5.535156 C 13.859375 5.535156 13.953125 5.53125 13.941406 5.519531 C 13.929688 5.507812 13.925781 5.488281 13.933594 5.476562 C 13.9375 5.460938 13.933594 5.453125 13.925781 5.460938 C 13.914062 5.46875 13.910156 5.457031 13.914062 5.425781 C 13.917969 5.394531 13.914062 5.375 13.90625 5.375 C 13.894531 5.375 13.886719 5.363281 13.886719 5.351562 C 13.886719 5.335938 13.878906 5.332031 13.871094 5.335938 C 13.863281 5.339844 13.855469 5.328125 13.855469 5.304688 C 13.855469 5.28125 13.847656 5.265625 13.839844 5.273438 C 13.832031 5.277344 13.824219 5.269531 13.824219 5.257812 C 13.824219 5.242188 13.8125 5.230469 13.800781 5.230469 C 13.785156 5.230469 13.777344 5.226562 13.785156 5.214844 C 13.789062 5.207031 13.78125 5.195312 13.769531 5.191406 C 13.753906 5.183594 13.746094 5.175781 13.753906 5.167969 C 13.757812 5.160156 13.753906 5.148438 13.746094 5.144531 C 13.734375 5.136719 13.726562 5.140625 13.726562 5.152344 C 13.726562 5.160156 13.71875 5.164062 13.710938 5.160156 C 13.703125 5.152344 13.699219 5.140625 13.707031 5.128906 C 13.714844 5.117188 13.703125 5.09375 13.671875 5.0625 C 13.648438 5.039062 13.632812 5.027344 13.640625 5.039062 C 13.652344 5.0625 13.652344 5.0625 13.628906 5.042969 C 13.613281 5.03125 13.601562 5.015625 13.605469 5.011719 C 13.613281 4.996094 13.574219 4.960938 13.5625 4.972656 C 13.554688 4.976562 13.550781 4.972656 13.550781 4.964844 C 13.550781 4.941406 13.421875 4.816406 13.40625 4.824219 C 13.398438 4.828125 13.390625 4.820312 13.390625 4.800781 C 13.390625 4.78125 13.382812 4.769531 13.375 4.769531 C 13.367188 4.769531 13.363281 4.777344 13.371094 4.789062 C 13.378906 4.808594 13.363281 4.792969 13.273438 4.714844 C 13.25 4.691406 13.222656 4.671875 13.214844 4.671875 C 13.207031 4.671875 13.199219 4.664062 13.199219 4.65625 C 13.199219 4.648438 13.1875 4.640625 13.175781 4.640625 C 13.164062 4.640625 13.152344 4.632812 13.152344 4.625 C 13.152344 4.613281 13.148438 4.609375 13.140625 4.613281 C 13.132812 4.613281 13.09375 4.59375 13.054688 4.566406 C 13.015625 4.542969 12.976562 4.523438 12.964844 4.523438 C 12.953125 4.527344 12.945312 4.519531 12.945312 4.511719 C 12.945312 4.5 12.941406 4.496094 12.933594 4.5 C 12.929688 4.503906 12.910156 4.496094 12.890625 4.480469 C 12.863281 4.453125 12.820312 4.441406 12.78125 4.445312 C 12.773438 4.445312 12.769531 4.441406 12.769531 4.429688 C 12.769531 4.421875 12.753906 4.414062 12.734375 4.421875 C 12.714844 4.425781 12.699219 4.421875 12.695312 4.410156 C 12.691406 4.398438 12.667969 4.386719 12.644531 4.386719 C 12.621094 4.386719 12.597656 4.378906 12.59375 4.367188 C 12.585938 4.355469 12.5625 4.351562 12.546875 4.355469 C 12.527344 4.359375 12.511719 4.359375 12.511719 4.351562 C 12.511719 4.34375 12.484375 4.335938 12.449219 4.335938 L 12.382812 4.335938 L 12.382812 4.15625 C 12.378906 3.933594 12.378906 3.902344 12.363281 3.871094 C 12.359375 3.859375 12.351562 3.769531 12.34375 3.671875 C 12.332031 3.453125 12.320312 3.328125 12.304688 3.328125 C 12.300781 3.328125 12.296875 3.304688 12.296875 3.277344 C 12.300781 3.246094 12.292969 3.210938 12.285156 3.191406 C 12.273438 3.175781 12.265625 3.144531 12.265625 3.128906 C 12.261719 3.09375 12.257812 3.085938 12.226562 2.992188 C 12.214844 2.960938 12.203125 2.929688 12.203125 2.921875 C 12.191406 2.886719 12.171875 2.839844 12.160156 2.8125 C 12.152344 2.796875 12.144531 2.769531 12.144531 2.753906 C 12.144531 2.734375 12.136719 2.71875 12.128906 2.71875 C 12.121094 2.71875 12.113281 2.703125 12.113281 2.679688 C 12.113281 2.65625 12.105469 2.640625 12.097656 2.640625 C 12.085938 2.640625 12.078125 2.625 12.078125 2.609375 C 12.078125 2.589844 12.074219 2.574219 12.0625 2.574219 C 12.054688 2.574219 12.046875 2.5625 12.046875 2.542969 C 12.046875 2.523438 12.039062 2.515625 12.03125 2.519531 C 12.023438 2.527344 12.015625 2.511719 12.015625 2.488281 C 12.015625 2.464844 12.007812 2.449219 12 2.449219 C 11.992188 2.449219 11.984375 2.441406 11.984375 2.429688 C 11.984375 2.421875 11.960938 2.382812 11.9375 2.34375 C 11.910156 2.304688 11.886719 2.269531 11.886719 2.265625 C 11.886719 2.257812 11.878906 2.242188 11.863281 2.230469 C 11.851562 2.214844 11.84375 2.199219 11.851562 2.1875 C 11.855469 2.179688 11.851562 2.175781 11.84375 2.183594 C 11.832031 2.1875 11.824219 2.183594 11.824219 2.167969 C 11.824219 2.15625 11.816406 2.144531 11.808594 2.144531 C 11.800781 2.144531 11.792969 2.132812 11.792969 2.121094 C 11.792969 2.109375 11.769531 2.078125 11.742188 2.050781 C 11.71875 2.023438 11.695312 1.992188 11.695312 1.984375 C 11.695312 1.972656 11.6875 1.957031 11.675781 1.945312 C 11.664062 1.933594 11.625 1.886719 11.585938 1.839844 C 11.488281 1.722656 11.152344 1.390625 11.132812 1.390625 C 11.125 1.390625 11.09375 1.367188 11.0625 1.335938 C 11.03125 1.304688 10.984375 1.269531 10.960938 1.257812 C 10.933594 1.242188 10.910156 1.222656 10.910156 1.214844 C 10.910156 1.207031 10.90625 1.199219 10.894531 1.199219 C 10.886719 1.199219 10.863281 1.1875 10.84375 1.167969 C 10.824219 1.152344 10.800781 1.136719 10.789062 1.136719 C 10.777344 1.136719 10.769531 1.128906 10.769531 1.117188 C 10.769531 1.105469 10.761719 1.101562 10.757812 1.109375 C 10.75 1.113281 10.738281 1.113281 10.730469 1.105469 C 10.6875 1.070312 10.5625 1.011719 10.554688 1.019531 C 10.546875 1.023438 10.542969 1.019531 10.542969 1.011719 C 10.542969 1 10.53125 0.992188 10.511719 0.992188 C 10.496094 0.992188 10.480469 0.984375 10.480469 0.976562 C 10.480469 0.96875 10.46875 0.960938 10.460938 0.960938 C 10.429688 0.960938 10.351562 0.921875 10.351562 0.90625 C 10.351562 0.902344 10.335938 0.894531 10.3125 0.894531 C 10.289062 0.894531 10.273438 0.890625 10.273438 0.878906 C 10.273438 0.871094 10.257812 0.863281 10.242188 0.863281 C 10.222656 0.863281 10.207031 0.855469 10.199219 0.847656 C 10.195312 0.839844 10.171875 0.832031 10.152344 0.832031 C 10.128906 0.832031 10.113281 0.824219 10.113281 0.816406 C 10.113281 0.808594 10.089844 0.800781 10.0625 0.800781 C 10.039062 0.800781 10.015625 0.792969 10.015625 0.785156 C 10.015625 0.773438 9.988281 0.769531 9.953125 0.769531 C 9.917969 0.769531 9.886719 0.761719 9.886719 0.753906 C 9.886719 0.742188 9.859375 0.734375 9.824219 0.734375 C 9.789062 0.734375 9.761719 0.730469 9.761719 0.71875 C 9.761719 0.710938 9.726562 0.703125 9.6875 0.703125 C 9.648438 0.703125 9.613281 0.695312 9.609375 0.6875 C 9.601562 0.679688 9.550781 0.671875 9.496094 0.671875 C 9.4375 0.671875 9.390625 0.664062 9.390625 0.65625 C 9.390625 0.648438 9.1875 0.640625 8.863281 0.640625 L 8.335938 0.640625 L 8.335938 0.832031 M 11.644531 4.957031 C 11.640625 4.988281 11.636719 4.964844 11.636719 4.902344 C 11.636719 4.84375 11.640625 4.816406 11.644531 4.84375 C 11.648438 4.871094 11.648438 4.921875 11.644531 4.957031 M 13.941406 5.460938 C 13.941406 5.480469 13.953125 5.5 13.964844 5.5 C 13.988281 5.5 13.988281 5.488281 13.960938 5.453125 C 13.941406 5.425781 13.9375 5.425781 13.941406 5.460938 M 13.144531 5.609375 C 13.148438 5.625 13.148438 5.648438 13.152344 5.65625 C 13.152344 5.664062 13.160156 5.660156 13.171875 5.652344 C 13.1875 5.636719 13.183594 5.625 13.164062 5.605469 C 13.140625 5.582031 13.136719 5.582031 13.144531 5.609375 M 13.980469 5.59375 C 13.972656 5.601562 13.96875 5.613281 13.96875 5.621094 C 13.96875 5.632812 13.972656 5.632812 13.984375 5.621094 C 13.996094 5.609375 14.015625 5.605469 14.03125 5.609375 C 14.050781 5.617188 14.054688 5.617188 14.03125 5.601562 C 14.003906 5.582031 13.992188 5.582031 13.980469 5.59375 M 2.617188 5.679688 C 2.585938 5.707031 2.558594 5.738281 2.558594 5.75 C 2.5625 5.757812 2.574219 5.75 2.589844 5.730469 C 2.609375 5.710938 2.628906 5.695312 2.640625 5.695312 C 2.648438 5.695312 2.660156 5.683594 2.667969 5.671875 C 2.671875 5.660156 2.683594 5.652344 2.691406 5.65625 C 2.699219 5.660156 2.703125 5.660156 2.703125 5.648438 C 2.703125 5.621094 2.675781 5.628906 2.617188 5.679688 M 1.691406 5.671875 C 1.679688 5.699219 1.695312 5.703125 1.726562 5.683594 C 1.742188 5.671875 1.742188 5.667969 1.722656 5.660156 C 1.710938 5.652344 1.695312 5.660156 1.691406 5.671875 M 1.609375 5.804688 C 1.605469 5.820312 1.597656 5.839844 1.589844 5.851562 C 1.585938 5.863281 1.589844 5.871094 1.597656 5.871094 C 1.609375 5.871094 1.648438 5.804688 1.648438 5.785156 C 1.648438 5.761719 1.617188 5.78125 1.609375 5.804688 M 2.449219 5.855469 C 2.4375 5.878906 2.4375 5.886719 2.449219 5.886719 C 2.457031 5.886719 2.464844 5.878906 2.464844 5.863281 C 2.464844 5.851562 2.472656 5.84375 2.488281 5.851562 C 2.5 5.855469 2.511719 5.851562 2.511719 5.839844 C 2.511719 5.8125 2.464844 5.820312 2.449219 5.855469 M 14.144531 5.839844 C 14.144531 5.847656 14.136719 5.851562 14.128906 5.847656 C 14.101562 5.832031 14.109375 5.847656 14.144531 5.875 C 14.175781 5.902344 14.175781 5.902344 14.171875 5.871094 C 14.164062 5.835938 14.144531 5.808594 14.144531 5.839844 M 2.355469 5.988281 C 2.320312 6.039062 2.316406 6.050781 2.347656 6.03125 C 2.363281 6.019531 2.378906 6 2.378906 5.988281 C 2.378906 5.964844 2.375 5.960938 2.355469 5.988281 M 14.355469 6.882812 C 14.359375 6.90625 14.363281 6.929688 14.371094 6.929688 C 14.390625 6.929688 14.386719 6.894531 14.367188 6.863281 C 14.355469 6.84375 14.351562 6.851562 14.355469 6.882812 M 2.019531 6.976562 C 2.019531 7.003906 2.023438 7.023438 2.027344 7.019531 C 2.042969 7 2.050781 6.929688 2.035156 6.929688 C 2.03125 6.929688 2.023438 6.949219 2.019531 6.976562 M 1.886719 8.582031 C 1.886719 8.597656 1.9375 8.644531 1.945312 8.636719 C 1.949219 8.632812 1.9375 8.617188 1.921875 8.601562 C 1.902344 8.585938 1.886719 8.578125 1.886719 8.582031 "/>
<path fill="#955AE0" d="M 11.628906 4.914062 C 11.625 4.976562 11.628906 5.03125 11.632812 5.03125 C 11.640625 5.035156 11.644531 4.984375 11.648438 4.917969 C 11.652344 4.765625 11.636719 4.761719 11.628906 4.914062 M 4.394531 5.035156 C 4.441406 5.039062 4.519531 5.039062 4.5625 5.035156 C 4.609375 5.03125 4.574219 5.03125 4.480469 5.03125 C 4.386719 5.03125 4.351562 5.03125 4.394531 5.035156 M 11.738281 5.035156 C 11.785156 5.039062 11.863281 5.039062 11.90625 5.035156 C 11.953125 5.03125 11.917969 5.03125 11.824219 5.03125 C 11.730469 5.03125 11.695312 5.03125 11.738281 5.035156 M 3.976562 5.050781 C 3.972656 5.058594 3.988281 5.066406 4.011719 5.070312 C 4.046875 5.070312 4.050781 5.066406 4.03125 5.054688 C 4.003906 5.035156 3.988281 5.035156 3.976562 5.050781 M 12.347656 5.085938 C 12.34375 5.089844 12.359375 5.097656 12.382812 5.101562 C 12.414062 5.101562 12.417969 5.101562 12.398438 5.089844 C 12.371094 5.070312 12.355469 5.066406 12.347656 5.085938 M 2.117188 5.144531 C 2.121094 5.152344 2.113281 5.167969 2.101562 5.175781 C 2.074219 5.195312 2.074219 5.199219 2.109375 5.1875 C 2.144531 5.179688 2.160156 5.136719 2.125 5.136719 C 2.113281 5.136719 2.113281 5.140625 2.117188 5.144531 M 12.699219 5.230469 C 12.703125 5.25 12.71875 5.265625 12.730469 5.265625 C 12.746094 5.265625 12.746094 5.257812 12.722656 5.230469 C 12.710938 5.214844 12.695312 5.199219 12.695312 5.199219 C 12.691406 5.199219 12.695312 5.214844 12.699219 5.230469 M 3.15625 5.300781 C 3.140625 5.316406 3.144531 5.320312 3.167969 5.324219 C 3.199219 5.324219 3.210938 5.304688 3.1875 5.289062 C 3.179688 5.285156 3.164062 5.289062 3.15625 5.300781 M 12.800781 5.304688 C 12.800781 5.308594 12.8125 5.324219 12.824219 5.339844 C 12.851562 5.363281 12.851562 5.359375 12.839844 5.320312 C 12.828125 5.296875 12.800781 5.285156 12.800781 5.304688 M 1.921875 5.359375 C 1.921875 5.367188 1.90625 5.390625 1.886719 5.410156 C 1.855469 5.449219 1.859375 5.484375 1.894531 5.453125 C 1.90625 5.441406 1.917969 5.429688 1.914062 5.425781 C 1.914062 5.417969 1.921875 5.402344 1.925781 5.386719 C 1.933594 5.371094 1.933594 5.355469 1.929688 5.347656 C 1.925781 5.34375 1.921875 5.347656 1.921875 5.359375 M 3.019531 5.375 C 3 5.394531 2.972656 5.402344 2.96875 5.394531 C 2.960938 5.390625 2.960938 5.394531 2.964844 5.402344 C 2.980469 5.429688 2.96875 5.429688 2.925781 5.40625 C 2.894531 5.390625 2.886719 5.402344 2.90625 5.445312 C 2.914062 5.46875 2.925781 5.464844 2.984375 5.425781 C 3.019531 5.398438 3.054688 5.378906 3.058594 5.382812 C 3.0625 5.390625 3.066406 5.382812 3.066406 5.367188 C 3.066406 5.339844 3.066406 5.335938 3.019531 5.375 M 12.972656 5.4375 C 12.960938 5.453125 12.960938 5.457031 12.964844 5.453125 C 12.972656 5.445312 12.992188 5.457031 13.007812 5.476562 L 13.039062 5.511719 L 13.039062 5.476562 C 13.039062 5.453125 13.03125 5.441406 13.011719 5.441406 C 12.988281 5.441406 12.988281 5.4375 13.007812 5.425781 C 13.019531 5.414062 13.023438 5.410156 13.015625 5.410156 C 13.003906 5.40625 12.984375 5.421875 12.972656 5.4375 M 13.910156 5.449219 C 13.910156 5.460938 13.917969 5.464844 13.925781 5.460938 C 13.933594 5.453125 13.9375 5.460938 13.933594 5.476562 C 13.925781 5.488281 13.929688 5.507812 13.941406 5.519531 C 13.953125 5.53125 13.859375 5.535156 13.542969 5.535156 C 13.175781 5.535156 13.128906 5.53125 13.109375 5.507812 C 13.09375 5.488281 13.089844 5.488281 13.089844 5.5 C 13.089844 5.511719 13.078125 5.515625 13.066406 5.511719 C 13.058594 5.507812 13.058594 5.511719 13.074219 5.523438 C 13.089844 5.535156 13.101562 5.558594 13.105469 5.574219 C 13.109375 5.589844 13.121094 5.609375 13.132812 5.613281 C 13.148438 5.617188 13.152344 5.613281 13.144531 5.597656 C 13.132812 5.578125 13.132812 5.578125 13.15625 5.597656 C 13.175781 5.613281 13.179688 5.632812 13.175781 5.660156 C 13.171875 5.683594 13.171875 5.695312 13.175781 5.683594 C 13.183594 5.671875 13.195312 5.664062 13.203125 5.664062 C 13.210938 5.664062 13.214844 5.671875 13.214844 5.683594 C 13.210938 5.722656 13.238281 5.777344 13.257812 5.769531 C 13.269531 5.765625 13.285156 5.769531 13.289062 5.777344 C 13.296875 5.789062 13.292969 5.792969 13.28125 5.785156 C 13.269531 5.777344 13.265625 5.785156 13.265625 5.800781 C 13.265625 5.816406 13.273438 5.824219 13.289062 5.820312 C 13.300781 5.8125 13.308594 5.816406 13.300781 5.832031 C 13.296875 5.84375 13.300781 5.855469 13.3125 5.855469 C 13.320312 5.855469 13.324219 5.863281 13.320312 5.871094 C 13.316406 5.878906 13.320312 5.886719 13.335938 5.886719 C 13.351562 5.886719 13.359375 5.902344 13.359375 5.925781 C 13.359375 5.945312 13.375 5.976562 13.390625 6 C 13.410156 6.023438 13.421875 6.050781 13.421875 6.066406 C 13.425781 6.082031 13.429688 6.097656 13.441406 6.105469 C 13.449219 6.109375 13.457031 6.132812 13.457031 6.15625 C 13.457031 6.191406 13.460938 6.195312 13.472656 6.175781 C 13.484375 6.15625 13.488281 6.160156 13.488281 6.195312 C 13.492188 6.261719 13.496094 6.269531 13.507812 6.28125 C 13.515625 6.289062 13.519531 6.308594 13.519531 6.332031 C 13.519531 6.351562 13.527344 6.367188 13.535156 6.367188 C 13.542969 6.367188 13.554688 6.398438 13.558594 6.4375 C 13.5625 6.472656 13.574219 6.542969 13.582031 6.59375 C 13.589844 6.640625 13.597656 6.667969 13.601562 6.65625 C 13.613281 6.601562 13.625 6.886719 13.621094 7.109375 C 13.617188 7.253906 13.609375 7.339844 13.597656 7.335938 C 13.589844 7.328125 13.585938 7.363281 13.585938 7.414062 C 13.585938 7.472656 13.578125 7.503906 13.566406 7.496094 C 13.558594 7.492188 13.550781 7.507812 13.550781 7.535156 C 13.550781 7.5625 13.546875 7.597656 13.539062 7.613281 C 13.53125 7.628906 13.515625 7.65625 13.507812 7.679688 C 13.5 7.703125 13.476562 7.753906 13.457031 7.796875 C 13.4375 7.835938 13.425781 7.878906 13.425781 7.890625 C 13.425781 7.898438 13.417969 7.902344 13.40625 7.894531 C 13.398438 7.890625 13.390625 7.902344 13.390625 7.917969 C 13.390625 7.9375 13.386719 7.953125 13.375 7.953125 C 13.367188 7.953125 13.359375 7.964844 13.359375 7.976562 C 13.359375 7.992188 13.34375 8.019531 13.324219 8.035156 C 13.304688 8.050781 13.296875 8.0625 13.300781 8.0625 C 13.3125 8.0625 13.304688 8.078125 13.226562 8.160156 C 13.203125 8.1875 13.183594 8.21875 13.183594 8.226562 C 13.183594 8.234375 13.171875 8.238281 13.160156 8.238281 C 13.148438 8.238281 13.136719 8.25 13.140625 8.257812 C 13.140625 8.269531 13.128906 8.285156 13.109375 8.296875 C 13.089844 8.304688 13.078125 8.320312 13.082031 8.324219 C 13.089844 8.332031 13.082031 8.335938 13.074219 8.335938 C 13.0625 8.335938 13.03125 8.359375 13.003906 8.382812 C 12.980469 8.410156 12.953125 8.429688 12.945312 8.425781 C 12.9375 8.421875 12.921875 8.433594 12.910156 8.449219 C 12.898438 8.464844 12.875 8.480469 12.859375 8.480469 C 12.84375 8.480469 12.832031 8.488281 12.832031 8.496094 C 12.832031 8.503906 12.816406 8.511719 12.800781 8.511719 C 12.78125 8.511719 12.769531 8.515625 12.769531 8.523438 C 12.769531 8.539062 12.6875 8.574219 12.65625 8.574219 C 12.640625 8.574219 12.625 8.582031 12.613281 8.589844 C 12.605469 8.597656 12.566406 8.609375 12.523438 8.609375 C 12.480469 8.613281 12.449219 8.621094 12.449219 8.628906 C 12.449219 8.632812 10.429688 8.640625 7.960938 8.640625 C 5.492188 8.640625 3.472656 8.632812 3.472656 8.625 C 3.472656 8.621094 3.433594 8.613281 3.386719 8.609375 C 3.34375 8.609375 3.296875 8.597656 3.289062 8.589844 C 3.28125 8.582031 3.25 8.574219 3.222656 8.574219 C 3.191406 8.574219 3.167969 8.570312 3.167969 8.558594 C 3.167969 8.550781 3.144531 8.542969 3.121094 8.542969 C 3.09375 8.542969 3.070312 8.535156 3.070312 8.527344 C 3.070312 8.519531 3.0625 8.511719 3.050781 8.511719 C 3.039062 8.511719 3 8.496094 2.964844 8.480469 C 2.925781 8.460938 2.890625 8.449219 2.878906 8.449219 C 2.871094 8.449219 2.863281 8.441406 2.863281 8.433594 C 2.863281 8.425781 2.835938 8.40625 2.800781 8.390625 C 2.765625 8.375 2.734375 8.355469 2.734375 8.347656 C 2.734375 8.34375 2.726562 8.335938 2.710938 8.335938 C 2.699219 8.335938 2.691406 8.328125 2.695312 8.320312 C 2.703125 8.3125 2.695312 8.304688 2.679688 8.304688 C 2.664062 8.304688 2.625 8.273438 2.59375 8.238281 C 2.558594 8.203125 2.523438 8.175781 2.511719 8.175781 C 2.5 8.175781 2.496094 8.171875 2.5 8.167969 C 2.507812 8.160156 2.480469 8.128906 2.449219 8.09375 C 2.414062 8.0625 2.382812 8.023438 2.382812 8.011719 C 2.382812 8 2.371094 7.984375 2.351562 7.972656 C 2.335938 7.960938 2.320312 7.941406 2.320312 7.925781 C 2.320312 7.914062 2.3125 7.890625 2.300781 7.878906 C 2.253906 7.828125 2.238281 7.808594 2.246094 7.808594 C 2.253906 7.808594 2.246094 7.785156 2.230469 7.757812 C 2.214844 7.726562 2.203125 7.699219 2.203125 7.691406 C 2.207031 7.683594 2.199219 7.679688 2.191406 7.679688 C 2.183594 7.679688 2.175781 7.664062 2.175781 7.648438 C 2.175781 7.628906 2.171875 7.617188 2.164062 7.617188 C 2.15625 7.617188 2.140625 7.578125 2.128906 7.535156 C 2.117188 7.492188 2.101562 7.449219 2.09375 7.445312 C 2.085938 7.441406 2.078125 7.410156 2.078125 7.378906 C 2.078125 7.34375 2.074219 7.3125 2.0625 7.300781 C 2.054688 7.292969 2.046875 7.222656 2.046875 7.148438 C 2.042969 7.070312 2.035156 7.011719 2.03125 7.019531 C 2.023438 7.023438 2.015625 7.015625 2.015625 7 C 2.015625 6.984375 2.023438 6.980469 2.035156 6.984375 C 2.046875 6.992188 2.046875 6.984375 2.03125 6.960938 C 2.023438 6.941406 2.019531 6.929688 2.027344 6.929688 C 2.039062 6.929688 2.042969 6.910156 2.042969 6.890625 C 2.046875 6.734375 2.050781 6.6875 2.0625 6.695312 C 2.074219 6.703125 2.078125 6.675781 2.078125 6.632812 C 2.078125 6.582031 2.085938 6.5625 2.097656 6.570312 C 2.109375 6.574219 2.113281 6.566406 2.109375 6.542969 C 2.109375 6.519531 2.113281 6.488281 2.125 6.472656 C 2.132812 6.453125 2.144531 6.414062 2.152344 6.378906 C 2.160156 6.34375 2.171875 6.320312 2.1875 6.320312 C 2.199219 6.320312 2.207031 6.3125 2.199219 6.304688 C 2.195312 6.296875 2.199219 6.285156 2.207031 6.28125 C 2.214844 6.273438 2.222656 6.257812 2.222656 6.238281 C 2.222656 6.222656 2.230469 6.207031 2.242188 6.207031 C 2.253906 6.207031 2.257812 6.203125 2.25 6.199219 C 2.246094 6.191406 2.253906 6.175781 2.265625 6.164062 C 2.277344 6.152344 2.289062 6.128906 2.289062 6.109375 C 2.289062 6.09375 2.296875 6.078125 2.304688 6.078125 C 2.3125 6.078125 2.320312 6.070312 2.320312 6.054688 C 2.320312 6.042969 2.328125 6.035156 2.335938 6.039062 C 2.34375 6.042969 2.347656 6.035156 2.347656 6.019531 C 2.34375 6.003906 2.351562 5.992188 2.363281 5.996094 C 2.375 6 2.382812 5.992188 2.375 5.984375 C 2.371094 5.976562 2.386719 5.949219 2.410156 5.929688 C 2.433594 5.90625 2.449219 5.886719 2.441406 5.886719 C 2.4375 5.886719 2.4375 5.875 2.449219 5.855469 C 2.457031 5.835938 2.480469 5.824219 2.503906 5.824219 C 2.539062 5.824219 2.570312 5.785156 2.5625 5.753906 C 2.554688 5.730469 2.644531 5.648438 2.667969 5.65625 C 2.679688 5.660156 2.683594 5.65625 2.679688 5.648438 C 2.675781 5.640625 2.679688 5.632812 2.691406 5.632812 C 2.730469 5.632812 2.78125 5.585938 2.773438 5.558594 C 2.765625 5.539062 2.699219 5.535156 2.328125 5.535156 C 1.960938 5.535156 1.890625 5.53125 1.871094 5.511719 C 1.847656 5.480469 1.8125 5.480469 1.800781 5.511719 C 1.796875 5.527344 1.800781 5.535156 1.8125 5.527344 C 1.820312 5.519531 1.824219 5.523438 1.816406 5.535156 C 1.8125 5.542969 1.796875 5.550781 1.78125 5.550781 C 1.769531 5.550781 1.761719 5.5625 1.761719 5.578125 C 1.761719 5.589844 1.753906 5.597656 1.746094 5.59375 C 1.734375 5.585938 1.730469 5.59375 1.738281 5.605469 C 1.742188 5.617188 1.738281 5.632812 1.726562 5.640625 C 1.714844 5.648438 1.714844 5.65625 1.726562 5.664062 C 1.742188 5.671875 1.738281 5.679688 1.714844 5.6875 C 1.695312 5.691406 1.679688 5.707031 1.679688 5.722656 C 1.679688 5.734375 1.671875 5.742188 1.664062 5.734375 C 1.65625 5.730469 1.648438 5.742188 1.648438 5.757812 C 1.648438 5.796875 1.617188 5.871094 1.597656 5.871094 C 1.589844 5.871094 1.582031 5.886719 1.582031 5.90625 C 1.582031 5.9375 1.582031 5.9375 1.566406 5.921875 C 1.554688 5.902344 1.550781 5.902344 1.550781 5.929688 C 1.550781 5.972656 1.511719 6.050781 1.5 6.035156 C 1.492188 6.03125 1.488281 6.042969 1.488281 6.066406 C 1.488281 6.089844 1.484375 6.113281 1.476562 6.117188 C 1.46875 6.125 1.460938 6.148438 1.460938 6.171875 C 1.457031 6.195312 1.449219 6.21875 1.4375 6.222656 C 1.429688 6.222656 1.425781 6.242188 1.425781 6.265625 C 1.425781 6.285156 1.417969 6.304688 1.410156 6.304688 C 1.40625 6.304688 1.398438 6.324219 1.398438 6.347656 C 1.394531 6.371094 1.386719 6.394531 1.378906 6.398438 C 1.367188 6.398438 1.359375 6.433594 1.359375 6.472656 C 1.359375 6.519531 1.351562 6.542969 1.339844 6.542969 C 1.328125 6.542969 1.328125 6.550781 1.34375 6.558594 C 1.355469 6.570312 1.359375 6.574219 1.351562 6.574219 C 1.339844 6.574219 1.332031 6.617188 1.328125 6.667969 C 1.328125 6.71875 1.320312 6.765625 1.3125 6.773438 C 1.289062 6.796875 1.292969 6.820312 1.3125 6.808594 C 1.320312 6.800781 1.328125 6.804688 1.328125 6.816406 C 1.328125 6.824219 1.320312 6.832031 1.3125 6.832031 C 1.292969 6.832031 1.289062 7.21875 1.308594 7.230469 C 1.320312 7.238281 1.328125 7.292969 1.328125 7.355469 C 1.332031 7.421875 1.339844 7.476562 1.347656 7.480469 C 1.355469 7.484375 1.359375 7.515625 1.359375 7.546875 C 1.359375 7.574219 1.367188 7.601562 1.375 7.601562 C 1.386719 7.601562 1.390625 7.625 1.390625 7.65625 C 1.390625 7.683594 1.398438 7.714844 1.40625 7.71875 C 1.417969 7.726562 1.425781 7.75 1.425781 7.777344 C 1.425781 7.804688 1.429688 7.820312 1.441406 7.816406 C 1.449219 7.808594 1.457031 7.824219 1.457031 7.847656 C 1.457031 7.871094 1.464844 7.886719 1.472656 7.886719 C 1.480469 7.886719 1.488281 7.902344 1.488281 7.917969 C 1.488281 7.9375 1.496094 7.953125 1.503906 7.960938 C 1.511719 7.964844 1.519531 7.988281 1.519531 8.007812 C 1.519531 8.03125 1.527344 8.046875 1.535156 8.046875 C 1.542969 8.046875 1.550781 8.0625 1.550781 8.078125 C 1.550781 8.09375 1.558594 8.113281 1.5625 8.113281 C 1.570312 8.117188 1.59375 8.152344 1.613281 8.195312 C 1.636719 8.238281 1.660156 8.273438 1.664062 8.273438 C 1.671875 8.273438 1.679688 8.285156 1.6875 8.300781 C 1.703125 8.347656 1.765625 8.433594 1.851562 8.523438 C 1.871094 8.542969 1.882812 8.558594 1.878906 8.558594 C 1.871094 8.558594 1.886719 8.574219 1.910156 8.59375 C 1.933594 8.613281 1.953125 8.636719 1.953125 8.648438 C 1.953125 8.660156 1.960938 8.671875 1.976562 8.671875 C 1.988281 8.671875 2.003906 8.6875 2.007812 8.703125 C 2.011719 8.71875 2.03125 8.738281 2.046875 8.742188 C 2.0625 8.75 2.082031 8.765625 2.085938 8.777344 C 2.089844 8.789062 2.105469 8.800781 2.117188 8.800781 C 2.128906 8.800781 2.15625 8.820312 2.179688 8.847656 C 2.199219 8.875 2.226562 8.894531 2.238281 8.894531 C 2.25 8.894531 2.273438 8.910156 2.285156 8.925781 C 2.300781 8.9375 2.324219 8.953125 2.335938 8.957031 C 2.347656 8.960938 2.367188 8.972656 2.371094 8.984375 C 2.378906 8.996094 2.394531 9.007812 2.410156 9.007812 C 2.464844 9.007812 2.511719 9.058594 2.511719 9.121094 C 2.511719 9.15625 2.519531 9.1875 2.527344 9.191406 C 2.535156 9.199219 2.542969 9.226562 2.542969 9.257812 C 2.542969 9.285156 2.550781 9.316406 2.558594 9.320312 C 2.570312 9.324219 2.574219 9.355469 2.574219 9.390625 C 2.574219 9.421875 2.582031 9.457031 2.589844 9.464844 C 2.597656 9.472656 2.609375 9.511719 2.609375 9.546875 C 2.613281 9.585938 2.621094 9.617188 2.628906 9.617188 C 2.632812 9.617188 2.640625 9.644531 2.640625 9.679688 C 2.640625 9.714844 2.648438 9.742188 2.65625 9.742188 C 2.664062 9.742188 2.671875 9.777344 2.671875 9.816406 C 2.671875 9.855469 2.679688 9.886719 2.6875 9.886719 C 2.699219 9.886719 2.707031 9.925781 2.730469 10.117188 C 2.734375 10.15625 2.746094 10.191406 2.753906 10.191406 C 2.761719 10.191406 2.769531 10.222656 2.769531 10.257812 C 2.769531 10.292969 2.773438 10.320312 2.785156 10.320312 C 2.792969 10.320312 2.800781 10.355469 2.800781 10.398438 C 2.800781 10.445312 2.808594 10.480469 2.816406 10.480469 C 2.824219 10.480469 2.832031 10.507812 2.832031 10.542969 C 2.832031 10.578125 2.839844 10.609375 2.847656 10.609375 C 2.855469 10.609375 2.863281 10.644531 2.863281 10.691406 C 2.863281 10.753906 2.867188 10.769531 2.878906 10.753906 C 2.890625 10.734375 2.894531 10.746094 2.894531 10.800781 C 2.894531 10.839844 2.902344 10.878906 2.910156 10.890625 C 2.917969 10.898438 2.929688 10.933594 2.929688 10.972656 C 2.933594 11.007812 2.941406 11.039062 2.945312 11.039062 C 2.953125 11.039062 2.960938 11.070312 2.960938 11.105469 C 2.960938 11.140625 2.964844 11.167969 2.972656 11.167969 C 2.980469 11.167969 2.992188 11.210938 2.996094 11.261719 C 3.003906 11.3125 3.011719 11.371094 3.015625 11.390625 C 3.019531 11.414062 3.027344 11.460938 3.035156 11.496094 C 3.039062 11.53125 3.046875 11.574219 3.054688 11.59375 C 3.070312 11.625 3.082031 11.6875 3.097656 11.8125 C 3.105469 11.855469 3.113281 11.886719 3.121094 11.886719 C 3.128906 11.886719 3.136719 11.917969 3.140625 11.957031 C 3.160156 12.089844 3.171875 12.152344 3.183594 12.167969 C 3.191406 12.179688 3.199219 12.214844 3.203125 12.253906 C 3.203125 12.289062 3.210938 12.320312 3.21875 12.320312 C 3.226562 12.320312 3.230469 12.347656 3.230469 12.382812 C 3.230469 12.417969 3.238281 12.449219 3.246094 12.449219 C 3.257812 12.449219 3.265625 12.484375 3.265625 12.527344 C 3.265625 12.570312 3.269531 12.609375 3.28125 12.609375 C 3.289062 12.609375 3.296875 12.636719 3.296875 12.671875 C 3.296875 12.707031 3.304688 12.734375 3.3125 12.734375 C 3.320312 12.734375 3.328125 12.769531 3.328125 12.808594 C 3.328125 12.847656 3.335938 12.882812 3.34375 12.886719 C 3.351562 12.894531 3.359375 12.921875 3.359375 12.953125 C 3.359375 12.984375 3.367188 13.007812 3.375 13.007812 C 3.386719 13.007812 3.390625 13.042969 3.390625 13.089844 C 3.390625 13.132812 3.398438 13.167969 3.40625 13.167969 C 3.414062 13.167969 3.425781 13.199219 3.429688 13.234375 C 3.453125 13.398438 3.460938 13.441406 3.472656 13.449219 C 3.480469 13.453125 3.488281 13.484375 3.488281 13.519531 C 3.488281 13.554688 3.496094 13.585938 3.503906 13.59375 C 3.511719 13.597656 3.519531 13.628906 3.519531 13.664062 C 3.519531 13.699219 3.527344 13.726562 3.535156 13.726562 C 3.542969 13.726562 3.550781 13.765625 3.550781 13.808594 C 3.550781 13.851562 3.558594 13.886719 3.566406 13.886719 C 3.578125 13.886719 3.585938 13.914062 3.585938 13.941406 C 3.585938 13.972656 3.589844 14.003906 3.601562 14.007812 C 3.609375 14.011719 3.617188 14.054688 3.617188 14.097656 C 3.617188 14.140625 3.621094 14.175781 3.628906 14.167969 C 3.636719 14.164062 3.648438 14.199219 3.652344 14.246094 C 3.667969 14.359375 3.703125 14.523438 3.714844 14.539062 C 3.722656 14.542969 3.726562 14.5625 3.726562 14.578125 C 3.726562 14.601562 3.757812 14.671875 3.8125 14.777344 C 3.820312 14.792969 3.84375 14.835938 3.863281 14.871094 C 3.882812 14.90625 3.914062 14.953125 3.9375 14.976562 C 3.964844 15 3.980469 15.023438 3.976562 15.027344 C 3.964844 15.039062 4.285156 15.359375 4.308594 15.359375 C 4.320312 15.359375 4.335938 15.375 4.347656 15.390625 C 4.359375 15.410156 4.375 15.425781 4.386719 15.425781 C 4.394531 15.425781 4.417969 15.4375 4.4375 15.457031 C 4.453125 15.472656 4.480469 15.488281 4.492188 15.488281 C 4.503906 15.488281 4.511719 15.496094 4.511719 15.503906 C 4.511719 15.511719 4.519531 15.519531 4.53125 15.519531 C 4.5625 15.519531 4.640625 15.558594 4.640625 15.570312 C 4.640625 15.578125 4.652344 15.585938 4.664062 15.585938 C 4.675781 15.585938 4.699219 15.589844 4.714844 15.597656 C 4.773438 15.628906 4.917969 15.664062 4.976562 15.664062 C 5.011719 15.664062 5.042969 15.671875 5.046875 15.679688 C 5.0625 15.703125 10.9375 15.703125 10.953125 15.679688 C 10.957031 15.671875 10.988281 15.664062 11.019531 15.664062 C 11.078125 15.664062 11.230469 15.625 11.285156 15.597656 C 11.300781 15.589844 11.324219 15.585938 11.335938 15.585938 C 11.347656 15.585938 11.359375 15.578125 11.359375 15.570312 C 11.359375 15.558594 11.4375 15.519531 11.46875 15.519531 C 11.480469 15.519531 11.488281 15.511719 11.488281 15.503906 C 11.488281 15.496094 11.496094 15.488281 11.507812 15.488281 C 11.519531 15.488281 11.546875 15.472656 11.5625 15.457031 C 11.582031 15.4375 11.605469 15.425781 11.613281 15.425781 C 11.625 15.425781 11.640625 15.410156 11.652344 15.390625 C 11.664062 15.375 11.679688 15.359375 11.691406 15.359375 C 11.714844 15.359375 12.015625 15.066406 12.019531 15.035156 C 12.023438 15.023438 12.042969 15 12.0625 14.976562 C 12.085938 14.953125 12.117188 14.90625 12.136719 14.871094 C 12.15625 14.835938 12.179688 14.792969 12.1875 14.777344 C 12.242188 14.671875 12.273438 14.601562 12.273438 14.578125 C 12.273438 14.5625 12.277344 14.542969 12.285156 14.539062 C 12.296875 14.523438 12.332031 14.359375 12.347656 14.246094 C 12.351562 14.199219 12.363281 14.164062 12.371094 14.167969 C 12.378906 14.175781 12.382812 14.140625 12.382812 14.097656 C 12.382812 14.050781 12.390625 14.015625 12.398438 14.015625 C 12.410156 14.015625 12.414062 13.988281 12.414062 13.953125 C 12.414062 13.917969 12.421875 13.886719 12.433594 13.886719 C 12.441406 13.886719 12.449219 13.851562 12.449219 13.808594 C 12.449219 13.765625 12.457031 13.726562 12.464844 13.726562 C 12.472656 13.726562 12.480469 13.699219 12.480469 13.664062 C 12.480469 13.628906 12.488281 13.601562 12.496094 13.601562 C 12.503906 13.601562 12.511719 13.566406 12.511719 13.527344 C 12.511719 13.488281 12.519531 13.453125 12.527344 13.449219 C 12.535156 13.441406 12.542969 13.40625 12.542969 13.367188 C 12.542969 13.320312 12.550781 13.296875 12.558594 13.304688 C 12.570312 13.308594 12.574219 13.285156 12.574219 13.242188 C 12.574219 13.199219 12.582031 13.167969 12.59375 13.167969 C 12.601562 13.167969 12.609375 13.132812 12.609375 13.089844 C 12.609375 13.042969 12.613281 13.007812 12.625 13.007812 C 12.632812 13.007812 12.640625 12.984375 12.640625 12.953125 C 12.640625 12.921875 12.648438 12.894531 12.65625 12.886719 C 12.664062 12.882812 12.671875 12.847656 12.671875 12.808594 C 12.671875 12.769531 12.679688 12.734375 12.6875 12.730469 C 12.699219 12.722656 12.707031 12.679688 12.730469 12.515625 C 12.734375 12.480469 12.746094 12.449219 12.753906 12.449219 C 12.761719 12.449219 12.769531 12.410156 12.769531 12.367188 C 12.769531 12.316406 12.773438 12.289062 12.785156 12.296875 C 12.792969 12.300781 12.800781 12.28125 12.800781 12.246094 C 12.800781 12.210938 12.804688 12.175781 12.8125 12.167969 C 12.820312 12.160156 12.832031 12.125 12.835938 12.089844 C 12.84375 12.054688 12.855469 11.988281 12.863281 11.945312 C 12.875 11.898438 12.886719 11.839844 12.890625 11.808594 C 12.894531 11.777344 12.902344 11.738281 12.910156 11.71875 C 12.917969 11.703125 12.929688 11.664062 12.933594 11.632812 C 12.9375 11.601562 12.945312 11.558594 12.949219 11.535156 C 12.964844 11.476562 12.980469 11.402344 12.988281 11.375 C 12.988281 11.363281 12.996094 11.3125 13 11.261719 C 13.007812 11.210938 13.019531 11.167969 13.027344 11.167969 C 13.035156 11.167969 13.039062 11.140625 13.039062 11.105469 C 13.039062 11.070312 13.046875 11.039062 13.054688 11.039062 C 13.066406 11.039062 13.070312 11.007812 13.070312 10.96875 C 13.070312 10.929688 13.078125 10.894531 13.089844 10.894531 C 13.097656 10.894531 13.105469 10.859375 13.105469 10.816406 C 13.105469 10.765625 13.109375 10.738281 13.121094 10.742188 C 13.128906 10.75 13.136719 10.726562 13.136719 10.679688 C 13.136719 10.640625 13.144531 10.609375 13.152344 10.609375 C 13.160156 10.609375 13.167969 10.570312 13.167969 10.527344 C 13.167969 10.484375 13.175781 10.449219 13.183594 10.449219 C 13.191406 10.449219 13.199219 10.414062 13.199219 10.375 C 13.199219 10.332031 13.207031 10.304688 13.214844 10.3125 C 13.226562 10.316406 13.230469 10.292969 13.230469 10.25 C 13.230469 10.210938 13.238281 10.171875 13.246094 10.167969 C 13.257812 10.164062 13.265625 10.128906 13.265625 10.097656 C 13.265625 10.0625 13.269531 10.03125 13.28125 10.023438 C 13.289062 10.019531 13.296875 9.984375 13.296875 9.949219 C 13.296875 9.917969 13.304688 9.886719 13.3125 9.886719 C 13.320312 9.886719 13.328125 9.855469 13.328125 9.816406 C 13.328125 9.777344 13.335938 9.742188 13.34375 9.742188 C 13.351562 9.742188 13.359375 9.714844 13.359375 9.679688 C 13.359375 9.644531 13.367188 9.613281 13.375 9.609375 C 13.386719 9.601562 13.390625 9.570312 13.390625 9.535156 C 13.390625 9.5 13.398438 9.46875 13.40625 9.464844 C 13.417969 9.457031 13.425781 9.425781 13.425781 9.390625 C 13.425781 9.355469 13.429688 9.328125 13.441406 9.328125 C 13.449219 9.328125 13.457031 9.292969 13.457031 9.246094 C 13.457031 9.203125 13.460938 9.167969 13.46875 9.167969 C 13.476562 9.167969 13.484375 9.140625 13.484375 9.109375 C 13.488281 9.074219 13.496094 9.046875 13.5 9.039062 C 13.507812 9.035156 13.515625 9.011719 13.515625 8.984375 C 13.519531 8.953125 13.546875 8.914062 13.59375 8.871094 C 13.632812 8.832031 13.664062 8.796875 13.664062 8.792969 C 13.664062 8.789062 13.695312 8.75 13.730469 8.714844 C 13.8125 8.632812 13.855469 8.578125 13.855469 8.566406 C 13.855469 8.5625 13.878906 8.535156 13.902344 8.511719 C 13.929688 8.488281 13.953125 8.457031 13.953125 8.441406 C 13.953125 8.425781 13.960938 8.414062 13.96875 8.414062 C 13.976562 8.414062 13.984375 8.40625 13.984375 8.390625 C 13.984375 8.378906 13.992188 8.367188 14 8.367188 C 14.007812 8.367188 14.015625 8.355469 14.015625 8.34375 C 14.015625 8.332031 14.023438 8.320312 14.03125 8.320312 C 14.039062 8.320312 14.046875 8.308594 14.046875 8.296875 C 14.046875 8.265625 14.089844 8.191406 14.101562 8.203125 C 14.105469 8.207031 14.113281 8.195312 14.113281 8.171875 C 14.113281 8.152344 14.125 8.121094 14.140625 8.101562 C 14.164062 8.074219 14.269531 7.792969 14.277344 7.726562 C 14.28125 7.714844 14.285156 7.695312 14.292969 7.683594 C 14.300781 7.671875 14.300781 7.65625 14.296875 7.648438 C 14.289062 7.640625 14.292969 7.621094 14.296875 7.613281 C 14.316406 7.585938 14.324219 7.542969 14.324219 7.46875 C 14.328125 7.433594 14.332031 7.40625 14.339844 7.40625 C 14.34375 7.40625 14.351562 7.332031 14.355469 7.234375 C 14.363281 7.140625 14.367188 7.035156 14.375 6.996094 C 14.378906 6.953125 14.378906 6.929688 14.367188 6.929688 C 14.359375 6.929688 14.351562 6.921875 14.355469 6.914062 C 14.363281 6.863281 14.347656 6.511719 14.339844 6.519531 C 14.332031 6.523438 14.328125 6.496094 14.324219 6.460938 C 14.324219 6.429688 14.316406 6.390625 14.308594 6.378906 C 14.296875 6.367188 14.292969 6.335938 14.296875 6.308594 C 14.300781 6.28125 14.292969 6.242188 14.277344 6.214844 C 14.265625 6.191406 14.261719 6.15625 14.265625 6.140625 C 14.273438 6.113281 14.269531 6.109375 14.25 6.117188 C 14.230469 6.125 14.226562 6.117188 14.234375 6.089844 C 14.238281 6.066406 14.230469 6.039062 14.21875 6.027344 C 14.207031 6.015625 14.199219 6 14.203125 5.988281 C 14.207031 5.976562 14.199219 5.949219 14.183594 5.925781 C 14.171875 5.90625 14.164062 5.878906 14.167969 5.871094 C 14.171875 5.863281 14.167969 5.859375 14.15625 5.867188 C 14.140625 5.871094 14.125 5.867188 14.121094 5.855469 C 14.113281 5.84375 14.113281 5.839844 14.125 5.847656 C 14.160156 5.867188 14.144531 5.777344 14.113281 5.753906 C 14.09375 5.742188 14.085938 5.730469 14.089844 5.722656 C 14.121094 5.695312 14.019531 5.59375 13.988281 5.621094 C 13.96875 5.636719 13.964844 5.636719 13.972656 5.617188 C 13.976562 5.601562 13.996094 5.59375 14.019531 5.59375 C 14.039062 5.597656 14.046875 5.59375 14.035156 5.589844 C 14.023438 5.585938 14.015625 5.566406 14.015625 5.546875 C 14.015625 5.511719 14.011719 5.511719 14 5.542969 C 13.992188 5.5625 13.984375 5.570312 13.984375 5.558594 C 13.980469 5.550781 13.980469 5.535156 13.976562 5.527344 C 13.964844 5.464844 13.910156 5.398438 13.910156 5.449219 M 2.84375 5.472656 C 2.835938 5.496094 2.824219 5.503906 2.808594 5.5 C 2.777344 5.484375 2.761719 5.511719 2.792969 5.535156 C 2.808594 5.550781 2.816406 5.550781 2.816406 5.539062 C 2.816406 5.527344 2.828125 5.519531 2.839844 5.519531 C 2.851562 5.519531 2.863281 5.511719 2.863281 5.503906 C 2.863281 5.496094 2.867188 5.480469 2.875 5.464844 C 2.878906 5.453125 2.875 5.441406 2.867188 5.441406 C 2.859375 5.441406 2.847656 5.457031 2.84375 5.472656 M 12.671875 9.359375 C 12.671875 9.375 12.667969 9.394531 12.660156 9.398438 C 12.652344 9.402344 12.644531 9.4375 12.640625 9.476562 C 12.640625 9.511719 12.632812 9.546875 12.625 9.550781 C 12.613281 9.550781 12.609375 9.585938 12.609375 9.625 C 12.609375 9.664062 12.601562 9.699219 12.59375 9.703125 C 12.582031 9.710938 12.574219 9.738281 12.574219 9.769531 C 12.574219 9.796875 12.570312 9.824219 12.5625 9.828125 C 12.554688 9.835938 12.550781 9.867188 12.546875 9.898438 C 12.542969 9.933594 12.535156 9.96875 12.527344 9.976562 C 12.519531 9.984375 12.511719 10.019531 12.511719 10.050781 C 12.511719 10.085938 12.507812 10.113281 12.5 10.113281 C 12.492188 10.113281 12.484375 10.140625 12.480469 10.171875 C 12.480469 10.203125 12.476562 10.242188 12.476562 10.253906 C 12.476562 10.261719 12.46875 10.273438 12.460938 10.273438 C 12.453125 10.273438 12.449219 10.300781 12.449219 10.335938 C 12.449219 10.371094 12.441406 10.398438 12.4375 10.398438 C 12.429688 10.398438 12.421875 10.433594 12.417969 10.476562 C 12.417969 10.515625 12.410156 10.558594 12.402344 10.566406 C 12.386719 10.585938 12.367188 10.671875 12.363281 10.753906 C 12.359375 10.789062 12.355469 10.820312 12.347656 10.824219 C 12.339844 10.832031 12.335938 10.863281 12.335938 10.898438 C 12.335938 10.929688 12.328125 10.960938 12.320312 10.96875 C 12.3125 10.972656 12.304688 11.011719 12.304688 11.050781 C 12.304688 11.09375 12.296875 11.117188 12.289062 11.113281 C 12.277344 11.105469 12.273438 11.128906 12.273438 11.167969 C 12.273438 11.203125 12.265625 11.234375 12.257812 11.238281 C 12.246094 11.246094 12.238281 11.28125 12.238281 11.320312 C 12.238281 11.359375 12.234375 11.390625 12.222656 11.390625 C 12.214844 11.390625 12.207031 11.421875 12.207031 11.457031 C 12.207031 11.492188 12.199219 11.519531 12.191406 11.519531 C 12.183594 11.519531 12.175781 11.554688 12.175781 11.601562 C 12.175781 11.644531 12.167969 11.679688 12.160156 11.679688 C 12.152344 11.679688 12.144531 11.707031 12.144531 11.742188 C 12.144531 11.777344 12.136719 11.808594 12.128906 11.808594 C 12.121094 11.808594 12.113281 11.839844 12.113281 11.878906 C 12.113281 11.917969 12.105469 11.953125 12.097656 11.953125 C 12.085938 11.953125 12.078125 11.980469 12.078125 12.015625 C 12.078125 12.050781 12.074219 12.082031 12.0625 12.089844 C 12.054688 12.09375 12.046875 12.128906 12.046875 12.167969 C 12.046875 12.207031 12.039062 12.238281 12.03125 12.238281 C 12.023438 12.238281 12.015625 12.269531 12.015625 12.304688 C 12.015625 12.335938 12.007812 12.371094 12 12.375 C 11.992188 12.382812 11.984375 12.417969 11.984375 12.457031 C 11.984375 12.496094 11.976562 12.527344 11.96875 12.527344 C 11.960938 12.527344 11.953125 12.554688 11.953125 12.589844 C 11.953125 12.625 11.945312 12.660156 11.9375 12.664062 C 11.925781 12.667969 11.921875 12.703125 11.921875 12.738281 C 11.921875 12.773438 11.914062 12.800781 11.902344 12.800781 C 11.894531 12.800781 11.886719 12.828125 11.886719 12.863281 C 11.886719 12.898438 11.882812 12.929688 11.875 12.929688 C 11.867188 12.929688 11.859375 12.960938 11.859375 13.003906 C 11.855469 13.046875 11.847656 13.082031 11.839844 13.085938 C 11.828125 13.097656 11.816406 13.15625 11.796875 13.292969 C 11.792969 13.328125 11.78125 13.359375 11.777344 13.359375 C 11.769531 13.359375 11.757812 13.394531 11.753906 13.4375 C 11.742188 13.542969 11.726562 13.617188 11.710938 13.65625 C 11.695312 13.691406 11.664062 13.878906 11.652344 13.988281 C 11.648438 14.03125 11.636719 14.058594 11.628906 14.054688 C 11.621094 14.050781 11.617188 14.082031 11.617188 14.128906 C 11.617188 14.171875 11.609375 14.207031 11.601562 14.207031 C 11.589844 14.207031 11.585938 14.230469 11.585938 14.257812 C 11.585938 14.28125 11.578125 14.304688 11.566406 14.304688 C 11.558594 14.304688 11.550781 14.320312 11.550781 14.335938 C 11.550781 14.363281 11.527344 14.425781 11.503906 14.449219 C 11.5 14.453125 11.484375 14.476562 11.472656 14.5 C 11.460938 14.523438 11.4375 14.558594 11.421875 14.574219 C 11.40625 14.59375 11.390625 14.613281 11.390625 14.617188 C 11.390625 14.632812 11.277344 14.734375 11.257812 14.734375 C 11.246094 14.734375 11.230469 14.75 11.214844 14.769531 C 11.203125 14.785156 11.183594 14.800781 11.171875 14.800781 C 11.160156 14.800781 11.152344 14.808594 11.152344 14.816406 C 11.152344 14.824219 11.140625 14.832031 11.128906 14.832031 C 11.113281 14.832031 11.105469 14.839844 11.105469 14.847656 C 11.105469 14.855469 11.089844 14.863281 11.070312 14.863281 C 11.054688 14.863281 11.039062 14.871094 11.039062 14.878906 C 11.039062 14.890625 11.023438 14.894531 11 14.894531 C 10.976562 14.894531 10.960938 14.902344 10.960938 14.910156 C 10.960938 14.921875 10.929688 14.929688 10.894531 14.929688 C 10.859375 14.929688 10.832031 14.933594 10.832031 14.945312 C 10.832031 14.953125 9.878906 14.960938 8 14.960938 C 6.121094 14.960938 5.167969 14.953125 5.167969 14.945312 C 5.167969 14.933594 5.144531 14.929688 5.121094 14.929688 C 5.09375 14.929688 5.070312 14.921875 5.070312 14.910156 C 5.070312 14.902344 5.050781 14.894531 5.023438 14.894531 C 5 14.894531 4.976562 14.890625 4.972656 14.882812 C 4.96875 14.878906 4.933594 14.855469 4.886719 14.832031 C 4.84375 14.808594 4.796875 14.78125 4.78125 14.765625 C 4.769531 14.75 4.746094 14.734375 4.738281 14.734375 C 4.71875 14.734375 4.609375 14.632812 4.605469 14.613281 C 4.605469 14.605469 4.585938 14.574219 4.558594 14.542969 C 4.535156 14.515625 4.511719 14.480469 4.511719 14.46875 C 4.511719 14.457031 4.507812 14.449219 4.5 14.449219 C 4.484375 14.449219 4.449219 14.367188 4.449219 14.332031 C 4.449219 14.316406 4.441406 14.304688 4.433594 14.304688 C 4.421875 14.304688 4.414062 14.28125 4.414062 14.257812 C 4.414062 14.230469 4.410156 14.207031 4.398438 14.207031 C 4.390625 14.207031 4.382812 14.175781 4.382812 14.136719 C 4.382812 14.097656 4.375 14.0625 4.367188 14.054688 C 4.359375 14.050781 4.351562 14.027344 4.351562 14.003906 C 4.351562 13.980469 4.339844 13.910156 4.328125 13.847656 C 4.316406 13.785156 4.300781 13.714844 4.296875 13.6875 C 4.277344 13.578125 4.261719 13.507812 4.25 13.492188 C 4.246094 13.484375 4.238281 13.449219 4.238281 13.417969 C 4.234375 13.382812 4.226562 13.355469 4.21875 13.351562 C 4.214844 13.34375 4.207031 13.308594 4.207031 13.269531 C 4.207031 13.230469 4.199219 13.199219 4.191406 13.199219 C 4.183594 13.199219 4.175781 13.171875 4.175781 13.136719 C 4.175781 13.101562 4.167969 13.070312 4.160156 13.0625 C 4.152344 13.058594 4.144531 13.027344 4.144531 12.992188 C 4.144531 12.957031 4.136719 12.925781 4.128906 12.921875 C 4.121094 12.917969 4.109375 12.882812 4.105469 12.84375 C 4.101562 12.804688 4.089844 12.746094 4.085938 12.710938 C 4.082031 12.675781 4.070312 12.640625 4.0625 12.632812 C 4.054688 12.625 4.046875 12.585938 4.046875 12.546875 C 4.046875 12.511719 4.039062 12.480469 4.03125 12.480469 C 4.023438 12.480469 4.015625 12.449219 4.015625 12.40625 C 4.015625 12.367188 4.007812 12.335938 4 12.335938 C 3.992188 12.335938 3.984375 12.304688 3.984375 12.265625 C 3.984375 12.222656 3.976562 12.191406 3.96875 12.191406 C 3.960938 12.191406 3.953125 12.160156 3.953125 12.121094 C 3.953125 12.082031 3.945312 12.046875 3.9375 12.046875 C 3.925781 12.046875 3.921875 12.015625 3.921875 11.976562 C 3.921875 11.9375 3.914062 11.902344 3.902344 11.902344 C 3.894531 11.902344 3.886719 11.871094 3.886719 11.832031 C 3.886719 11.792969 3.878906 11.761719 3.871094 11.761719 C 3.863281 11.761719 3.855469 11.726562 3.855469 11.6875 C 3.855469 11.648438 3.847656 11.617188 3.839844 11.617188 C 3.832031 11.617188 3.824219 11.585938 3.824219 11.550781 C 3.824219 11.515625 3.816406 11.488281 3.808594 11.488281 C 3.800781 11.488281 3.792969 11.453125 3.792969 11.40625 C 3.792969 11.363281 3.785156 11.328125 3.777344 11.328125 C 3.765625 11.328125 3.761719 11.296875 3.761719 11.257812 C 3.761719 11.214844 3.753906 11.183594 3.742188 11.183594 C 3.734375 11.183594 3.726562 11.152344 3.726562 11.109375 C 3.726562 11.066406 3.722656 11.042969 3.710938 11.046875 C 3.703125 11.054688 3.695312 11.027344 3.695312 10.976562 C 3.695312 10.933594 3.691406 10.894531 3.679688 10.894531 C 3.671875 10.894531 3.664062 10.863281 3.660156 10.820312 C 3.652344 10.777344 3.644531 10.71875 3.640625 10.6875 C 3.636719 10.65625 3.628906 10.597656 3.621094 10.558594 C 3.617188 10.519531 3.605469 10.480469 3.597656 10.472656 C 3.589844 10.464844 3.585938 10.433594 3.585938 10.40625 C 3.585938 10.378906 3.578125 10.351562 3.570312 10.34375 C 3.5625 10.335938 3.550781 10.296875 3.550781 10.257812 C 3.546875 10.214844 3.539062 10.179688 3.53125 10.175781 C 3.527344 10.171875 3.519531 10.140625 3.515625 10.109375 C 3.515625 10.074219 3.507812 10.046875 3.503906 10.046875 C 3.5 10.046875 3.492188 10.015625 3.488281 9.972656 C 3.488281 9.929688 3.480469 9.894531 3.472656 9.890625 C 3.460938 9.886719 3.457031 9.851562 3.457031 9.8125 C 3.457031 9.769531 3.449219 9.746094 3.441406 9.753906 C 3.429688 9.757812 3.425781 9.734375 3.425781 9.691406 C 3.425781 9.652344 3.417969 9.617188 3.410156 9.613281 C 3.402344 9.609375 3.390625 9.578125 3.390625 9.539062 C 3.386719 9.503906 3.378906 9.472656 3.371094 9.472656 C 3.367188 9.472656 3.359375 9.445312 3.359375 9.414062 L 3.359375 9.359375 L 7.949219 9.359375 C 10.996094 9.359375 12.546875 9.355469 12.550781 9.34375 C 12.570312 9.3125 12.671875 9.324219 12.671875 9.359375 M 10.390625 10.3125 C 10.394531 10.320312 10.386719 10.347656 10.375 10.378906 C 10.363281 10.40625 10.355469 10.433594 10.355469 10.4375 C 10.359375 10.464844 10.328125 10.644531 10.316406 10.648438 C 10.308594 10.652344 10.304688 10.691406 10.304688 10.730469 C 10.304688 10.769531 10.296875 10.800781 10.289062 10.800781 C 10.277344 10.800781 10.273438 10.828125 10.273438 10.863281 C 10.273438 10.898438 10.265625 10.929688 10.257812 10.929688 C 10.246094 10.929688 10.238281 10.953125 10.238281 10.984375 C 10.238281 11.011719 10.234375 11.042969 10.222656 11.046875 C 10.214844 11.054688 10.207031 11.085938 10.207031 11.121094 C 10.207031 11.160156 10.203125 11.183594 10.191406 11.175781 C 10.183594 11.171875 10.175781 11.195312 10.175781 11.238281 C 10.175781 11.277344 10.167969 11.316406 10.160156 11.320312 C 10.152344 11.324219 10.144531 11.359375 10.144531 11.394531 C 10.144531 11.425781 10.136719 11.457031 10.128906 11.457031 C 10.121094 11.457031 10.113281 11.484375 10.113281 11.519531 C 10.113281 11.554688 10.105469 11.585938 10.097656 11.585938 C 10.085938 11.585938 10.078125 11.613281 10.078125 11.648438 C 10.078125 11.683594 10.074219 11.710938 10.066406 11.710938 C 10.050781 11.710938 10.042969 11.75 10.023438 11.914062 C 10.015625 11.953125 10.007812 11.984375 10 11.984375 C 9.992188 11.984375 9.984375 12.011719 9.984375 12.046875 C 9.984375 12.082031 9.976562 12.113281 9.96875 12.113281 C 9.960938 12.113281 9.953125 12.140625 9.953125 12.175781 C 9.953125 12.210938 9.945312 12.238281 9.9375 12.238281 C 9.925781 12.238281 9.921875 12.269531 9.921875 12.304688 C 9.921875 12.335938 9.914062 12.371094 9.902344 12.375 C 9.894531 12.382812 9.886719 12.410156 9.886719 12.441406 C 9.886719 12.46875 9.878906 12.5 9.871094 12.503906 C 9.863281 12.507812 9.855469 12.542969 9.855469 12.574219 C 9.855469 12.609375 9.847656 12.640625 9.839844 12.648438 C 9.832031 12.652344 9.824219 12.683594 9.824219 12.714844 C 9.824219 12.742188 9.816406 12.769531 9.808594 12.769531 C 9.800781 12.769531 9.792969 12.796875 9.785156 12.835938 C 9.78125 12.875 9.769531 12.933594 9.761719 12.96875 C 9.710938 13.160156 9.664062 13.390625 9.652344 13.484375 C 9.648438 13.519531 9.636719 13.550781 9.628906 13.550781 C 9.621094 13.550781 9.617188 13.582031 9.617188 13.617188 C 9.617188 13.652344 9.609375 13.679688 9.601562 13.679688 C 9.589844 13.679688 9.585938 13.71875 9.585938 13.769531 L 9.585938 13.855469 L 9.640625 13.855469 C 9.667969 13.855469 9.699219 13.863281 9.703125 13.871094 C 9.710938 13.878906 9.738281 13.886719 9.769531 13.886719 C 9.800781 13.886719 9.824219 13.894531 9.824219 13.902344 C 9.824219 13.914062 9.851562 13.921875 9.886719 13.921875 C 9.921875 13.921875 9.953125 13.925781 9.960938 13.9375 C 9.964844 13.945312 9.996094 13.953125 10.023438 13.953125 C 10.054688 13.953125 10.078125 13.960938 10.078125 13.96875 C 10.078125 13.976562 10.109375 13.984375 10.144531 13.984375 C 10.175781 13.984375 10.210938 13.992188 10.214844 14 C 10.253906 14.0625 10.324219 13.863281 10.347656 13.628906 C 10.351562 13.585938 10.363281 13.550781 10.371094 13.550781 C 10.378906 13.550781 10.382812 13.523438 10.382812 13.488281 C 10.382812 13.453125 10.390625 13.425781 10.398438 13.425781 C 10.410156 13.425781 10.414062 13.390625 10.414062 13.351562 C 10.414062 13.304688 10.421875 13.28125 10.433594 13.289062 C 10.441406 13.292969 10.449219 13.273438 10.449219 13.234375 C 10.449219 13.195312 10.457031 13.167969 10.464844 13.167969 C 10.472656 13.167969 10.480469 13.140625 10.480469 13.105469 C 10.480469 13.070312 10.488281 13.039062 10.496094 13.03125 C 10.503906 13.027344 10.511719 12.992188 10.511719 12.960938 C 10.511719 12.925781 10.519531 12.894531 10.527344 12.894531 C 10.535156 12.894531 10.542969 12.867188 10.542969 12.832031 C 10.542969 12.796875 10.550781 12.765625 10.558594 12.761719 C 10.570312 12.753906 10.574219 12.726562 10.574219 12.695312 C 10.574219 12.664062 10.582031 12.640625 10.59375 12.640625 C 10.601562 12.640625 10.609375 12.609375 10.609375 12.566406 C 10.609375 12.527344 10.613281 12.496094 10.625 12.496094 C 10.632812 12.496094 10.640625 12.464844 10.640625 12.425781 C 10.640625 12.382812 10.648438 12.351562 10.65625 12.351562 C 10.664062 12.351562 10.671875 12.324219 10.671875 12.289062 C 10.671875 12.253906 10.679688 12.222656 10.6875 12.222656 C 10.695312 12.222656 10.703125 12.199219 10.703125 12.167969 C 10.703125 12.140625 10.710938 12.109375 10.71875 12.105469 C 10.730469 12.097656 10.734375 12.0625 10.734375 12.023438 C 10.734375 11.976562 10.742188 11.953125 10.753906 11.960938 C 10.761719 11.964844 10.769531 11.941406 10.769531 11.898438 C 10.769531 11.855469 10.773438 11.824219 10.785156 11.824219 C 10.792969 11.824219 10.800781 11.796875 10.800781 11.761719 C 10.800781 11.726562 10.808594 11.695312 10.816406 11.695312 C 10.824219 11.695312 10.832031 11.675781 10.832031 11.648438 C 10.832031 11.621094 10.839844 11.585938 10.847656 11.570312 C 10.855469 11.554688 10.863281 11.515625 10.867188 11.480469 C 10.867188 11.449219 10.875 11.425781 10.882812 11.425781 C 10.890625 11.425781 10.894531 11.394531 10.894531 11.359375 C 10.894531 11.328125 10.902344 11.292969 10.910156 11.289062 C 10.917969 11.285156 10.929688 11.253906 10.933594 11.21875 C 10.9375 11.1875 10.949219 11.128906 10.957031 11.089844 C 10.96875 11.046875 10.980469 11 10.984375 10.984375 C 10.988281 10.964844 10.996094 10.914062 11.007812 10.863281 C 11.019531 10.816406 11.03125 10.746094 11.035156 10.707031 C 11.039062 10.671875 11.050781 10.640625 11.058594 10.640625 C 11.066406 10.640625 11.070312 10.605469 11.070312 10.566406 C 11.070312 10.523438 11.078125 10.496094 11.089844 10.503906 C 11.097656 10.507812 11.105469 10.503906 11.105469 10.488281 C 11.105469 10.476562 11.089844 10.460938 11.070312 10.457031 C 11.054688 10.449219 11.039062 10.441406 11.039062 10.433594 C 11.039062 10.425781 11.03125 10.421875 11.019531 10.421875 C 11 10.425781 10.824219 10.386719 10.785156 10.371094 C 10.769531 10.367188 10.746094 10.363281 10.726562 10.359375 C 10.707031 10.359375 10.683594 10.355469 10.679688 10.347656 C 10.671875 10.339844 10.640625 10.335938 10.605469 10.335938 C 10.570312 10.335938 10.542969 10.328125 10.542969 10.320312 C 10.542969 10.3125 10.507812 10.304688 10.460938 10.304688 C 10.414062 10.304688 10.382812 10.308594 10.390625 10.3125 M 5.296875 10.371094 C 5.210938 10.386719 5.113281 10.40625 5.078125 10.410156 C 4.992188 10.421875 4.894531 10.464844 4.894531 10.492188 C 4.894531 10.503906 4.902344 10.507812 4.910156 10.503906 C 4.921875 10.496094 4.929688 10.523438 4.929688 10.566406 C 4.929688 10.605469 4.933594 10.640625 4.941406 10.640625 C 4.949219 10.640625 4.960938 10.671875 4.964844 10.707031 C 4.96875 10.746094 4.980469 10.816406 4.992188 10.863281 C 5.003906 10.914062 5.011719 10.964844 5.015625 10.984375 C 5.019531 11 5.03125 11.046875 5.039062 11.089844 C 5.050781 11.128906 5.0625 11.183594 5.066406 11.214844 C 5.070312 11.246094 5.078125 11.285156 5.085938 11.304688 C 5.09375 11.320312 5.109375 11.378906 5.121094 11.433594 C 5.128906 11.484375 5.144531 11.542969 5.152344 11.566406 C 5.160156 11.585938 5.167969 11.621094 5.167969 11.648438 C 5.167969 11.675781 5.175781 11.695312 5.183594 11.695312 C 5.191406 11.695312 5.199219 11.726562 5.199219 11.761719 C 5.199219 11.796875 5.207031 11.824219 5.214844 11.824219 C 5.226562 11.824219 5.230469 11.855469 5.230469 11.894531 C 5.230469 11.9375 5.238281 11.96875 5.246094 11.96875 C 5.257812 11.96875 5.265625 11.996094 5.265625 12.03125 C 5.265625 12.066406 5.269531 12.097656 5.28125 12.097656 C 5.289062 12.097656 5.296875 12.125 5.296875 12.160156 C 5.296875 12.195312 5.304688 12.222656 5.3125 12.222656 C 5.320312 12.222656 5.328125 12.253906 5.328125 12.289062 C 5.328125 12.324219 5.335938 12.351562 5.34375 12.351562 C 5.351562 12.351562 5.359375 12.382812 5.359375 12.425781 C 5.359375 12.464844 5.367188 12.496094 5.375 12.496094 C 5.386719 12.496094 5.390625 12.527344 5.390625 12.566406 C 5.390625 12.609375 5.398438 12.640625 5.40625 12.640625 C 5.417969 12.640625 5.425781 12.664062 5.425781 12.695312 C 5.425781 12.726562 5.429688 12.753906 5.441406 12.761719 C 5.449219 12.765625 5.457031 12.796875 5.457031 12.832031 C 5.457031 12.867188 5.464844 12.894531 5.472656 12.894531 C 5.480469 12.894531 5.488281 12.921875 5.488281 12.953125 C 5.488281 12.984375 5.496094 13.007812 5.503906 13.007812 C 5.511719 13.007812 5.519531 13.042969 5.519531 13.089844 C 5.519531 13.132812 5.527344 13.167969 5.535156 13.167969 C 5.542969 13.167969 5.550781 13.191406 5.550781 13.222656 C 5.550781 13.253906 5.558594 13.28125 5.566406 13.289062 C 5.578125 13.292969 5.585938 13.328125 5.585938 13.359375 C 5.585938 13.394531 5.589844 13.425781 5.601562 13.425781 C 5.609375 13.425781 5.617188 13.453125 5.617188 13.488281 C 5.617188 13.523438 5.621094 13.550781 5.628906 13.542969 C 5.636719 13.539062 5.648438 13.574219 5.652344 13.621094 C 5.675781 13.855469 5.746094 14.0625 5.785156 14 C 5.789062 13.992188 5.824219 13.984375 5.855469 13.984375 C 5.890625 13.984375 5.921875 13.976562 5.921875 13.96875 C 5.921875 13.960938 5.949219 13.953125 5.984375 13.953125 C 6.019531 13.953125 6.046875 13.945312 6.046875 13.9375 C 6.046875 13.925781 6.074219 13.921875 6.101562 13.921875 C 6.132812 13.921875 6.164062 13.914062 6.167969 13.902344 C 6.171875 13.894531 6.203125 13.886719 6.230469 13.886719 C 6.261719 13.886719 6.289062 13.878906 6.296875 13.871094 C 6.300781 13.863281 6.332031 13.855469 6.359375 13.855469 L 6.414062 13.855469 L 6.414062 13.769531 C 6.414062 13.71875 6.410156 13.679688 6.398438 13.679688 C 6.390625 13.679688 6.382812 13.652344 6.382812 13.617188 C 6.382812 13.582031 6.375 13.550781 6.367188 13.550781 C 6.359375 13.550781 6.351562 13.53125 6.351562 13.503906 C 6.351562 13.480469 6.339844 13.417969 6.328125 13.367188 C 6.316406 13.3125 6.300781 13.253906 6.300781 13.230469 C 6.296875 13.210938 6.289062 13.179688 6.285156 13.167969 C 6.269531 13.132812 6.253906 13.058594 6.246094 12.984375 C 6.242188 12.949219 6.230469 12.914062 6.222656 12.902344 C 6.214844 12.894531 6.207031 12.859375 6.207031 12.828125 C 6.203125 12.792969 6.195312 12.769531 6.1875 12.769531 C 6.183594 12.769531 6.175781 12.738281 6.175781 12.703125 C 6.175781 12.667969 6.167969 12.640625 6.160156 12.640625 C 6.152344 12.640625 6.144531 12.609375 6.144531 12.574219 C 6.144531 12.539062 6.136719 12.511719 6.128906 12.511719 C 6.121094 12.511719 6.113281 12.488281 6.113281 12.460938 C 6.113281 12.429688 6.105469 12.398438 6.097656 12.390625 C 6.089844 12.382812 6.078125 12.34375 6.078125 12.308594 C 6.074219 12.269531 6.066406 12.238281 6.0625 12.238281 C 6.054688 12.238281 6.046875 12.214844 6.046875 12.183594 C 6.046875 12.15625 6.039062 12.125 6.03125 12.121094 C 6.023438 12.113281 6.015625 12.085938 6.015625 12.054688 C 6.015625 12.027344 6.007812 11.996094 6 11.992188 C 5.992188 11.988281 5.984375 11.957031 5.984375 11.929688 C 5.984375 11.898438 5.976562 11.871094 5.96875 11.863281 C 5.960938 11.859375 5.953125 11.828125 5.953125 11.800781 C 5.953125 11.769531 5.945312 11.742188 5.9375 11.742188 C 5.933594 11.742188 5.925781 11.710938 5.921875 11.667969 C 5.921875 11.625 5.910156 11.589844 5.902344 11.585938 C 5.894531 11.582031 5.886719 11.558594 5.886719 11.527344 C 5.886719 11.5 5.878906 11.46875 5.871094 11.464844 C 5.863281 11.457031 5.855469 11.425781 5.855469 11.390625 C 5.855469 11.355469 5.847656 11.328125 5.839844 11.328125 C 5.832031 11.328125 5.824219 11.300781 5.824219 11.265625 C 5.824219 11.230469 5.816406 11.199219 5.808594 11.199219 C 5.800781 11.199219 5.792969 11.171875 5.792969 11.136719 C 5.792969 11.101562 5.785156 11.070312 5.777344 11.070312 C 5.765625 11.070312 5.761719 11.042969 5.761719 11.007812 C 5.761719 10.972656 5.753906 10.941406 5.742188 10.9375 C 5.734375 10.929688 5.726562 10.898438 5.726562 10.863281 C 5.726562 10.828125 5.722656 10.800781 5.710938 10.800781 C 5.703125 10.800781 5.695312 10.769531 5.695312 10.734375 C 5.695312 10.699219 5.6875 10.671875 5.679688 10.671875 C 5.671875 10.671875 5.664062 10.644531 5.664062 10.609375 C 5.664062 10.574219 5.65625 10.542969 5.648438 10.535156 C 5.640625 10.53125 5.636719 10.519531 5.640625 10.507812 C 5.644531 10.496094 5.636719 10.457031 5.625 10.421875 C 5.613281 10.382812 5.605469 10.351562 5.613281 10.34375 C 5.632812 10.324219 5.441406 10.339844 5.296875 10.371094 M 7.617188 12.175781 L 7.617188 14.015625 L 8.351562 14.015625 L 8.351562 10.335938 L 7.617188 10.335938 L 7.617188 12.175781 "/>
</svg>
